%TF.GenerationSoftware,KiCad,Pcbnew,9.0.3+dfsg-1*%
%TF.CreationDate,2026-03-18T13:00:08+01:00*%
%TF.ProjectId,tcvr,74637672-2e6b-4696-9361-645f70636258,1.0*%
%TF.SameCoordinates,Original*%
%TF.FileFunction,Copper,L1,Top*%
%TF.FilePolarity,Positive*%
%FSLAX46Y46*%
G04 Gerber Fmt 4.6, Leading zero omitted, Abs format (unit mm)*
G04 Created by KiCad (PCBNEW 9.0.3+dfsg-1) date 2026-03-18 13:00:08*
%MOMM*%
%LPD*%
G01*
G04 APERTURE LIST*
G04 Aperture macros list*
%AMRoundRect*
0 Rectangle with rounded corners*
0 $1 Rounding radius*
0 $2 $3 $4 $5 $6 $7 $8 $9 X,Y pos of 4 corners*
0 Add a 4 corners polygon primitive as box body*
4,1,4,$2,$3,$4,$5,$6,$7,$8,$9,$2,$3,0*
0 Add four circle primitives for the rounded corners*
1,1,$1+$1,$2,$3*
1,1,$1+$1,$4,$5*
1,1,$1+$1,$6,$7*
1,1,$1+$1,$8,$9*
0 Add four rect primitives between the rounded corners*
20,1,$1+$1,$2,$3,$4,$5,0*
20,1,$1+$1,$4,$5,$6,$7,0*
20,1,$1+$1,$6,$7,$8,$9,0*
20,1,$1+$1,$8,$9,$2,$3,0*%
G04 Aperture macros list end*
%ADD10C,0.300000*%
%TA.AperFunction,NonConductor*%
%ADD11C,0.300000*%
%TD*%
%TA.AperFunction,SMDPad,CuDef*%
%ADD12RoundRect,0.250000X0.475000X-0.250000X0.475000X0.250000X-0.475000X0.250000X-0.475000X-0.250000X0*%
%TD*%
%TA.AperFunction,SMDPad,CuDef*%
%ADD13RoundRect,0.250000X0.250000X0.475000X-0.250000X0.475000X-0.250000X-0.475000X0.250000X-0.475000X0*%
%TD*%
%TA.AperFunction,SMDPad,CuDef*%
%ADD14RoundRect,1.200000X2.800000X-2.800000X2.800000X2.800000X-2.800000X2.800000X-2.800000X-2.800000X0*%
%TD*%
%TA.AperFunction,SMDPad,CuDef*%
%ADD15RoundRect,0.250000X-0.450000X0.262500X-0.450000X-0.262500X0.450000X-0.262500X0.450000X0.262500X0*%
%TD*%
%TA.AperFunction,SMDPad,CuDef*%
%ADD16RoundRect,0.250000X-0.250000X-0.250000X0.250000X-0.250000X0.250000X0.250000X-0.250000X0.250000X0*%
%TD*%
%TA.AperFunction,SMDPad,CuDef*%
%ADD17RoundRect,0.250000X-0.250000X-0.475000X0.250000X-0.475000X0.250000X0.475000X-0.250000X0.475000X0*%
%TD*%
%TA.AperFunction,SMDPad,CuDef*%
%ADD18RoundRect,0.250000X0.750000X-2.000000X0.750000X2.000000X-0.750000X2.000000X-0.750000X-2.000000X0*%
%TD*%
%TA.AperFunction,SMDPad,CuDef*%
%ADD19RoundRect,0.250000X-1.075000X0.375000X-1.075000X-0.375000X1.075000X-0.375000X1.075000X0.375000X0*%
%TD*%
%TA.AperFunction,SMDPad,CuDef*%
%ADD20RoundRect,0.250000X-0.475000X0.250000X-0.475000X-0.250000X0.475000X-0.250000X0.475000X0.250000X0*%
%TD*%
%TA.AperFunction,SMDPad,CuDef*%
%ADD21RoundRect,0.250000X0.262500X0.450000X-0.262500X0.450000X-0.262500X-0.450000X0.262500X-0.450000X0*%
%TD*%
%TA.AperFunction,ComponentPad*%
%ADD22C,1.600000*%
%TD*%
%TA.AperFunction,SMDPad,CuDef*%
%ADD23RoundRect,0.150000X-0.587500X-0.150000X0.587500X-0.150000X0.587500X0.150000X-0.587500X0.150000X0*%
%TD*%
%TA.AperFunction,SMDPad,CuDef*%
%ADD24RoundRect,0.375000X-0.625000X-0.375000X0.625000X-0.375000X0.625000X0.375000X-0.625000X0.375000X0*%
%TD*%
%TA.AperFunction,SMDPad,CuDef*%
%ADD25RoundRect,0.500000X-0.500000X-1.400000X0.500000X-1.400000X0.500000X1.400000X-0.500000X1.400000X0*%
%TD*%
%TA.AperFunction,SMDPad,CuDef*%
%ADD26R,3.000000X3.000000*%
%TD*%
%TA.AperFunction,ComponentPad*%
%ADD27R,1.700000X1.700000*%
%TD*%
%TA.AperFunction,ComponentPad*%
%ADD28C,1.700000*%
%TD*%
%TA.AperFunction,SMDPad,CuDef*%
%ADD29RoundRect,0.150000X0.587500X0.150000X-0.587500X0.150000X-0.587500X-0.150000X0.587500X-0.150000X0*%
%TD*%
%TA.AperFunction,SMDPad,CuDef*%
%ADD30RoundRect,0.250000X-0.262500X-0.450000X0.262500X-0.450000X0.262500X0.450000X-0.262500X0.450000X0*%
%TD*%
%TA.AperFunction,SMDPad,CuDef*%
%ADD31RoundRect,0.250000X0.250000X0.250000X-0.250000X0.250000X-0.250000X-0.250000X0.250000X-0.250000X0*%
%TD*%
%TA.AperFunction,ComponentPad*%
%ADD32C,2.200000*%
%TD*%
%TA.AperFunction,SMDPad,CuDef*%
%ADD33RoundRect,0.250000X-0.625000X0.312500X-0.625000X-0.312500X0.625000X-0.312500X0.625000X0.312500X0*%
%TD*%
%TA.AperFunction,SMDPad,CuDef*%
%ADD34RoundRect,0.150000X-0.725000X-0.150000X0.725000X-0.150000X0.725000X0.150000X-0.725000X0.150000X0*%
%TD*%
%TA.AperFunction,Conductor*%
%ADD35C,1.000000*%
%TD*%
%TA.AperFunction,Conductor*%
%ADD36C,2.000000*%
%TD*%
%TA.AperFunction,Conductor*%
%ADD37C,0.500000*%
%TD*%
%TA.AperFunction,Conductor*%
%ADD38C,0.200000*%
%TD*%
G04 APERTURE END LIST*
D10*
D11*
X61895760Y-47448328D02*
X61895760Y-45948328D01*
X61895760Y-46662614D02*
X62752903Y-46662614D01*
X62752903Y-47448328D02*
X62752903Y-45948328D01*
X63467189Y-47448328D02*
X63467189Y-45948328D01*
X63467189Y-45948328D02*
X64038618Y-45948328D01*
X64038618Y-45948328D02*
X64181475Y-46019757D01*
X64181475Y-46019757D02*
X64252904Y-46091185D01*
X64252904Y-46091185D02*
X64324332Y-46234042D01*
X64324332Y-46234042D02*
X64324332Y-46448328D01*
X64324332Y-46448328D02*
X64252904Y-46591185D01*
X64252904Y-46591185D02*
X64181475Y-46662614D01*
X64181475Y-46662614D02*
X64038618Y-46734042D01*
X64038618Y-46734042D02*
X63467189Y-46734042D01*
X65252904Y-45948328D02*
X65395761Y-45948328D01*
X65395761Y-45948328D02*
X65538618Y-46019757D01*
X65538618Y-46019757D02*
X65610047Y-46091185D01*
X65610047Y-46091185D02*
X65681475Y-46234042D01*
X65681475Y-46234042D02*
X65752904Y-46519757D01*
X65752904Y-46519757D02*
X65752904Y-46876900D01*
X65752904Y-46876900D02*
X65681475Y-47162614D01*
X65681475Y-47162614D02*
X65610047Y-47305471D01*
X65610047Y-47305471D02*
X65538618Y-47376900D01*
X65538618Y-47376900D02*
X65395761Y-47448328D01*
X65395761Y-47448328D02*
X65252904Y-47448328D01*
X65252904Y-47448328D02*
X65110047Y-47376900D01*
X65110047Y-47376900D02*
X65038618Y-47305471D01*
X65038618Y-47305471D02*
X64967189Y-47162614D01*
X64967189Y-47162614D02*
X64895761Y-46876900D01*
X64895761Y-46876900D02*
X64895761Y-46519757D01*
X64895761Y-46519757D02*
X64967189Y-46234042D01*
X64967189Y-46234042D02*
X65038618Y-46091185D01*
X65038618Y-46091185D02*
X65110047Y-46019757D01*
X65110047Y-46019757D02*
X65252904Y-45948328D01*
X67181475Y-46019757D02*
X67038618Y-45948328D01*
X67038618Y-45948328D02*
X66824332Y-45948328D01*
X66824332Y-45948328D02*
X66610046Y-46019757D01*
X66610046Y-46019757D02*
X66467189Y-46162614D01*
X66467189Y-46162614D02*
X66395760Y-46305471D01*
X66395760Y-46305471D02*
X66324332Y-46591185D01*
X66324332Y-46591185D02*
X66324332Y-46805471D01*
X66324332Y-46805471D02*
X66395760Y-47091185D01*
X66395760Y-47091185D02*
X66467189Y-47234042D01*
X66467189Y-47234042D02*
X66610046Y-47376900D01*
X66610046Y-47376900D02*
X66824332Y-47448328D01*
X66824332Y-47448328D02*
X66967189Y-47448328D01*
X66967189Y-47448328D02*
X67181475Y-47376900D01*
X67181475Y-47376900D02*
X67252903Y-47305471D01*
X67252903Y-47305471D02*
X67252903Y-46805471D01*
X67252903Y-46805471D02*
X66967189Y-46805471D01*
X67752903Y-45948328D02*
X68110046Y-47448328D01*
X68110046Y-47448328D02*
X68395760Y-46376900D01*
X68395760Y-46376900D02*
X68681475Y-47448328D01*
X68681475Y-47448328D02*
X69038618Y-45948328D01*
X69610046Y-47448328D02*
X69610046Y-45948328D01*
X69610046Y-45948328D02*
X70110046Y-47019757D01*
X70110046Y-47019757D02*
X70610046Y-45948328D01*
X70610046Y-45948328D02*
X70610046Y-47448328D01*
D12*
%TO.P,C7,1*%
%TO.N,Net-(C6-Pad2)*%
X79760000Y-36840000D03*
%TO.P,C7,2*%
%TO.N,GND*%
X79760000Y-34940000D03*
%TD*%
D13*
%TO.P,C17,1*%
%TO.N,Net-(AE1-A)*%
X91460000Y-32030000D03*
%TO.P,C17,2*%
%TO.N,GND*%
X89560000Y-32030000D03*
%TD*%
D14*
%TO.P,SW1,1,1*%
%TO.N,GND*%
X56340000Y-46940000D03*
%TO.P,SW1,2,2*%
%TO.N,Net-(D2-K)*%
X76340000Y-46940000D03*
%TD*%
D15*
%TO.P,R2,1*%
%TO.N,Net-(Q1-B)*%
X59510000Y-31217500D03*
%TO.P,R2,2*%
%TO.N,GND*%
X59510000Y-33042500D03*
%TD*%
D16*
%TO.P,D2,1,K*%
%TO.N,Net-(D2-K)*%
X89032500Y-39610000D03*
%TO.P,D2,2,A*%
%TO.N,Net-(D2-A)*%
X91532500Y-39610000D03*
%TD*%
D17*
%TO.P,C10,1*%
%TO.N,Net-(C10-Pad1)*%
X85110000Y-41330000D03*
%TO.P,C10,2*%
%TO.N,Net-(C10-Pad2)*%
X87010000Y-41330000D03*
%TD*%
D15*
%TO.P,R6,1*%
%TO.N,Net-(D1-K)*%
X68910000Y-37317500D03*
%TO.P,R6,2*%
%TO.N,GND*%
X68910000Y-39142500D03*
%TD*%
D18*
%TO.P,Y1,1,1*%
%TO.N,Net-(Q2-D)*%
X55610000Y-35830000D03*
%TO.P,Y1,2,2*%
%TO.N,Net-(Q1-B)*%
X55610000Y-27330000D03*
%TD*%
D12*
%TO.P,C21,1*%
%TO.N,Net-(D3-K)*%
X97210000Y-27730000D03*
%TO.P,C21,2*%
%TO.N,GND*%
X97210000Y-25830000D03*
%TD*%
D19*
%TO.P,L1,1,1*%
%TO.N,Net-(Q1-E)*%
X68110000Y-29530000D03*
%TO.P,L1,2,2*%
%TO.N,Net-(D1-K)*%
X68110000Y-32330000D03*
%TD*%
D20*
%TO.P,C3,1*%
%TO.N,Net-(Q1-E)*%
X61510000Y-31080000D03*
%TO.P,C3,2*%
%TO.N,GND*%
X61510000Y-32980000D03*
%TD*%
D13*
%TO.P,C14,1*%
%TO.N,Net-(C14-Pad1)*%
X88960000Y-48730000D03*
%TO.P,C14,2*%
%TO.N,Net-(C14-Pad2)*%
X87060000Y-48730000D03*
%TD*%
D16*
%TO.P,D3,1,K*%
%TO.N,Net-(D3-K)*%
X99360000Y-33530000D03*
%TO.P,D3,2,A*%
%TO.N,Net-(D3-A)*%
X101860000Y-33530000D03*
%TD*%
D21*
%TO.P,R1,1*%
%TO.N,Net-(D3-K)*%
X63122500Y-25730000D03*
%TO.P,R1,2*%
%TO.N,Net-(Q1-B)*%
X61297500Y-25730000D03*
%TD*%
D22*
%TO.P,L3,1,1*%
%TO.N,Net-(C6-Pad2)*%
X83010000Y-36230000D03*
%TO.P,L3,2,2*%
%TO.N,Net-(C12-Pad1)*%
X83010000Y-26070000D03*
%TD*%
D23*
%TO.P,Q1,1,B*%
%TO.N,Net-(Q1-B)*%
X61572500Y-27580000D03*
%TO.P,Q1,2,E*%
%TO.N,Net-(Q1-E)*%
X61572500Y-29480000D03*
%TO.P,Q1,3,C*%
%TO.N,Net-(D3-K)*%
X63447500Y-28530000D03*
%TD*%
D13*
%TO.P,C19,1*%
%TO.N,Net-(AE1-A)*%
X91510000Y-34030000D03*
%TO.P,C19,2*%
%TO.N,GND*%
X89610000Y-34030000D03*
%TD*%
D24*
%TO.P,Q3,1,B*%
%TO.N,Net-(Q1-E)*%
X70960000Y-29930000D03*
%TO.P,Q3,2,C*%
%TO.N,Net-(Q3-C)*%
X70960000Y-32230000D03*
D25*
X77260000Y-32230000D03*
D24*
%TO.P,Q3,3,E*%
%TO.N,Net-(D1-K)*%
X70960000Y-34530000D03*
%TD*%
D26*
%TO.P,AE1,1,A*%
%TO.N,Net-(AE1-A)*%
X94310000Y-31030000D03*
%TD*%
D27*
%TO.P,J3,1,Pin_1*%
%TO.N,Net-(D3-A)*%
X102010000Y-29405000D03*
D28*
%TO.P,J3,2,Pin_2*%
%TO.N,GND*%
X102010000Y-26865000D03*
%TD*%
D22*
%TO.P,L4,1,1*%
%TO.N,Net-(C12-Pad1)*%
X86910000Y-26050000D03*
%TO.P,L4,2,2*%
%TO.N,Net-(AE1-A)*%
X86910000Y-36210000D03*
%TD*%
D15*
%TO.P,R5,1*%
%TO.N,Net-(D3-K)*%
X65610000Y-25630000D03*
%TO.P,R5,2*%
%TO.N,Net-(Q1-E)*%
X65610000Y-27455000D03*
%TD*%
D13*
%TO.P,C20,1*%
%TO.N,Net-(AE1-A)*%
X91460000Y-36030000D03*
%TO.P,C20,2*%
%TO.N,GND*%
X89560000Y-36030000D03*
%TD*%
D20*
%TO.P,C2,1*%
%TO.N,Net-(Q1-B)*%
X59510000Y-27780000D03*
%TO.P,C2,2*%
%TO.N,Net-(Q1-E)*%
X59510000Y-29680000D03*
%TD*%
D21*
%TO.P,R8,1*%
%TO.N,Net-(C14-Pad2)*%
X85522500Y-48720000D03*
%TO.P,R8,2*%
%TO.N,GND*%
X83697500Y-48720000D03*
%TD*%
D29*
%TO.P,Q2,1,G*%
%TO.N,Net-(D1-A)*%
X63447500Y-36380000D03*
%TO.P,Q2,2,S*%
%TO.N,GND*%
X63447500Y-34480000D03*
%TO.P,Q2,3,D*%
%TO.N,Net-(Q2-D)*%
X61572500Y-35430000D03*
%TD*%
D15*
%TO.P,R3,1*%
%TO.N,Net-(Q1-E)*%
X65510000Y-29217500D03*
%TO.P,R3,2*%
%TO.N,GND*%
X65510000Y-31042500D03*
%TD*%
D17*
%TO.P,C12,1*%
%TO.N,Net-(C12-Pad1)*%
X89560000Y-26030000D03*
%TO.P,C12,2*%
%TO.N,GND*%
X91460000Y-26030000D03*
%TD*%
D30*
%TO.P,R4,1*%
%TO.N,Net-(D3-K)*%
X61597500Y-38130000D03*
%TO.P,R4,2*%
%TO.N,Net-(D1-A)*%
X63422500Y-38130000D03*
%TD*%
D26*
%TO.P,J2,1,Pin_1*%
%TO.N,GND*%
X94210000Y-27030000D03*
%TD*%
D12*
%TO.P,C4,1*%
%TO.N,Net-(Q1-E)*%
X63510000Y-32980000D03*
%TO.P,C4,2*%
X63510000Y-31080000D03*
%TD*%
D13*
%TO.P,C18,1*%
%TO.N,Net-(AE1-A)*%
X91460000Y-28030000D03*
%TO.P,C18,2*%
%TO.N,GND*%
X89560000Y-28030000D03*
%TD*%
D12*
%TO.P,C22,1*%
%TO.N,Net-(D3-K)*%
X99210000Y-27680000D03*
%TO.P,C22,2*%
%TO.N,GND*%
X99210000Y-25780000D03*
%TD*%
D31*
%TO.P,D1,1,K*%
%TO.N,Net-(D1-K)*%
X68460000Y-35230000D03*
%TO.P,D1,2,A*%
%TO.N,Net-(D1-A)*%
X65960000Y-35230000D03*
%TD*%
D20*
%TO.P,C16,1*%
%TO.N,Net-(C14-Pad1)*%
X90740000Y-48700000D03*
%TO.P,C16,2*%
%TO.N,Net-(J1-Pin_1)*%
X90740000Y-50600000D03*
%TD*%
D15*
%TO.P,R7,1*%
%TO.N,Net-(D3-K)*%
X93620000Y-36177500D03*
%TO.P,R7,2*%
%TO.N,Net-(D2-A)*%
X93620000Y-38002500D03*
%TD*%
D20*
%TO.P,C9,1*%
%TO.N,Net-(C12-Pad1)*%
X80010000Y-25830000D03*
%TO.P,C9,2*%
%TO.N,GND*%
X80010000Y-27730000D03*
%TD*%
D13*
%TO.P,C15,1*%
%TO.N,Net-(AE1-A)*%
X91510000Y-30030000D03*
%TO.P,C15,2*%
%TO.N,GND*%
X89610000Y-30030000D03*
%TD*%
D20*
%TO.P,C6,1*%
%TO.N,Net-(Q3-C)*%
X79710000Y-29730000D03*
%TO.P,C6,2*%
%TO.N,Net-(C6-Pad2)*%
X79710000Y-31630000D03*
%TD*%
%TO.P,C8,1*%
%TO.N,Net-(D2-K)*%
X81910000Y-39630000D03*
%TO.P,C8,2*%
%TO.N,Net-(U1--)*%
X81910000Y-41530000D03*
%TD*%
D12*
%TO.P,C13,1*%
%TO.N,Net-(D2-A)*%
X92110000Y-47180000D03*
%TO.P,C13,2*%
%TO.N,GND*%
X92110000Y-45280000D03*
%TD*%
D17*
%TO.P,C11,1*%
%TO.N,Net-(U1-BYPASS)*%
X90460000Y-43530000D03*
%TO.P,C11,2*%
%TO.N,GND*%
X92360000Y-43530000D03*
%TD*%
D12*
%TO.P,C1,1*%
%TO.N,Net-(Q2-D)*%
X59510000Y-36480000D03*
%TO.P,C1,2*%
%TO.N,GND*%
X59510000Y-34580000D03*
%TD*%
D20*
%TO.P,C5,1*%
%TO.N,Net-(D1-K)*%
X71210000Y-37230000D03*
%TO.P,C5,2*%
%TO.N,GND*%
X71210000Y-39130000D03*
%TD*%
D32*
%TO.P,J1,1,Pin_1*%
%TO.N,Net-(J1-Pin_1)*%
X98830000Y-49900000D03*
%TO.P,J1,2,Pin_2*%
X98830000Y-47400000D03*
%TO.P,J1,3,Pin_3*%
X98830000Y-42400000D03*
%TO.P,J1,4,Pin_4*%
X98830000Y-39900000D03*
%TO.P,J1,5,Pin_5*%
%TO.N,GND*%
X103830000Y-44900000D03*
%TD*%
D22*
%TO.P,L2,1,1*%
%TO.N,Net-(D3-K)*%
X67730000Y-26730000D03*
%TO.P,L2,2,2*%
%TO.N,Net-(Q3-C)*%
X77890000Y-26730000D03*
%TD*%
D33*
%TO.P,R9,1*%
%TO.N,Net-(D1-K)*%
X75510000Y-36767500D03*
%TO.P,R9,2*%
%TO.N,Net-(D2-K)*%
X75510000Y-39692500D03*
%TD*%
D34*
%TO.P,U1,1,GAIN*%
%TO.N,Net-(C10-Pad1)*%
X83435000Y-43125000D03*
%TO.P,U1,2,-*%
%TO.N,Net-(U1--)*%
X83435000Y-44395000D03*
%TO.P,U1,3,+*%
%TO.N,GND*%
X83435000Y-45665000D03*
%TO.P,U1,4,GND*%
X83435000Y-46935000D03*
%TO.P,U1,5*%
%TO.N,Net-(C14-Pad1)*%
X88585000Y-46935000D03*
%TO.P,U1,6,V+*%
%TO.N,Net-(D2-A)*%
X88585000Y-45665000D03*
%TO.P,U1,7,BYPASS*%
%TO.N,Net-(U1-BYPASS)*%
X88585000Y-44395000D03*
%TO.P,U1,8,GAIN*%
%TO.N,Net-(C10-Pad2)*%
X88585000Y-43125000D03*
%TD*%
D35*
%TO.N,Net-(Q2-D)*%
X59510000Y-36480000D02*
X60522500Y-36480000D01*
X60522500Y-36480000D02*
X61572500Y-35430000D01*
X55610000Y-35830000D02*
X56270000Y-36490000D01*
X56270000Y-36490000D02*
X57510000Y-36490000D01*
X57510000Y-36490000D02*
X57520000Y-36480000D01*
X57520000Y-36480000D02*
X59510000Y-36480000D01*
%TO.N,Net-(J1-Pin_1)*%
X90850000Y-50490000D02*
X90740000Y-50600000D01*
D36*
X98830000Y-39900000D02*
X98830000Y-49900000D01*
D35*
X98830000Y-49900000D02*
X98030000Y-49900000D01*
X98030000Y-49900000D02*
X97330000Y-50600000D01*
X97330000Y-50600000D02*
X90740000Y-50600000D01*
%TO.N,GND*%
X89560000Y-29780000D02*
X89560000Y-36030000D01*
D37*
X63010000Y-34480000D02*
X61510000Y-32980000D01*
D35*
X89560000Y-28030000D02*
X89560000Y-29780000D01*
D37*
X63347500Y-34580000D02*
X63447500Y-34480000D01*
D35*
X80010000Y-27730000D02*
X81140000Y-27730000D01*
X83190000Y-29780000D02*
X89560000Y-29780000D01*
D37*
X68910000Y-39142500D02*
X71197500Y-39142500D01*
X91460000Y-26030000D02*
X91460000Y-26130000D01*
X65510000Y-31042500D02*
X65510000Y-33271364D01*
D35*
X102010000Y-26865000D02*
X101175000Y-26030000D01*
D37*
X67210000Y-37442500D02*
X68910000Y-39142500D01*
X59510000Y-33042500D02*
X61447500Y-33042500D01*
X97260000Y-25780000D02*
X97210000Y-25830000D01*
X92110000Y-45280000D02*
X92110000Y-43780000D01*
X83435000Y-45665000D02*
X83435000Y-48457500D01*
X92360000Y-45030000D02*
X92110000Y-45280000D01*
X65510000Y-33271364D02*
X67210000Y-34971364D01*
X92110000Y-43780000D02*
X92360000Y-43530000D01*
X83435000Y-48457500D02*
X83697500Y-48720000D01*
X58785000Y-34580000D02*
X59510000Y-34580000D01*
X63447500Y-34480000D02*
X63010000Y-34480000D01*
D35*
X101175000Y-26030000D02*
X91460000Y-26030000D01*
D38*
X61510000Y-32980000D02*
X61447500Y-33042500D01*
D35*
X59510000Y-34580000D02*
X59510000Y-33042500D01*
D37*
X71197500Y-39142500D02*
X71210000Y-39130000D01*
X67210000Y-34971364D02*
X67210000Y-37442500D01*
D35*
X81140000Y-27730000D02*
X83190000Y-29780000D01*
D38*
X61510000Y-32980000D02*
X61947500Y-32980000D01*
D37*
X65510000Y-33154999D02*
X64184999Y-34480000D01*
X91460000Y-26130000D02*
X89560000Y-28030000D01*
X64184999Y-34480000D02*
X63447500Y-34480000D01*
%TO.N,Net-(D2-K)*%
X89012500Y-39630000D02*
X89032500Y-39610000D01*
X75572500Y-39630000D02*
X75510000Y-39692500D01*
D35*
X81910000Y-39630000D02*
X75572500Y-39630000D01*
X75510000Y-39692500D02*
X75510000Y-46110000D01*
D36*
X75510000Y-46110000D02*
X76340000Y-46940000D01*
D35*
X81910000Y-39630000D02*
X89012500Y-39630000D01*
D37*
%TO.N,Net-(AE1-A)*%
X87891000Y-37191000D02*
X87891000Y-37500000D01*
X87891000Y-37500000D02*
X90340000Y-37500000D01*
X91460000Y-36030000D02*
X91460000Y-36418750D01*
X91460000Y-36380000D02*
X91460000Y-36030000D01*
D35*
X91492500Y-31030000D02*
X91460000Y-30997500D01*
X91460000Y-28030000D02*
X91460000Y-30997500D01*
D37*
X86910000Y-36210000D02*
X87891000Y-37191000D01*
X90340000Y-37500000D02*
X91460000Y-36380000D01*
D35*
X94310000Y-31030000D02*
X91492500Y-31030000D01*
D37*
X91790000Y-36360000D02*
X91460000Y-36030000D01*
D35*
X91460000Y-30997500D02*
X91460000Y-36030000D01*
D37*
%TO.N,Net-(D1-K)*%
X70860000Y-34430000D02*
X70960000Y-34530000D01*
X68110000Y-32330000D02*
X68110000Y-34880000D01*
D35*
X71672500Y-36767500D02*
X71210000Y-37230000D01*
D37*
X68110000Y-34880000D02*
X68460000Y-35230000D01*
X70660000Y-34230000D02*
X70960000Y-34530000D01*
X68460000Y-35230000D02*
X68460000Y-36867500D01*
X68910000Y-37317500D02*
X71122500Y-37317500D01*
X71122500Y-37317500D02*
X71210000Y-37230000D01*
X68460000Y-36867500D02*
X68910000Y-37317500D01*
X70260000Y-35230000D02*
X70960000Y-34530000D01*
D35*
X75510000Y-36767500D02*
X71672500Y-36767500D01*
X68460000Y-35230000D02*
X70260000Y-35230000D01*
D37*
%TO.N,Net-(Q1-B)*%
X56060000Y-27780000D02*
X55610000Y-27330000D01*
X61372500Y-27780000D02*
X61572500Y-27580000D01*
D35*
X61297500Y-25730000D02*
X61297500Y-27305000D01*
D37*
X59647500Y-31080000D02*
X59510000Y-31217500D01*
D35*
X59510000Y-31217500D02*
X56397500Y-31217500D01*
D37*
X61297500Y-27305000D02*
X61572500Y-27580000D01*
D35*
X59510000Y-27780000D02*
X56060000Y-27780000D01*
X55610000Y-30430000D02*
X55610000Y-27330000D01*
X56397500Y-31217500D02*
X55610000Y-30430000D01*
X59510000Y-27780000D02*
X61372500Y-27780000D01*
%TO.N,Net-(D3-K)*%
X99323750Y-36180000D02*
X105170000Y-36180000D01*
X63222500Y-25630000D02*
X63122500Y-25730000D01*
D37*
X63447500Y-26055000D02*
X63122500Y-25730000D01*
D35*
X61597500Y-38130000D02*
X61597500Y-38308500D01*
X99210000Y-33380000D02*
X99360000Y-33530000D01*
X99360000Y-36036250D02*
X99411250Y-36087500D01*
X99411250Y-36087500D02*
X99321250Y-36177500D01*
X99321250Y-36177500D02*
X99323750Y-36180000D01*
X63122500Y-24006250D02*
X63281250Y-23847500D01*
X59226000Y-40680000D02*
X52622000Y-40680000D01*
X99360000Y-33530000D02*
X99360000Y-36036250D01*
X104781250Y-23847500D02*
X63281250Y-23847500D01*
X97260000Y-27680000D02*
X97210000Y-27730000D01*
X65610000Y-25630000D02*
X63222500Y-25630000D01*
X65610000Y-25630000D02*
X67778750Y-25630000D01*
X63447500Y-28530000D02*
X63447500Y-26055000D01*
X105170000Y-24236250D02*
X104781250Y-23847500D01*
X67831250Y-26628750D02*
X67730000Y-26730000D01*
X52622000Y-40680000D02*
X52622000Y-23898250D01*
X63122500Y-25730000D02*
X63122500Y-24006250D01*
X63281250Y-23847500D02*
X52571250Y-23847500D01*
X105170000Y-36180000D02*
X105170000Y-24236250D01*
X99210000Y-27680000D02*
X97260000Y-27680000D01*
X99321250Y-36177500D02*
X93620000Y-36177500D01*
X67831250Y-25577500D02*
X67831250Y-26628750D01*
X67778750Y-25630000D02*
X67831250Y-25577500D01*
X61597500Y-38308500D02*
X59226000Y-40680000D01*
X52622000Y-23898250D02*
X52571250Y-23847500D01*
X99210000Y-27680000D02*
X99210000Y-33380000D01*
%TO.N,Net-(Q1-E)*%
X61510000Y-31080000D02*
X63510000Y-31080000D01*
D37*
X61372500Y-29680000D02*
X61572500Y-29480000D01*
X63647500Y-31080000D02*
X65510000Y-29217500D01*
D35*
X63510000Y-32980000D02*
X63510000Y-31080000D01*
D37*
X63510000Y-31080000D02*
X63647500Y-31080000D01*
X65610000Y-29117500D02*
X65510000Y-29217500D01*
X61547500Y-31042500D02*
X61510000Y-31080000D01*
X70560000Y-29530000D02*
X70960000Y-29930000D01*
D35*
X61572500Y-29480000D02*
X61572500Y-31017500D01*
D37*
X65822500Y-29530000D02*
X65510000Y-29217500D01*
X61572500Y-31017500D02*
X61510000Y-31080000D01*
X68110000Y-29530000D02*
X65822500Y-29530000D01*
X68110000Y-29530000D02*
X70560000Y-29530000D01*
X68110000Y-29530000D02*
X68010000Y-29430000D01*
D35*
X59510000Y-29680000D02*
X61372500Y-29680000D01*
D37*
X65610000Y-27455000D02*
X65610000Y-29117500D01*
%TO.N,Net-(D1-A)*%
X63447500Y-36380000D02*
X64810000Y-36380000D01*
X63422500Y-36405000D02*
X63447500Y-36380000D01*
X64810000Y-36380000D02*
X65960000Y-35230000D01*
X63422500Y-38130000D02*
X63422500Y-36405000D01*
%TO.N,Net-(D2-A)*%
X90595000Y-45665000D02*
X88585000Y-45665000D01*
D35*
X93620000Y-38002500D02*
X93620000Y-46395000D01*
X93620000Y-38002500D02*
X91706250Y-38002500D01*
D37*
X92110000Y-47180000D02*
X90595000Y-45665000D01*
D35*
X91532500Y-38176250D02*
X91532500Y-39610000D01*
X92835000Y-47180000D02*
X92110000Y-47180000D01*
D37*
X91706250Y-38002500D02*
X91532500Y-38176250D01*
D35*
X93620000Y-46395000D02*
X92835000Y-47180000D01*
D37*
%TO.N,Net-(C14-Pad2)*%
X85522500Y-48720000D02*
X87050000Y-48720000D01*
X87050000Y-48720000D02*
X87060000Y-48730000D01*
%TO.N,Net-(Q2-D)*%
X56260000Y-36480000D02*
X55610000Y-35830000D01*
D35*
%TO.N,Net-(Q3-C)*%
X77977500Y-29730000D02*
X79710000Y-29730000D01*
D36*
X70960000Y-32230000D02*
X77260000Y-32230000D01*
D35*
X77890000Y-29817500D02*
X77977500Y-29730000D01*
X77890000Y-29817500D02*
X77890000Y-31600000D01*
X77890000Y-26730000D02*
X77890000Y-29817500D01*
X77890000Y-31600000D02*
X77260000Y-32230000D01*
D37*
%TO.N,Net-(U1--)*%
X82560001Y-44395000D02*
X83435000Y-44395000D01*
X81910000Y-41530000D02*
X81910000Y-43744999D01*
X81910000Y-43744999D02*
X82560001Y-44395000D01*
%TO.N,Net-(C10-Pad1)*%
X85110000Y-41330000D02*
X85110000Y-41450000D01*
X85110000Y-41450000D02*
X83435000Y-43125000D01*
%TO.N,Net-(C10-Pad2)*%
X88585000Y-42905000D02*
X87010000Y-41330000D01*
X88585000Y-43125000D02*
X88585000Y-42905000D01*
%TO.N,Net-(U1-BYPASS)*%
X89595000Y-44395000D02*
X90460000Y-43530000D01*
X88585000Y-44395000D02*
X89595000Y-44395000D01*
%TO.N,Net-(C14-Pad1)*%
X88960000Y-48730000D02*
X88960000Y-47310000D01*
X88960000Y-48730000D02*
X90710000Y-48730000D01*
X90710000Y-48730000D02*
X90740000Y-48700000D01*
X88960000Y-47310000D02*
X88585000Y-46935000D01*
%TO.N,Net-(C12-Pad1)*%
X89560000Y-26030000D02*
X80210000Y-26030000D01*
X80210000Y-26030000D02*
X80010000Y-25830000D01*
D35*
%TO.N,Net-(C6-Pad2)*%
X80435000Y-31630000D02*
X83010000Y-34205000D01*
X83010000Y-34205000D02*
X83010000Y-36230000D01*
X82400000Y-36840000D02*
X83010000Y-36230000D01*
X79710000Y-31630000D02*
X80435000Y-31630000D01*
X79760000Y-36840000D02*
X82400000Y-36840000D01*
%TO.N,Net-(D3-A)*%
X102010000Y-29405000D02*
X102010000Y-33380000D01*
X102010000Y-33380000D02*
X101860000Y-33530000D01*
%TD*%
%TA.AperFunction,Conductor*%
%TO.N,GND*%
G36*
X51579015Y-24457676D02*
G01*
X51616593Y-24516580D01*
X51621500Y-24551118D01*
X51621500Y-40778541D01*
X51621500Y-40778543D01*
X51621499Y-40778543D01*
X51659947Y-40971829D01*
X51659950Y-40971839D01*
X51735364Y-41153907D01*
X51735371Y-41153920D01*
X51844860Y-41317781D01*
X51844863Y-41317785D01*
X51984214Y-41457136D01*
X51984218Y-41457139D01*
X52148079Y-41566628D01*
X52148092Y-41566635D01*
X52330160Y-41642049D01*
X52330165Y-41642051D01*
X52330169Y-41642051D01*
X52330170Y-41642052D01*
X52523456Y-41680500D01*
X52523459Y-41680500D01*
X59324542Y-41680500D01*
X59355566Y-41674328D01*
X59421188Y-41661275D01*
X59517836Y-41642051D01*
X59571165Y-41619961D01*
X59699914Y-41566632D01*
X59863782Y-41457139D01*
X60003139Y-41317782D01*
X60003139Y-41317780D01*
X60013347Y-41307573D01*
X60013348Y-41307570D01*
X61865933Y-39454986D01*
X67710001Y-39454986D01*
X67720494Y-39557697D01*
X67775641Y-39724119D01*
X67775643Y-39724124D01*
X67867684Y-39873345D01*
X67991654Y-39997315D01*
X68140875Y-40089356D01*
X68140880Y-40089358D01*
X68307302Y-40144505D01*
X68307309Y-40144506D01*
X68410019Y-40154999D01*
X68659999Y-40154999D01*
X68660000Y-40154998D01*
X68660000Y-39392500D01*
X69160000Y-39392500D01*
X69160000Y-40154999D01*
X69409972Y-40154999D01*
X69409986Y-40154998D01*
X69512697Y-40144505D01*
X69679119Y-40089358D01*
X69679124Y-40089356D01*
X69828345Y-39997315D01*
X69952316Y-39873344D01*
X69956798Y-39867677D01*
X69957839Y-39868500D01*
X70004084Y-39826896D01*
X70073045Y-39815666D01*
X70137131Y-39843501D01*
X70145369Y-39851030D01*
X70266654Y-39972315D01*
X70415875Y-40064356D01*
X70415880Y-40064358D01*
X70582302Y-40119505D01*
X70582309Y-40119506D01*
X70685019Y-40129999D01*
X70959999Y-40129999D01*
X71460000Y-40129999D01*
X71734972Y-40129999D01*
X71734986Y-40129998D01*
X71837697Y-40119505D01*
X72004119Y-40064358D01*
X72004124Y-40064356D01*
X72153345Y-39972315D01*
X72277315Y-39848345D01*
X72369356Y-39699124D01*
X72369358Y-39699119D01*
X72424505Y-39532697D01*
X72424506Y-39532690D01*
X72434999Y-39429986D01*
X72435000Y-39429973D01*
X72435000Y-39380000D01*
X71460000Y-39380000D01*
X71460000Y-40129999D01*
X70959999Y-40129999D01*
X70960000Y-40129998D01*
X70960000Y-39380000D01*
X70220198Y-39380000D01*
X70202496Y-39389666D01*
X70176138Y-39392500D01*
X69160000Y-39392500D01*
X68660000Y-39392500D01*
X67710001Y-39392500D01*
X67710001Y-39454986D01*
X61865933Y-39454986D01*
X61974255Y-39346664D01*
X62022929Y-39316641D01*
X62179334Y-39264814D01*
X62328656Y-39172712D01*
X62422319Y-39079049D01*
X62483642Y-39045564D01*
X62553334Y-39050548D01*
X62597681Y-39079049D01*
X62691344Y-39172712D01*
X62840666Y-39264814D01*
X63007203Y-39319999D01*
X63109991Y-39330500D01*
X63735008Y-39330499D01*
X63735016Y-39330498D01*
X63735019Y-39330498D01*
X63824571Y-39321350D01*
X63837797Y-39319999D01*
X64004334Y-39264814D01*
X64153656Y-39172712D01*
X64277712Y-39048656D01*
X64369814Y-38899334D01*
X64424999Y-38732797D01*
X64435500Y-38630009D01*
X64435499Y-37629992D01*
X64434186Y-37617142D01*
X64424999Y-37527203D01*
X64424998Y-37527200D01*
X64415480Y-37498477D01*
X64369814Y-37360666D01*
X64344481Y-37319595D01*
X64326042Y-37252204D01*
X64346965Y-37185541D01*
X64400607Y-37140771D01*
X64450021Y-37130500D01*
X64883920Y-37130500D01*
X64981462Y-37111096D01*
X65028913Y-37101658D01*
X65165495Y-37045084D01*
X65229975Y-37002000D01*
X65288416Y-36962952D01*
X65984549Y-36266817D01*
X66045872Y-36233333D01*
X66072230Y-36230499D01*
X66260002Y-36230499D01*
X66260008Y-36230499D01*
X66362797Y-36219999D01*
X66529334Y-36164814D01*
X66678656Y-36072712D01*
X66802712Y-35948656D01*
X66894814Y-35799334D01*
X66949999Y-35632797D01*
X66960500Y-35530009D01*
X66960499Y-34929992D01*
X66949999Y-34827203D01*
X66894814Y-34660666D01*
X66802712Y-34511344D01*
X66678656Y-34387288D01*
X66529334Y-34295186D01*
X66362797Y-34240001D01*
X66362795Y-34240000D01*
X66260010Y-34229500D01*
X65659998Y-34229500D01*
X65659980Y-34229501D01*
X65557203Y-34240000D01*
X65557200Y-34240001D01*
X65390668Y-34295185D01*
X65390663Y-34295187D01*
X65241342Y-34387289D01*
X65117289Y-34511342D01*
X65025187Y-34660663D01*
X65025185Y-34660668D01*
X65007933Y-34712732D01*
X64970001Y-34827203D01*
X64970001Y-34827204D01*
X64970000Y-34827204D01*
X64959500Y-34929983D01*
X64959500Y-35117770D01*
X64939815Y-35184809D01*
X64923181Y-35205451D01*
X64535451Y-35593181D01*
X64508523Y-35607884D01*
X64482705Y-35624477D01*
X64476504Y-35625368D01*
X64474128Y-35626666D01*
X64447770Y-35629500D01*
X64317328Y-35629500D01*
X64282733Y-35624576D01*
X64137573Y-35582402D01*
X64137567Y-35582401D01*
X64100701Y-35579500D01*
X64100694Y-35579500D01*
X62934500Y-35579500D01*
X62925814Y-35576949D01*
X62916853Y-35578238D01*
X62892812Y-35567259D01*
X62867461Y-35559815D01*
X62861533Y-35552974D01*
X62853297Y-35549213D01*
X62839007Y-35526978D01*
X62821706Y-35507011D01*
X62819418Y-35496496D01*
X62815523Y-35490435D01*
X62810500Y-35455500D01*
X62810500Y-35404000D01*
X62830185Y-35336961D01*
X62882989Y-35291206D01*
X62934500Y-35280000D01*
X63197500Y-35280000D01*
X63697500Y-35280000D01*
X64100634Y-35280000D01*
X64100649Y-35279999D01*
X64137489Y-35277100D01*
X64137495Y-35277099D01*
X64295193Y-35231283D01*
X64295196Y-35231282D01*
X64436552Y-35147685D01*
X64436561Y-35147678D01*
X64552678Y-35031561D01*
X64552685Y-35031552D01*
X64636281Y-34890198D01*
X64682100Y-34732486D01*
X64682295Y-34730001D01*
X64682295Y-34730000D01*
X63697500Y-34730000D01*
X63697500Y-35280000D01*
X63197500Y-35280000D01*
X63197500Y-34730000D01*
X62541815Y-34730000D01*
X62478694Y-34712732D01*
X62420396Y-34678255D01*
X62420393Y-34678254D01*
X62262573Y-34632402D01*
X62262567Y-34632401D01*
X62225701Y-34629500D01*
X62225694Y-34629500D01*
X62212933Y-34629500D01*
X62145894Y-34609815D01*
X62144078Y-34608626D01*
X62077156Y-34563910D01*
X62046413Y-34543368D01*
X61864336Y-34467949D01*
X61864328Y-34467947D01*
X61671043Y-34429500D01*
X61671040Y-34429500D01*
X61473960Y-34429500D01*
X61473957Y-34429500D01*
X61280671Y-34467947D01*
X61280663Y-34467949D01*
X61098586Y-34543368D01*
X61039122Y-34583101D01*
X61000956Y-34608602D01*
X60934280Y-34629480D01*
X60932067Y-34629500D01*
X60919298Y-34629500D01*
X60882432Y-34632401D01*
X60882426Y-34632402D01*
X60724606Y-34678254D01*
X60724603Y-34678255D01*
X60583137Y-34761917D01*
X60583129Y-34761923D01*
X60551374Y-34793680D01*
X60490052Y-34827166D01*
X60463692Y-34830000D01*
X58285001Y-34830000D01*
X58285001Y-34879986D01*
X58295494Y-34982697D01*
X58350641Y-35149119D01*
X58350643Y-35149124D01*
X58437785Y-35290403D01*
X58456225Y-35357796D01*
X58435302Y-35424459D01*
X58381660Y-35469229D01*
X58332246Y-35479500D01*
X57421458Y-35479500D01*
X57401761Y-35483418D01*
X57383165Y-35487117D01*
X57358974Y-35489500D01*
X57234499Y-35489500D01*
X57167460Y-35469815D01*
X57121705Y-35417011D01*
X57110499Y-35365500D01*
X57110499Y-34280013D01*
X58285000Y-34280013D01*
X58285000Y-34330000D01*
X59260000Y-34330000D01*
X59260000Y-33292500D01*
X59760000Y-33292500D01*
X59760000Y-34330000D01*
X60734999Y-34330000D01*
X60734999Y-34280028D01*
X60734998Y-34280013D01*
X60724506Y-34177304D01*
X60705354Y-34119509D01*
X60702952Y-34049681D01*
X60738683Y-33989638D01*
X60801203Y-33958445D01*
X60862067Y-33962799D01*
X60882303Y-33969505D01*
X60882309Y-33969506D01*
X60985019Y-33979999D01*
X61259999Y-33979999D01*
X61260000Y-33979998D01*
X61260000Y-33230000D01*
X60840000Y-33230000D01*
X60813819Y-33256181D01*
X60752496Y-33289666D01*
X60726138Y-33292500D01*
X59760000Y-33292500D01*
X59260000Y-33292500D01*
X58310001Y-33292500D01*
X58310001Y-33354986D01*
X58320494Y-33457697D01*
X58375641Y-33624119D01*
X58375645Y-33624128D01*
X58442266Y-33732138D01*
X58460706Y-33799530D01*
X58442266Y-33862330D01*
X58350645Y-34010871D01*
X58350641Y-34010880D01*
X58295494Y-34177302D01*
X58295493Y-34177309D01*
X58285000Y-34280013D01*
X57110499Y-34280013D01*
X57110499Y-33779998D01*
X57110498Y-33779981D01*
X57099999Y-33677203D01*
X57099998Y-33677200D01*
X57098218Y-33671828D01*
X57044814Y-33510666D01*
X56952712Y-33361344D01*
X56828656Y-33237288D01*
X56725493Y-33173657D01*
X56679336Y-33145187D01*
X56679331Y-33145185D01*
X56677862Y-33144698D01*
X56512797Y-33090001D01*
X56512795Y-33090000D01*
X56410010Y-33079500D01*
X54809998Y-33079500D01*
X54809981Y-33079501D01*
X54707203Y-33090000D01*
X54707200Y-33090001D01*
X54540668Y-33145185D01*
X54540663Y-33145187D01*
X54391342Y-33237289D01*
X54267289Y-33361342D01*
X54175187Y-33510663D01*
X54175185Y-33510668D01*
X54156448Y-33567214D01*
X54120001Y-33677203D01*
X54120001Y-33677204D01*
X54120000Y-33677204D01*
X54109500Y-33779983D01*
X54109500Y-37880001D01*
X54109501Y-37880018D01*
X54120000Y-37982796D01*
X54120001Y-37982799D01*
X54175185Y-38149331D01*
X54175187Y-38149336D01*
X54208901Y-38203995D01*
X54267288Y-38298656D01*
X54391344Y-38422712D01*
X54540666Y-38514814D01*
X54707203Y-38569999D01*
X54809991Y-38580500D01*
X56410008Y-38580499D01*
X56512797Y-38569999D01*
X56679334Y-38514814D01*
X56828656Y-38422712D01*
X56952712Y-38298656D01*
X57044814Y-38149334D01*
X57099999Y-37982797D01*
X57110500Y-37880009D01*
X57110500Y-37614500D01*
X57130185Y-37547461D01*
X57182989Y-37501706D01*
X57234500Y-37490500D01*
X57608542Y-37490500D01*
X57628238Y-37486581D01*
X57646834Y-37482882D01*
X57671026Y-37480500D01*
X58984991Y-37480500D01*
X59411459Y-37480500D01*
X60423960Y-37480500D01*
X60462459Y-37480500D01*
X60529498Y-37500185D01*
X60575253Y-37552989D01*
X60585816Y-37617103D01*
X60585813Y-37617142D01*
X60584500Y-37629991D01*
X60584500Y-37855216D01*
X60564815Y-37922255D01*
X60548180Y-37942897D01*
X59255479Y-39235601D01*
X58847899Y-39643181D01*
X58786576Y-39676666D01*
X58760218Y-39679500D01*
X53746500Y-39679500D01*
X53679461Y-39659815D01*
X53633706Y-39607011D01*
X53622500Y-39555500D01*
X53622500Y-24972000D01*
X53642185Y-24904961D01*
X53694989Y-24859206D01*
X53746500Y-24848000D01*
X54057368Y-24848000D01*
X54124407Y-24867685D01*
X54170162Y-24920489D01*
X54180106Y-24989647D01*
X54175074Y-25011004D01*
X54120001Y-25177203D01*
X54120000Y-25177204D01*
X54109500Y-25279983D01*
X54109500Y-29380001D01*
X54109501Y-29380018D01*
X54120000Y-29482796D01*
X54120001Y-29482799D01*
X54167269Y-29625443D01*
X54175186Y-29649334D01*
X54267288Y-29798656D01*
X54391344Y-29922712D01*
X54540666Y-30014814D01*
X54540667Y-30014814D01*
X54546813Y-30018605D01*
X54545706Y-30020399D01*
X54590337Y-30059687D01*
X54609500Y-30125908D01*
X54609500Y-30528541D01*
X54614765Y-30555007D01*
X54614765Y-30555010D01*
X54645557Y-30709815D01*
X54647949Y-30721836D01*
X54656958Y-30743586D01*
X54723364Y-30903907D01*
X54723371Y-30903920D01*
X54832860Y-31067781D01*
X54832863Y-31067785D01*
X54976537Y-31211459D01*
X54976559Y-31211479D01*
X55617235Y-31852155D01*
X55617264Y-31852186D01*
X55759714Y-31994636D01*
X55759718Y-31994639D01*
X55923579Y-32104128D01*
X55923592Y-32104135D01*
X56052333Y-32157461D01*
X56086237Y-32171504D01*
X56105664Y-32179551D01*
X56202312Y-32198775D01*
X56226181Y-32203523D01*
X56298958Y-32218000D01*
X56298959Y-32218000D01*
X56298960Y-32218000D01*
X56496040Y-32218000D01*
X58303276Y-32218000D01*
X58370315Y-32237685D01*
X58416070Y-32290489D01*
X58426014Y-32359647D01*
X58408815Y-32407097D01*
X58375643Y-32460875D01*
X58375641Y-32460880D01*
X58320494Y-32627302D01*
X58320493Y-32627309D01*
X58310000Y-32730013D01*
X58310000Y-32792500D01*
X60155000Y-32792500D01*
X60181181Y-32766319D01*
X60242504Y-32732834D01*
X60268862Y-32730000D01*
X61386000Y-32730000D01*
X61453039Y-32749685D01*
X61498794Y-32802489D01*
X61510000Y-32854000D01*
X61510000Y-32980000D01*
X61636000Y-32980000D01*
X61703039Y-32999685D01*
X61748794Y-33052489D01*
X61760000Y-33104000D01*
X61760000Y-33979999D01*
X62034972Y-33979999D01*
X62034986Y-33979998D01*
X62109450Y-33972391D01*
X62178143Y-33985160D01*
X62229027Y-34033041D01*
X62245948Y-34100831D01*
X62241129Y-34130343D01*
X62212899Y-34227511D01*
X62212704Y-34229998D01*
X62212705Y-34230000D01*
X64682295Y-34230000D01*
X64682295Y-34229998D01*
X64682100Y-34227513D01*
X64636281Y-34069801D01*
X64552685Y-33928447D01*
X64552678Y-33928438D01*
X64537985Y-33913745D01*
X64504500Y-33852422D01*
X64509484Y-33782730D01*
X64537985Y-33738383D01*
X64554703Y-33721665D01*
X64577712Y-33698656D01*
X64669814Y-33549334D01*
X64724999Y-33382797D01*
X64735500Y-33280009D01*
X64735499Y-32679992D01*
X64734153Y-32666819D01*
X64724999Y-32577203D01*
X64724998Y-32577200D01*
X64686453Y-32460880D01*
X64669814Y-32410666D01*
X64577712Y-32261344D01*
X64546819Y-32230451D01*
X64532115Y-32203523D01*
X64515523Y-32177705D01*
X64514631Y-32171504D01*
X64513334Y-32169128D01*
X64510500Y-32142770D01*
X64510500Y-32069434D01*
X64530185Y-32002395D01*
X64582989Y-31956640D01*
X64652147Y-31946696D01*
X64699597Y-31963896D01*
X64740869Y-31989353D01*
X64740880Y-31989358D01*
X64907302Y-32044505D01*
X64907309Y-32044506D01*
X65010019Y-32054999D01*
X65259999Y-32054999D01*
X65260000Y-32054998D01*
X65260000Y-31166500D01*
X65279685Y-31099461D01*
X65332489Y-31053706D01*
X65384000Y-31042500D01*
X65510000Y-31042500D01*
X65510000Y-30916500D01*
X65529685Y-30849461D01*
X65582489Y-30803706D01*
X65634000Y-30792500D01*
X66709999Y-30792500D01*
X66709999Y-30759656D01*
X66729684Y-30692617D01*
X66782488Y-30646862D01*
X66851646Y-30636918D01*
X66872998Y-30641948D01*
X66882203Y-30644999D01*
X66984991Y-30655500D01*
X69235008Y-30655499D01*
X69337797Y-30644999D01*
X69397509Y-30625211D01*
X69467338Y-30622809D01*
X69527380Y-30658540D01*
X69547603Y-30687822D01*
X69592969Y-30779295D01*
X69712277Y-30927721D01*
X69712278Y-30927722D01*
X69781486Y-30983353D01*
X69791887Y-30998295D01*
X69806008Y-31009791D01*
X69811435Y-31026375D01*
X69821405Y-31040696D01*
X69822077Y-31058889D01*
X69827741Y-31076195D01*
X69823340Y-31093081D01*
X69823985Y-31110518D01*
X69814714Y-31126186D01*
X69810123Y-31143807D01*
X69791975Y-31164617D01*
X69788406Y-31170651D01*
X69787839Y-31171177D01*
X69784756Y-31174018D01*
X69712278Y-31232278D01*
X69685764Y-31265261D01*
X69678952Y-31271541D01*
X69655595Y-31283086D01*
X69634213Y-31297971D01*
X69624780Y-31298319D01*
X69616317Y-31302503D01*
X69590424Y-31299587D01*
X69564391Y-31300549D01*
X69551875Y-31295247D01*
X69546886Y-31294686D01*
X69542912Y-31291451D01*
X69529817Y-31285904D01*
X69526143Y-31283638D01*
X69504334Y-31270186D01*
X69337797Y-31215001D01*
X69337795Y-31215000D01*
X69235010Y-31204500D01*
X66984998Y-31204500D01*
X66984981Y-31204501D01*
X66882203Y-31215000D01*
X66882200Y-31215001D01*
X66715668Y-31270185D01*
X66715659Y-31270189D01*
X66709419Y-31274039D01*
X66644323Y-31292500D01*
X65760000Y-31292500D01*
X65760000Y-32054999D01*
X66009972Y-32054999D01*
X66009986Y-32054998D01*
X66112698Y-32044505D01*
X66121494Y-32041591D01*
X66191323Y-32039188D01*
X66251365Y-32074919D01*
X66282558Y-32137438D01*
X66284500Y-32159296D01*
X66284500Y-32755001D01*
X66284501Y-32755019D01*
X66295000Y-32857796D01*
X66295001Y-32857799D01*
X66350185Y-33024331D01*
X66350187Y-33024336D01*
X66367552Y-33052489D01*
X66442288Y-33173656D01*
X66566344Y-33297712D01*
X66715666Y-33389814D01*
X66882203Y-33444999D01*
X66984991Y-33455500D01*
X67235501Y-33455499D01*
X67302539Y-33475183D01*
X67348294Y-33527987D01*
X67359500Y-33579499D01*
X67359500Y-34953918D01*
X67359500Y-34953920D01*
X67359499Y-34953920D01*
X67388340Y-35098907D01*
X67388343Y-35098917D01*
X67447247Y-35241124D01*
X67446383Y-35241481D01*
X67459500Y-35293840D01*
X67459500Y-35530000D01*
X67459501Y-35530019D01*
X67470000Y-35632796D01*
X67470001Y-35632799D01*
X67514475Y-35767011D01*
X67525186Y-35799334D01*
X67602984Y-35925466D01*
X67617289Y-35948657D01*
X67673181Y-36004549D01*
X67706666Y-36065872D01*
X67709500Y-36092230D01*
X67709500Y-36941418D01*
X67710159Y-36944735D01*
X67711898Y-36981508D01*
X67709500Y-37004987D01*
X67709500Y-37630001D01*
X67709501Y-37630019D01*
X67720000Y-37732796D01*
X67720001Y-37732799D01*
X67755690Y-37840499D01*
X67775186Y-37899334D01*
X67826665Y-37982796D01*
X67867289Y-38048657D01*
X67961304Y-38142672D01*
X67994789Y-38203995D01*
X67989805Y-38273687D01*
X67961305Y-38318034D01*
X67867682Y-38411657D01*
X67775643Y-38560875D01*
X67775641Y-38560880D01*
X67720494Y-38727302D01*
X67720493Y-38727309D01*
X67710000Y-38830013D01*
X67710000Y-38892500D01*
X69874802Y-38892500D01*
X69892504Y-38882834D01*
X69918862Y-38880000D01*
X72434999Y-38880000D01*
X72434999Y-38830028D01*
X72434998Y-38830013D01*
X72424505Y-38727302D01*
X72369358Y-38560880D01*
X72369356Y-38560875D01*
X72277315Y-38411654D01*
X72153344Y-38287683D01*
X72153341Y-38287681D01*
X72150339Y-38285829D01*
X72148713Y-38284021D01*
X72147677Y-38283202D01*
X72147817Y-38283024D01*
X72103617Y-38233880D01*
X72092397Y-38164917D01*
X72120243Y-38100836D01*
X72150344Y-38074754D01*
X72153656Y-38072712D01*
X72277712Y-37948656D01*
X72352809Y-37826902D01*
X72404757Y-37780179D01*
X72458348Y-37768000D01*
X74555271Y-37768000D01*
X74594274Y-37774293D01*
X74732203Y-37819999D01*
X74834991Y-37830500D01*
X76185008Y-37830499D01*
X76287797Y-37819999D01*
X76454334Y-37764814D01*
X76603656Y-37672712D01*
X76727712Y-37548656D01*
X76819814Y-37399334D01*
X76874999Y-37232797D01*
X76885500Y-37130009D01*
X76885499Y-36404992D01*
X76881912Y-36369881D01*
X76874999Y-36302203D01*
X76874998Y-36302200D01*
X76863928Y-36268794D01*
X76819814Y-36135666D01*
X76727712Y-35986344D01*
X76603656Y-35862288D01*
X76481555Y-35786976D01*
X76454336Y-35770187D01*
X76454331Y-35770185D01*
X76452862Y-35769698D01*
X76287797Y-35715001D01*
X76287795Y-35715000D01*
X76185010Y-35704500D01*
X74834998Y-35704500D01*
X74834981Y-35704501D01*
X74732203Y-35715000D01*
X74732200Y-35715001D01*
X74594275Y-35760706D01*
X74555271Y-35767000D01*
X72262231Y-35767000D01*
X72195192Y-35747315D01*
X72149437Y-35694511D01*
X72139493Y-35625353D01*
X72168518Y-35561797D01*
X72184544Y-35546353D01*
X72204864Y-35530019D01*
X72207722Y-35527722D01*
X72327030Y-35379296D01*
X72411641Y-35208693D01*
X72457600Y-35023889D01*
X72460500Y-34981123D01*
X72460499Y-34078878D01*
X72457600Y-34036111D01*
X72419877Y-33884424D01*
X72422801Y-33814618D01*
X72463001Y-33757472D01*
X72527716Y-33731131D01*
X72540212Y-33730500D01*
X75654610Y-33730500D01*
X75721649Y-33750185D01*
X75767404Y-33802989D01*
X75773823Y-33820382D01*
X75783418Y-33853912D01*
X75826089Y-34003045D01*
X75826090Y-34003048D01*
X75826091Y-34003049D01*
X75920302Y-34183407D01*
X75920304Y-34183409D01*
X76048890Y-34341109D01*
X76105525Y-34387288D01*
X76206593Y-34469698D01*
X76386951Y-34563909D01*
X76582582Y-34619886D01*
X76701963Y-34630500D01*
X77818036Y-34630499D01*
X77937418Y-34619886D01*
X78133049Y-34563909D01*
X78313407Y-34469698D01*
X78341955Y-34446420D01*
X78406349Y-34419311D01*
X78475179Y-34431320D01*
X78526590Y-34478634D01*
X78544259Y-34546233D01*
X78543673Y-34555124D01*
X78535000Y-34640011D01*
X78535000Y-34690000D01*
X79510000Y-34690000D01*
X80010000Y-34690000D01*
X80984999Y-34690000D01*
X80984999Y-34640028D01*
X80984998Y-34640013D01*
X80974505Y-34537302D01*
X80919358Y-34370880D01*
X80919356Y-34370875D01*
X80827315Y-34221654D01*
X80703345Y-34097684D01*
X80554124Y-34005643D01*
X80554119Y-34005641D01*
X80387697Y-33950494D01*
X80387690Y-33950493D01*
X80284986Y-33940000D01*
X80010000Y-33940000D01*
X80010000Y-34690000D01*
X79510000Y-34690000D01*
X79510000Y-33940000D01*
X79235029Y-33940000D01*
X79235012Y-33940001D01*
X79132302Y-33950494D01*
X78965880Y-34005641D01*
X78965871Y-34005645D01*
X78907056Y-34041923D01*
X78839664Y-34060363D01*
X78773000Y-34039440D01*
X78728231Y-33985798D01*
X78719570Y-33916467D01*
X78722740Y-33902286D01*
X78749886Y-33807418D01*
X78760500Y-33688037D01*
X78760499Y-32685115D01*
X78780183Y-32618077D01*
X78832987Y-32572322D01*
X78902146Y-32562378D01*
X78923493Y-32567407D01*
X79082203Y-32619999D01*
X79184991Y-32630500D01*
X79601456Y-32630499D01*
X79601470Y-32630500D01*
X79611459Y-32630500D01*
X79969218Y-32630500D01*
X80036257Y-32650185D01*
X80056899Y-32666819D01*
X81973181Y-34583101D01*
X82006666Y-34644424D01*
X82009500Y-34670782D01*
X82009500Y-35354237D01*
X81989815Y-35421276D01*
X81985818Y-35427122D01*
X81897715Y-35548386D01*
X81804781Y-35730776D01*
X81800666Y-35743441D01*
X81797294Y-35753820D01*
X81757857Y-35811494D01*
X81693498Y-35838692D01*
X81679364Y-35839500D01*
X80937754Y-35839500D01*
X80870715Y-35819815D01*
X80824960Y-35767011D01*
X80815016Y-35697853D01*
X80832215Y-35650403D01*
X80919356Y-35509124D01*
X80919358Y-35509119D01*
X80974505Y-35342697D01*
X80974506Y-35342690D01*
X80984999Y-35239986D01*
X80985000Y-35239973D01*
X80985000Y-35190000D01*
X78535001Y-35190000D01*
X78535001Y-35239986D01*
X78545494Y-35342697D01*
X78600641Y-35509119D01*
X78600643Y-35509124D01*
X78692684Y-35658345D01*
X78816655Y-35782316D01*
X78816659Y-35782319D01*
X78819656Y-35784168D01*
X78821279Y-35785972D01*
X78822323Y-35786798D01*
X78822181Y-35786976D01*
X78866381Y-35836116D01*
X78877602Y-35905079D01*
X78849759Y-35969161D01*
X78819661Y-35995241D01*
X78816349Y-35997283D01*
X78816343Y-35997288D01*
X78692289Y-36121342D01*
X78600187Y-36270663D01*
X78600185Y-36270668D01*
X78579745Y-36332352D01*
X78545001Y-36437203D01*
X78545001Y-36437204D01*
X78545000Y-36437204D01*
X78534500Y-36539983D01*
X78534500Y-37140001D01*
X78534501Y-37140019D01*
X78545000Y-37242796D01*
X78545001Y-37242799D01*
X78600185Y-37409331D01*
X78600187Y-37409336D01*
X78635069Y-37465888D01*
X78692288Y-37558656D01*
X78816344Y-37682712D01*
X78965666Y-37774814D01*
X79132203Y-37829999D01*
X79234991Y-37840500D01*
X79651456Y-37840499D01*
X79651470Y-37840500D01*
X79661459Y-37840500D01*
X82498543Y-37840500D01*
X82566897Y-37826903D01*
X82601605Y-37819999D01*
X82691836Y-37802051D01*
X82757591Y-37774814D01*
X82873914Y-37726632D01*
X83037782Y-37617139D01*
X83098204Y-37556715D01*
X83159525Y-37523232D01*
X83166482Y-37521925D01*
X83314534Y-37498477D01*
X83509219Y-37435220D01*
X83691610Y-37342287D01*
X83784590Y-37274732D01*
X83857213Y-37221971D01*
X83857215Y-37221968D01*
X83857219Y-37221966D01*
X84001966Y-37077219D01*
X84001968Y-37077215D01*
X84001971Y-37077213D01*
X84061566Y-36995186D01*
X84122287Y-36911610D01*
X84215220Y-36729219D01*
X84278477Y-36534534D01*
X84310500Y-36332352D01*
X84310500Y-36127648D01*
X84301799Y-36072710D01*
X84278477Y-35925465D01*
X84233421Y-35786798D01*
X84215220Y-35730781D01*
X84215218Y-35730778D01*
X84215218Y-35730776D01*
X84172547Y-35647030D01*
X84122287Y-35548390D01*
X84080181Y-35490435D01*
X84034182Y-35427122D01*
X84010702Y-35361316D01*
X84010500Y-35354237D01*
X84010500Y-34106456D01*
X83972052Y-33913170D01*
X83972051Y-33913169D01*
X83972051Y-33913165D01*
X83960147Y-33884426D01*
X83896635Y-33731092D01*
X83896628Y-33731079D01*
X83787139Y-33567218D01*
X83787136Y-33567214D01*
X83644686Y-33424764D01*
X83644655Y-33424735D01*
X82774906Y-32554986D01*
X88560001Y-32554986D01*
X88570494Y-32657697D01*
X88625641Y-32824119D01*
X88625643Y-32824124D01*
X88717684Y-32973345D01*
X88722507Y-32978168D01*
X88755992Y-33039491D01*
X88751008Y-33109183D01*
X88740365Y-33130946D01*
X88675643Y-33235875D01*
X88675641Y-33235880D01*
X88620494Y-33402302D01*
X88620493Y-33402309D01*
X88610000Y-33505013D01*
X88610000Y-33780000D01*
X89360000Y-33780000D01*
X89360000Y-33385000D01*
X89346319Y-33371319D01*
X89312834Y-33309996D01*
X89310000Y-33283638D01*
X89310000Y-32280000D01*
X88560001Y-32280000D01*
X88560001Y-32554986D01*
X82774906Y-32554986D01*
X81724933Y-31505013D01*
X88560000Y-31505013D01*
X88560000Y-31780000D01*
X89310000Y-31780000D01*
X89310000Y-30776362D01*
X89329685Y-30709323D01*
X89346319Y-30688681D01*
X89360000Y-30675000D01*
X89360000Y-30280000D01*
X88610001Y-30280000D01*
X88610001Y-30554986D01*
X88620494Y-30657697D01*
X88675641Y-30824119D01*
X88675646Y-30824130D01*
X88740364Y-30929053D01*
X88758805Y-30996445D01*
X88737883Y-31063109D01*
X88722512Y-31081827D01*
X88717683Y-31086655D01*
X88625643Y-31235875D01*
X88625641Y-31235880D01*
X88570494Y-31402302D01*
X88570493Y-31402309D01*
X88560000Y-31505013D01*
X81724933Y-31505013D01*
X81216479Y-30996559D01*
X81216459Y-30996537D01*
X81072785Y-30852863D01*
X81072781Y-30852860D01*
X80908920Y-30743371D01*
X80908910Y-30743366D01*
X80779199Y-30689638D01*
X80724796Y-30645797D01*
X80702731Y-30579503D01*
X80720010Y-30511803D01*
X80738968Y-30487399D01*
X80777712Y-30448656D01*
X80869814Y-30299334D01*
X80924999Y-30132797D01*
X80935500Y-30030009D01*
X80935499Y-29429992D01*
X80934805Y-29423201D01*
X80924999Y-29327203D01*
X80924998Y-29327200D01*
X80908431Y-29277204D01*
X80869814Y-29160666D01*
X80777712Y-29011344D01*
X80665813Y-28899445D01*
X80632328Y-28838122D01*
X80637312Y-28768430D01*
X80679184Y-28712497D01*
X80714491Y-28694058D01*
X80804117Y-28664359D01*
X80804124Y-28664356D01*
X80953345Y-28572315D01*
X80970674Y-28554986D01*
X88560001Y-28554986D01*
X88570494Y-28657697D01*
X88625641Y-28824119D01*
X88625643Y-28824124D01*
X88717684Y-28973345D01*
X88722507Y-28978168D01*
X88755992Y-29039491D01*
X88751008Y-29109183D01*
X88740365Y-29130946D01*
X88675643Y-29235875D01*
X88675641Y-29235880D01*
X88620494Y-29402302D01*
X88620493Y-29402309D01*
X88610000Y-29505013D01*
X88610000Y-29780000D01*
X89360000Y-29780000D01*
X89360000Y-29385000D01*
X89346319Y-29371319D01*
X89312834Y-29309996D01*
X89310000Y-29283638D01*
X89310000Y-28280000D01*
X88560001Y-28280000D01*
X88560001Y-28554986D01*
X80970674Y-28554986D01*
X81077315Y-28448345D01*
X81169356Y-28299124D01*
X81169358Y-28299119D01*
X81205638Y-28189634D01*
X81224505Y-28132697D01*
X81224506Y-28132690D01*
X81234999Y-28029986D01*
X81235000Y-28029973D01*
X81235000Y-27980000D01*
X80134000Y-27980000D01*
X80066961Y-27960315D01*
X80021206Y-27907511D01*
X80010000Y-27856000D01*
X80010000Y-27604000D01*
X80029685Y-27536961D01*
X80082489Y-27491206D01*
X80134000Y-27480000D01*
X81234999Y-27480000D01*
X81234999Y-27430028D01*
X81234998Y-27430013D01*
X81224505Y-27327302D01*
X81169358Y-27160880D01*
X81169356Y-27160875D01*
X81077315Y-27011654D01*
X81057842Y-26992181D01*
X81024357Y-26930858D01*
X81029341Y-26861166D01*
X81071213Y-26805233D01*
X81136677Y-26780816D01*
X81145523Y-26780500D01*
X81855521Y-26780500D01*
X81922560Y-26800185D01*
X81955839Y-26831615D01*
X82018030Y-26917215D01*
X82162786Y-27061971D01*
X82300858Y-27162284D01*
X82328390Y-27182287D01*
X82420499Y-27229219D01*
X82510776Y-27275218D01*
X82510778Y-27275218D01*
X82510781Y-27275220D01*
X82615137Y-27309127D01*
X82705465Y-27338477D01*
X82781375Y-27350500D01*
X82907648Y-27370500D01*
X82907649Y-27370500D01*
X83112351Y-27370500D01*
X83112352Y-27370500D01*
X83314534Y-27338477D01*
X83509219Y-27275220D01*
X83691610Y-27182287D01*
X83790193Y-27110663D01*
X83857213Y-27061971D01*
X83857215Y-27061968D01*
X83857219Y-27061966D01*
X84001966Y-26917219D01*
X84033972Y-26873166D01*
X84064161Y-26831615D01*
X84119491Y-26788949D01*
X84164479Y-26780500D01*
X85770052Y-26780500D01*
X85837091Y-26800185D01*
X85870371Y-26831616D01*
X85918030Y-26897215D01*
X86062786Y-27041971D01*
X86217749Y-27154556D01*
X86228390Y-27162287D01*
X86338820Y-27218554D01*
X86410776Y-27255218D01*
X86410778Y-27255218D01*
X86410781Y-27255220D01*
X86478438Y-27277203D01*
X86605465Y-27318477D01*
X86661184Y-27327302D01*
X86807648Y-27350500D01*
X86807649Y-27350500D01*
X87012351Y-27350500D01*
X87012352Y-27350500D01*
X87214534Y-27318477D01*
X87409219Y-27255220D01*
X87591610Y-27162287D01*
X87684590Y-27094732D01*
X87757213Y-27041971D01*
X87757215Y-27041968D01*
X87757219Y-27041966D01*
X87901966Y-26897219D01*
X87949629Y-26831615D01*
X88004959Y-26788949D01*
X88049948Y-26780500D01*
X88528942Y-26780500D01*
X88538732Y-26783374D01*
X88548859Y-26782110D01*
X88571691Y-26793052D01*
X88595981Y-26800185D01*
X88604339Y-26808700D01*
X88611866Y-26812307D01*
X88634481Y-26839404D01*
X88712183Y-26965380D01*
X88730623Y-27032772D01*
X88712183Y-27095573D01*
X88625643Y-27235875D01*
X88625641Y-27235880D01*
X88570494Y-27402302D01*
X88570493Y-27402309D01*
X88560000Y-27505013D01*
X88560000Y-27780000D01*
X89436000Y-27780000D01*
X89503039Y-27799685D01*
X89548794Y-27852489D01*
X89560000Y-27904000D01*
X89560000Y-28030000D01*
X89686000Y-28030000D01*
X89753039Y-28049685D01*
X89798794Y-28102489D01*
X89810000Y-28154000D01*
X89810000Y-28675000D01*
X89823681Y-28688681D01*
X89857166Y-28750004D01*
X89860000Y-28776362D01*
X89860000Y-31283638D01*
X89840315Y-31350677D01*
X89823681Y-31371319D01*
X89810000Y-31385000D01*
X89810000Y-32675000D01*
X89823681Y-32688681D01*
X89857166Y-32750004D01*
X89860000Y-32776362D01*
X89860000Y-35283638D01*
X89840315Y-35350677D01*
X89823681Y-35371319D01*
X89810000Y-35385000D01*
X89810000Y-35906000D01*
X89790315Y-35973039D01*
X89737511Y-36018794D01*
X89686000Y-36030000D01*
X89560000Y-36030000D01*
X89560000Y-36156000D01*
X89540315Y-36223039D01*
X89487511Y-36268794D01*
X89436000Y-36280000D01*
X88560001Y-36280000D01*
X88560001Y-36499271D01*
X88553762Y-36520516D01*
X88552183Y-36542604D01*
X88544110Y-36553387D01*
X88540316Y-36566310D01*
X88523584Y-36580808D01*
X88510312Y-36598538D01*
X88497689Y-36603245D01*
X88487512Y-36612065D01*
X88465596Y-36615216D01*
X88444848Y-36622955D01*
X88431686Y-36620091D01*
X88418354Y-36622009D01*
X88398209Y-36612809D01*
X88376575Y-36608103D01*
X88358847Y-36594833D01*
X88354798Y-36592984D01*
X88348320Y-36586953D01*
X88295901Y-36534534D01*
X88236471Y-36475104D01*
X88202988Y-36413784D01*
X88201681Y-36368028D01*
X88210500Y-36312352D01*
X88210500Y-36107648D01*
X88194581Y-36007139D01*
X88178477Y-35905465D01*
X88147944Y-35811494D01*
X88115220Y-35710781D01*
X88115218Y-35710778D01*
X88115218Y-35710776D01*
X88037455Y-35558159D01*
X88032897Y-35549213D01*
X88022287Y-35528390D01*
X88005303Y-35505013D01*
X88560000Y-35505013D01*
X88560000Y-35780000D01*
X89310000Y-35780000D01*
X89310000Y-34776362D01*
X89329685Y-34709323D01*
X89346319Y-34688681D01*
X89360000Y-34675000D01*
X89360000Y-34280000D01*
X88610001Y-34280000D01*
X88610001Y-34554986D01*
X88620494Y-34657697D01*
X88675641Y-34824119D01*
X88675646Y-34824130D01*
X88740364Y-34929053D01*
X88758805Y-34996445D01*
X88737883Y-35063109D01*
X88722512Y-35081827D01*
X88717683Y-35086655D01*
X88625643Y-35235875D01*
X88625641Y-35235880D01*
X88570494Y-35402302D01*
X88570493Y-35402309D01*
X88560000Y-35505013D01*
X88005303Y-35505013D01*
X87999115Y-35496496D01*
X87901971Y-35362786D01*
X87757213Y-35218028D01*
X87591613Y-35097715D01*
X87591612Y-35097714D01*
X87591610Y-35097713D01*
X87523696Y-35063109D01*
X87409223Y-35004781D01*
X87214534Y-34941522D01*
X87039995Y-34913878D01*
X87012352Y-34909500D01*
X86807648Y-34909500D01*
X86783329Y-34913351D01*
X86605465Y-34941522D01*
X86410776Y-35004781D01*
X86228386Y-35097715D01*
X86062786Y-35218028D01*
X85918028Y-35362786D01*
X85797715Y-35528386D01*
X85704781Y-35710776D01*
X85641522Y-35905465D01*
X85609500Y-36107648D01*
X85609500Y-36312351D01*
X85641522Y-36514534D01*
X85704781Y-36709223D01*
X85797715Y-36891613D01*
X85918028Y-37057213D01*
X86062786Y-37201971D01*
X86158272Y-37271344D01*
X86228390Y-37322287D01*
X86344607Y-37381503D01*
X86410776Y-37415218D01*
X86410778Y-37415218D01*
X86410781Y-37415220D01*
X86472329Y-37435218D01*
X86605465Y-37478477D01*
X86681375Y-37490500D01*
X86807648Y-37510500D01*
X86807649Y-37510500D01*
X87012348Y-37510500D01*
X87012352Y-37510500D01*
X87012355Y-37510499D01*
X87016245Y-37510193D01*
X87084623Y-37524552D01*
X87134384Y-37573600D01*
X87147600Y-37609617D01*
X87169340Y-37718908D01*
X87169343Y-37718917D01*
X87225912Y-37855488D01*
X87225919Y-37855501D01*
X87308048Y-37978415D01*
X87308051Y-37978419D01*
X87412580Y-38082948D01*
X87412584Y-38082951D01*
X87535498Y-38165080D01*
X87535511Y-38165087D01*
X87668082Y-38219999D01*
X87672087Y-38221658D01*
X87672091Y-38221658D01*
X87672092Y-38221659D01*
X87817079Y-38250500D01*
X90408000Y-38250500D01*
X90475039Y-38270185D01*
X90520794Y-38322989D01*
X90532000Y-38374500D01*
X90532000Y-39910000D01*
X90532001Y-39910019D01*
X90542500Y-40012796D01*
X90542501Y-40012799D01*
X90581338Y-40129999D01*
X90597686Y-40179334D01*
X90689788Y-40328656D01*
X90813844Y-40452712D01*
X90963166Y-40544814D01*
X91129703Y-40599999D01*
X91232491Y-40610500D01*
X91433957Y-40610499D01*
X91433959Y-40610500D01*
X91631041Y-40610500D01*
X91631044Y-40610499D01*
X91832508Y-40610499D01*
X91935297Y-40599999D01*
X92101834Y-40544814D01*
X92251156Y-40452712D01*
X92375212Y-40328656D01*
X92389961Y-40304744D01*
X92441909Y-40258019D01*
X92510871Y-40246796D01*
X92574954Y-40274640D01*
X92613810Y-40332708D01*
X92619500Y-40369840D01*
X92619500Y-42244138D01*
X92610000Y-42276491D01*
X92610000Y-43406000D01*
X92590315Y-43473039D01*
X92537511Y-43518794D01*
X92486000Y-43530000D01*
X92234000Y-43530000D01*
X92166961Y-43510315D01*
X92121206Y-43457511D01*
X92110000Y-43406000D01*
X92110000Y-42305000D01*
X92109999Y-42304999D01*
X92060029Y-42305000D01*
X92060011Y-42305001D01*
X91957302Y-42315494D01*
X91790880Y-42370641D01*
X91790875Y-42370643D01*
X91641654Y-42462684D01*
X91517683Y-42586655D01*
X91517679Y-42586660D01*
X91515826Y-42589665D01*
X91514018Y-42591290D01*
X91513202Y-42592323D01*
X91513025Y-42592183D01*
X91463874Y-42636385D01*
X91394911Y-42647601D01*
X91330831Y-42619752D01*
X91304753Y-42589653D01*
X91304737Y-42589628D01*
X91302712Y-42586344D01*
X91178656Y-42462288D01*
X91034313Y-42373257D01*
X91029336Y-42370187D01*
X91029331Y-42370185D01*
X91027862Y-42369698D01*
X90862797Y-42315001D01*
X90862795Y-42315000D01*
X90760010Y-42304500D01*
X90159998Y-42304500D01*
X90159980Y-42304501D01*
X90057203Y-42315000D01*
X90057200Y-42315001D01*
X89890668Y-42370185D01*
X89890659Y-42370189D01*
X89795106Y-42429127D01*
X89727714Y-42447567D01*
X89666890Y-42430320D01*
X89570400Y-42373257D01*
X89570393Y-42373254D01*
X89412573Y-42327402D01*
X89412567Y-42327401D01*
X89375701Y-42324500D01*
X89375694Y-42324500D01*
X89117229Y-42324500D01*
X89050190Y-42304815D01*
X89029548Y-42288181D01*
X88046818Y-41305450D01*
X88013333Y-41244127D01*
X88010499Y-41217769D01*
X88010499Y-40804998D01*
X88010499Y-40804992D01*
X88008769Y-40788059D01*
X88006629Y-40767100D01*
X88019399Y-40698407D01*
X88067281Y-40647524D01*
X88129987Y-40630500D01*
X89111042Y-40630500D01*
X89199610Y-40612882D01*
X89223802Y-40610499D01*
X89332502Y-40610499D01*
X89332508Y-40610499D01*
X89435297Y-40599999D01*
X89601834Y-40544814D01*
X89751156Y-40452712D01*
X89875212Y-40328656D01*
X89967314Y-40179334D01*
X90022499Y-40012797D01*
X90033000Y-39910009D01*
X90032999Y-39309992D01*
X90030509Y-39285621D01*
X90022499Y-39207203D01*
X90022498Y-39207200D01*
X90011069Y-39172710D01*
X89967314Y-39040666D01*
X89875212Y-38891344D01*
X89751156Y-38767288D01*
X89634261Y-38695187D01*
X89601836Y-38675187D01*
X89601831Y-38675185D01*
X89600362Y-38674698D01*
X89435297Y-38620001D01*
X89435295Y-38620000D01*
X89332510Y-38609500D01*
X88732498Y-38609500D01*
X88732480Y-38609501D01*
X88629703Y-38620000D01*
X88629700Y-38620001D01*
X88620030Y-38623206D01*
X88581026Y-38629500D01*
X74834998Y-38629500D01*
X74834980Y-38629501D01*
X74732203Y-38640000D01*
X74732200Y-38640001D01*
X74565668Y-38695185D01*
X74565663Y-38695187D01*
X74416342Y-38787289D01*
X74292289Y-38911342D01*
X74200187Y-39060663D01*
X74200186Y-39060666D01*
X74145001Y-39227203D01*
X74145001Y-39227204D01*
X74145000Y-39227204D01*
X74134500Y-39329983D01*
X74134500Y-40055001D01*
X74134501Y-40055019D01*
X74145000Y-40157796D01*
X74145001Y-40157799D01*
X74200185Y-40324331D01*
X74200186Y-40324334D01*
X74279368Y-40452710D01*
X74292289Y-40473657D01*
X74416345Y-40597713D01*
X74450594Y-40618837D01*
X74497320Y-40670784D01*
X74509500Y-40724377D01*
X74509500Y-42315500D01*
X74489815Y-42382539D01*
X74437011Y-42428294D01*
X74385500Y-42439500D01*
X73435576Y-42439500D01*
X73384232Y-42441961D01*
X73376896Y-42442313D01*
X73205403Y-42472175D01*
X73119656Y-42487107D01*
X73119655Y-42487107D01*
X72872270Y-42570643D01*
X72640529Y-42690966D01*
X72429886Y-42845244D01*
X72429881Y-42845248D01*
X72245248Y-43029881D01*
X72245244Y-43029886D01*
X72090966Y-43240529D01*
X71970643Y-43472270D01*
X71887107Y-43719655D01*
X71887107Y-43719656D01*
X71887107Y-43719657D01*
X71842313Y-43976896D01*
X71841961Y-43984232D01*
X71839500Y-44035576D01*
X71839500Y-49844423D01*
X71841270Y-49881344D01*
X71842313Y-49903104D01*
X71863707Y-50025961D01*
X71887107Y-50160343D01*
X71887107Y-50160344D01*
X71899554Y-50197204D01*
X71970643Y-50407730D01*
X72026017Y-50514379D01*
X72090966Y-50639470D01*
X72245244Y-50850113D01*
X72245248Y-50850118D01*
X72429881Y-51034751D01*
X72429886Y-51034755D01*
X72640529Y-51189033D01*
X72640532Y-51189034D01*
X72640534Y-51189036D01*
X72872270Y-51309357D01*
X73119657Y-51392893D01*
X73376896Y-51437687D01*
X73435590Y-51440500D01*
X73435607Y-51440500D01*
X79244393Y-51440500D01*
X79244410Y-51440500D01*
X79303104Y-51437687D01*
X79560343Y-51392893D01*
X79807730Y-51309357D01*
X80039466Y-51189036D01*
X80250119Y-51034751D01*
X80434751Y-50850119D01*
X80589036Y-50639466D01*
X80709357Y-50407730D01*
X80792893Y-50160343D01*
X80837687Y-49903104D01*
X80840500Y-49844410D01*
X80840500Y-49219986D01*
X82685001Y-49219986D01*
X82695494Y-49322697D01*
X82750641Y-49489119D01*
X82750643Y-49489124D01*
X82842684Y-49638345D01*
X82966654Y-49762315D01*
X83115875Y-49854356D01*
X83115880Y-49854358D01*
X83282302Y-49909505D01*
X83282309Y-49909506D01*
X83385019Y-49919999D01*
X83447499Y-49919998D01*
X83447500Y-49919998D01*
X83447500Y-48970000D01*
X82685001Y-48970000D01*
X82685001Y-49219986D01*
X80840500Y-49219986D01*
X80840500Y-45915001D01*
X82062704Y-45915001D01*
X82062899Y-45917486D01*
X82108718Y-46075198D01*
X82192314Y-46216552D01*
X82197100Y-46222722D01*
X82194753Y-46224542D01*
X82221564Y-46273642D01*
X82216580Y-46343334D01*
X82195541Y-46376069D01*
X82197100Y-46377278D01*
X82192314Y-46383447D01*
X82108718Y-46524801D01*
X82062899Y-46682513D01*
X82062704Y-46684998D01*
X82062705Y-46685000D01*
X83185000Y-46685000D01*
X83685000Y-46685000D01*
X84807295Y-46685000D01*
X84807295Y-46684998D01*
X84807100Y-46682513D01*
X84761281Y-46524801D01*
X84677685Y-46383447D01*
X84672900Y-46377278D01*
X84675252Y-46375453D01*
X84648445Y-46326405D01*
X84653402Y-46256712D01*
X84674465Y-46223936D01*
X84672900Y-46222722D01*
X84677685Y-46216552D01*
X84761281Y-46075198D01*
X84807100Y-45917486D01*
X84807295Y-45915001D01*
X84807295Y-45915000D01*
X83685000Y-45915000D01*
X83685000Y-46685000D01*
X83185000Y-46685000D01*
X83185000Y-45915000D01*
X82062705Y-45915000D01*
X82062704Y-45915001D01*
X80840500Y-45915001D01*
X80840500Y-44035590D01*
X80837687Y-43976896D01*
X80792893Y-43719657D01*
X80709357Y-43472270D01*
X80589036Y-43240534D01*
X80589034Y-43240532D01*
X80589033Y-43240529D01*
X80434755Y-43029886D01*
X80434751Y-43029881D01*
X80250118Y-42845248D01*
X80250113Y-42845244D01*
X80039470Y-42690966D01*
X79991330Y-42665971D01*
X79807730Y-42570643D01*
X79560343Y-42487107D01*
X79303104Y-42442313D01*
X79292098Y-42441785D01*
X79244423Y-42439500D01*
X79244410Y-42439500D01*
X76634500Y-42439500D01*
X76567461Y-42419815D01*
X76521706Y-42367011D01*
X76510500Y-42315500D01*
X76510500Y-40754500D01*
X76530185Y-40687461D01*
X76582989Y-40641706D01*
X76634500Y-40630500D01*
X80731659Y-40630500D01*
X80798698Y-40650185D01*
X80844453Y-40702989D01*
X80854397Y-40772147D01*
X80837198Y-40819596D01*
X80750189Y-40960659D01*
X80750185Y-40960668D01*
X80722349Y-41044670D01*
X80695001Y-41127203D01*
X80695001Y-41127204D01*
X80695000Y-41127204D01*
X80684500Y-41229983D01*
X80684500Y-41830001D01*
X80684501Y-41830019D01*
X80695000Y-41932796D01*
X80695001Y-41932799D01*
X80725625Y-42025215D01*
X80750186Y-42099334D01*
X80842288Y-42248656D01*
X80966344Y-42372712D01*
X81100597Y-42455519D01*
X81147321Y-42507465D01*
X81159500Y-42561057D01*
X81159500Y-43818917D01*
X81159500Y-43818919D01*
X81159499Y-43818919D01*
X81188340Y-43963906D01*
X81188343Y-43963916D01*
X81228728Y-44061413D01*
X81244916Y-44100494D01*
X81263679Y-44128575D01*
X81272936Y-44142430D01*
X81327049Y-44223417D01*
X81327052Y-44223420D01*
X82081581Y-44977948D01*
X82081582Y-44977949D01*
X82081585Y-44977951D01*
X82120804Y-45004156D01*
X82165608Y-45057767D01*
X82174317Y-45127092D01*
X82158645Y-45170378D01*
X82108719Y-45254799D01*
X82062899Y-45412513D01*
X82062704Y-45414998D01*
X82062705Y-45415000D01*
X84807295Y-45415000D01*
X84807295Y-45414998D01*
X84807100Y-45412513D01*
X84761281Y-45254801D01*
X84677685Y-45113447D01*
X84672900Y-45107278D01*
X84675366Y-45105364D01*
X84648802Y-45056776D01*
X84653749Y-44987082D01*
X84674856Y-44954232D01*
X84673301Y-44953026D01*
X84678077Y-44946868D01*
X84678081Y-44946865D01*
X84680165Y-44943342D01*
X84681020Y-44941895D01*
X84761744Y-44805398D01*
X84807598Y-44647569D01*
X84810500Y-44610694D01*
X84810500Y-44179306D01*
X84807598Y-44142431D01*
X84761744Y-43984602D01*
X84678081Y-43843135D01*
X84678078Y-43843132D01*
X84673298Y-43836969D01*
X84675750Y-43835066D01*
X84649155Y-43786421D01*
X84654104Y-43716726D01*
X84674940Y-43684304D01*
X84673298Y-43683031D01*
X84678075Y-43676870D01*
X84678081Y-43676865D01*
X84761744Y-43535398D01*
X84807598Y-43377569D01*
X84810500Y-43340694D01*
X84810500Y-42909306D01*
X84807803Y-42875035D01*
X84822168Y-42806658D01*
X84843737Y-42777629D01*
X85029549Y-42591818D01*
X85090872Y-42558333D01*
X85117230Y-42555499D01*
X85410002Y-42555499D01*
X85410008Y-42555499D01*
X85512797Y-42544999D01*
X85679334Y-42489814D01*
X85828656Y-42397712D01*
X85952712Y-42273656D01*
X85954461Y-42270819D01*
X85956169Y-42269283D01*
X85957193Y-42267989D01*
X85957414Y-42268163D01*
X86006406Y-42224096D01*
X86075368Y-42212872D01*
X86139451Y-42240713D01*
X86165537Y-42270817D01*
X86167288Y-42273656D01*
X86291344Y-42397712D01*
X86440666Y-42489814D01*
X86607203Y-42544999D01*
X86709991Y-42555500D01*
X87122769Y-42555499D01*
X87152215Y-42564145D01*
X87182196Y-42570667D01*
X87187209Y-42574419D01*
X87189808Y-42575183D01*
X87210450Y-42591818D01*
X87223280Y-42604648D01*
X87256765Y-42665971D01*
X87254675Y-42726924D01*
X87212402Y-42872426D01*
X87212401Y-42872432D01*
X87209500Y-42909298D01*
X87209500Y-43340701D01*
X87212401Y-43377567D01*
X87212402Y-43377573D01*
X87258254Y-43535393D01*
X87258255Y-43535396D01*
X87341917Y-43676862D01*
X87346702Y-43683031D01*
X87344256Y-43684927D01*
X87370857Y-43733642D01*
X87365873Y-43803334D01*
X87345069Y-43835703D01*
X87346702Y-43836969D01*
X87341917Y-43843137D01*
X87258255Y-43984603D01*
X87258254Y-43984606D01*
X87212402Y-44142426D01*
X87212402Y-44142430D01*
X87209500Y-44179298D01*
X87209500Y-44610701D01*
X87212401Y-44647567D01*
X87212402Y-44647573D01*
X87258254Y-44805393D01*
X87258255Y-44805396D01*
X87341917Y-44946862D01*
X87346702Y-44953031D01*
X87344256Y-44954927D01*
X87370857Y-45003642D01*
X87365873Y-45073334D01*
X87345069Y-45105703D01*
X87346702Y-45106969D01*
X87341917Y-45113137D01*
X87258255Y-45254603D01*
X87258254Y-45254606D01*
X87212402Y-45412426D01*
X87212401Y-45412432D01*
X87209500Y-45449298D01*
X87209500Y-45880701D01*
X87212401Y-45917567D01*
X87212402Y-45917573D01*
X87258254Y-46075393D01*
X87258255Y-46075396D01*
X87341917Y-46216862D01*
X87346702Y-46223031D01*
X87344256Y-46224927D01*
X87370857Y-46273642D01*
X87365873Y-46343334D01*
X87345069Y-46375703D01*
X87346702Y-46376969D01*
X87341917Y-46383137D01*
X87258255Y-46524603D01*
X87258254Y-46524606D01*
X87212402Y-46682426D01*
X87212401Y-46682432D01*
X87209500Y-46719298D01*
X87209500Y-47150701D01*
X87212401Y-47187567D01*
X87212402Y-47187573D01*
X87258402Y-47345905D01*
X87258203Y-47415775D01*
X87220261Y-47474445D01*
X87156622Y-47503288D01*
X87139326Y-47504500D01*
X86759998Y-47504500D01*
X86759980Y-47504501D01*
X86657203Y-47515000D01*
X86657200Y-47515001D01*
X86490668Y-47570185D01*
X86490659Y-47570189D01*
X86350436Y-47656679D01*
X86283043Y-47675119D01*
X86220244Y-47656679D01*
X86104340Y-47585189D01*
X86104335Y-47585187D01*
X86104334Y-47585186D01*
X85937797Y-47530001D01*
X85937795Y-47530000D01*
X85835010Y-47519500D01*
X85209998Y-47519500D01*
X85209980Y-47519501D01*
X85107203Y-47530000D01*
X85107200Y-47530001D01*
X84940668Y-47585185D01*
X84940659Y-47585189D01*
X84862364Y-47633482D01*
X84794971Y-47651922D01*
X84728308Y-47630999D01*
X84683539Y-47577357D01*
X84674878Y-47508026D01*
X84690536Y-47464822D01*
X84761281Y-47345198D01*
X84807100Y-47187486D01*
X84807295Y-47185001D01*
X84807295Y-47185000D01*
X82062705Y-47185000D01*
X82062704Y-47185001D01*
X82062899Y-47187486D01*
X82108718Y-47345198D01*
X82192314Y-47486552D01*
X82192321Y-47486561D01*
X82308438Y-47602678D01*
X82308447Y-47602685D01*
X82449803Y-47686282D01*
X82449806Y-47686283D01*
X82607504Y-47732099D01*
X82607510Y-47732100D01*
X82644350Y-47734999D01*
X82644366Y-47735000D01*
X82661622Y-47735000D01*
X82728661Y-47754685D01*
X82774416Y-47807489D01*
X82784360Y-47876647D01*
X82767161Y-47924096D01*
X82750645Y-47950871D01*
X82750641Y-47950880D01*
X82695494Y-48117302D01*
X82695493Y-48117309D01*
X82685000Y-48220013D01*
X82685000Y-48470000D01*
X83573500Y-48470000D01*
X83640539Y-48489685D01*
X83686294Y-48542489D01*
X83697500Y-48594000D01*
X83697500Y-48720000D01*
X83823500Y-48720000D01*
X83890539Y-48739685D01*
X83936294Y-48792489D01*
X83947500Y-48844000D01*
X83947500Y-49919999D01*
X84009972Y-49919999D01*
X84009986Y-49919998D01*
X84112697Y-49909505D01*
X84279119Y-49854358D01*
X84279124Y-49854356D01*
X84428342Y-49762317D01*
X84521964Y-49668695D01*
X84583287Y-49635210D01*
X84652979Y-49640194D01*
X84697327Y-49668695D01*
X84791344Y-49762712D01*
X84940666Y-49854814D01*
X85107203Y-49909999D01*
X85209991Y-49920500D01*
X85835008Y-49920499D01*
X85835016Y-49920498D01*
X85835019Y-49920498D01*
X85891302Y-49914748D01*
X85937797Y-49909999D01*
X86104334Y-49854814D01*
X86204151Y-49793246D01*
X86271542Y-49774806D01*
X86334750Y-49794643D01*
X86335197Y-49793920D01*
X86338047Y-49795678D01*
X86338206Y-49795728D01*
X86338637Y-49796042D01*
X86341343Y-49797711D01*
X86341344Y-49797712D01*
X86490666Y-49889814D01*
X86657203Y-49944999D01*
X86759991Y-49955500D01*
X87360008Y-49955499D01*
X87360016Y-49955498D01*
X87360019Y-49955498D01*
X87416302Y-49949748D01*
X87462797Y-49944999D01*
X87629334Y-49889814D01*
X87778656Y-49797712D01*
X87902712Y-49673656D01*
X87904461Y-49670819D01*
X87906169Y-49669283D01*
X87907193Y-49667989D01*
X87907414Y-49668163D01*
X87956406Y-49624096D01*
X88025368Y-49612872D01*
X88089451Y-49640713D01*
X88115537Y-49670817D01*
X88117288Y-49673656D01*
X88241344Y-49797712D01*
X88390666Y-49889814D01*
X88557203Y-49944999D01*
X88659991Y-49955500D01*
X89260008Y-49955499D01*
X89260016Y-49955498D01*
X89260019Y-49955498D01*
X89316302Y-49949748D01*
X89362797Y-49944999D01*
X89404515Y-49931174D01*
X89474341Y-49928772D01*
X89534383Y-49964502D01*
X89565577Y-50027021D01*
X89561225Y-50087883D01*
X89525001Y-50197200D01*
X89525000Y-50197204D01*
X89514500Y-50299983D01*
X89514500Y-50900001D01*
X89514501Y-50900019D01*
X89525000Y-51002796D01*
X89525001Y-51002799D01*
X89580185Y-51169331D01*
X89580187Y-51169336D01*
X89592077Y-51188612D01*
X89672288Y-51318656D01*
X89796344Y-51442712D01*
X89945666Y-51534814D01*
X90112203Y-51589999D01*
X90214991Y-51600500D01*
X90631456Y-51600499D01*
X90631470Y-51600500D01*
X90641459Y-51600500D01*
X97428542Y-51600500D01*
X97443181Y-51597587D01*
X97525188Y-51581275D01*
X97621836Y-51562051D01*
X97687591Y-51534814D01*
X97803914Y-51486632D01*
X97967782Y-51377139D01*
X97983690Y-51361230D01*
X98045011Y-51327744D01*
X98114703Y-51332727D01*
X98127662Y-51338423D01*
X98164545Y-51357216D01*
X98215614Y-51383238D01*
X98215617Y-51383238D01*
X98215621Y-51383241D01*
X98455215Y-51461090D01*
X98704038Y-51500500D01*
X98704039Y-51500500D01*
X98955961Y-51500500D01*
X98955962Y-51500500D01*
X99204785Y-51461090D01*
X99444379Y-51383241D01*
X99668845Y-51268870D01*
X99872656Y-51120793D01*
X100050793Y-50942656D01*
X100198870Y-50738845D01*
X100313241Y-50514379D01*
X100391090Y-50274785D01*
X100430500Y-50025962D01*
X100430500Y-49774038D01*
X100391090Y-49525215D01*
X100391089Y-49525211D01*
X100391089Y-49525210D01*
X100336569Y-49357416D01*
X100330500Y-49319098D01*
X100330500Y-47980900D01*
X100336569Y-47942582D01*
X100338816Y-47935666D01*
X100391090Y-47774785D01*
X100430500Y-47525962D01*
X100430500Y-47274038D01*
X100391090Y-47025215D01*
X100391089Y-47025211D01*
X100391089Y-47025210D01*
X100336569Y-46857416D01*
X100330500Y-46819098D01*
X100330500Y-44774071D01*
X102230000Y-44774071D01*
X102230000Y-45025928D01*
X102269397Y-45274669D01*
X102347219Y-45514184D01*
X102461557Y-45738583D01*
X102535748Y-45840697D01*
X102535748Y-45840698D01*
X103347037Y-45029409D01*
X103364075Y-45092993D01*
X103429901Y-45207007D01*
X103522993Y-45300099D01*
X103637007Y-45365925D01*
X103700590Y-45382962D01*
X102889300Y-46194250D01*
X102991416Y-46268442D01*
X103215815Y-46382780D01*
X103455330Y-46460602D01*
X103704072Y-46500000D01*
X103955928Y-46500000D01*
X104204669Y-46460602D01*
X104444184Y-46382780D01*
X104668575Y-46268446D01*
X104668581Y-46268442D01*
X104770697Y-46194250D01*
X104770698Y-46194250D01*
X103959409Y-45382962D01*
X104022993Y-45365925D01*
X104137007Y-45300099D01*
X104230099Y-45207007D01*
X104295925Y-45092993D01*
X104312962Y-45029410D01*
X105124250Y-45840698D01*
X105124250Y-45840697D01*
X105198442Y-45738581D01*
X105198446Y-45738575D01*
X105312780Y-45514184D01*
X105390602Y-45274669D01*
X105430000Y-45025928D01*
X105430000Y-44774071D01*
X105390602Y-44525330D01*
X105312780Y-44285815D01*
X105198442Y-44061416D01*
X105124250Y-43959301D01*
X105124250Y-43959300D01*
X104312962Y-44770589D01*
X104295925Y-44707007D01*
X104230099Y-44592993D01*
X104137007Y-44499901D01*
X104022993Y-44434075D01*
X103959408Y-44417037D01*
X104770698Y-43605748D01*
X104668583Y-43531557D01*
X104444184Y-43417219D01*
X104204669Y-43339397D01*
X103955928Y-43300000D01*
X103704072Y-43300000D01*
X103455330Y-43339397D01*
X103215815Y-43417219D01*
X102991413Y-43531559D01*
X102889301Y-43605747D01*
X102889300Y-43605748D01*
X103700590Y-44417037D01*
X103637007Y-44434075D01*
X103522993Y-44499901D01*
X103429901Y-44592993D01*
X103364075Y-44707007D01*
X103347037Y-44770590D01*
X102535748Y-43959300D01*
X102535747Y-43959301D01*
X102461559Y-44061413D01*
X102347219Y-44285815D01*
X102269397Y-44525330D01*
X102230000Y-44774071D01*
X100330500Y-44774071D01*
X100330500Y-42980900D01*
X100336569Y-42942582D01*
X100347381Y-42909306D01*
X100391090Y-42774785D01*
X100430500Y-42525962D01*
X100430500Y-42274038D01*
X100391090Y-42025215D01*
X100391089Y-42025211D01*
X100391089Y-42025210D01*
X100336569Y-41857416D01*
X100330500Y-41819098D01*
X100330500Y-40480900D01*
X100336569Y-40442582D01*
X100391090Y-40274785D01*
X100430500Y-40025962D01*
X100430500Y-39774038D01*
X100391090Y-39525215D01*
X100313241Y-39285621D01*
X100313239Y-39285618D01*
X100313239Y-39285616D01*
X100207987Y-39079049D01*
X100198870Y-39061155D01*
X100122308Y-38955776D01*
X100050798Y-38857350D01*
X100050794Y-38857345D01*
X99872654Y-38679205D01*
X99872649Y-38679201D01*
X99668848Y-38531132D01*
X99668847Y-38531131D01*
X99668845Y-38531130D01*
X99598747Y-38495413D01*
X99444383Y-38416760D01*
X99204785Y-38338910D01*
X99151680Y-38330499D01*
X98955962Y-38299500D01*
X98704038Y-38299500D01*
X98606119Y-38315009D01*
X98455214Y-38338910D01*
X98215616Y-38416760D01*
X97991151Y-38531132D01*
X97787350Y-38679201D01*
X97787345Y-38679205D01*
X97609205Y-38857345D01*
X97609201Y-38857350D01*
X97461132Y-39061151D01*
X97346760Y-39285616D01*
X97268910Y-39525214D01*
X97268910Y-39525215D01*
X97229500Y-39774038D01*
X97229500Y-40025962D01*
X97234102Y-40055019D01*
X97266254Y-40258019D01*
X97268910Y-40274785D01*
X97323431Y-40442582D01*
X97329500Y-40480900D01*
X97329500Y-41819098D01*
X97323431Y-41857416D01*
X97268910Y-42025210D01*
X97268910Y-42025213D01*
X97257170Y-42099336D01*
X97229500Y-42274038D01*
X97229500Y-42525962D01*
X97239064Y-42586344D01*
X97261329Y-42726924D01*
X97268910Y-42774785D01*
X97310311Y-42902203D01*
X97323431Y-42942582D01*
X97329500Y-42980900D01*
X97329500Y-46819098D01*
X97323431Y-46857416D01*
X97268910Y-47025210D01*
X97268910Y-47025213D01*
X97243196Y-47187567D01*
X97229500Y-47274038D01*
X97229500Y-47525962D01*
X97236505Y-47570189D01*
X97267389Y-47765186D01*
X97268910Y-47774785D01*
X97321184Y-47935666D01*
X97323431Y-47942582D01*
X97329500Y-47980900D01*
X97329500Y-49134217D01*
X97309815Y-49201256D01*
X97293181Y-49221898D01*
X96951899Y-49563181D01*
X96890576Y-49596666D01*
X96864218Y-49599500D01*
X91918341Y-49599500D01*
X91851302Y-49579815D01*
X91805547Y-49527011D01*
X91795603Y-49457853D01*
X91812802Y-49410404D01*
X91845485Y-49357416D01*
X91899814Y-49269334D01*
X91954999Y-49102797D01*
X91965500Y-49000009D01*
X91965499Y-48399992D01*
X91957032Y-48317101D01*
X91969802Y-48248408D01*
X92017683Y-48197524D01*
X92080390Y-48180500D01*
X92933543Y-48180500D01*
X92973422Y-48172567D01*
X93101709Y-48147049D01*
X93126836Y-48142051D01*
X93223037Y-48102203D01*
X93308914Y-48066632D01*
X93472782Y-47957139D01*
X93612139Y-47817782D01*
X93612139Y-47817780D01*
X93622347Y-47807573D01*
X93622348Y-47807570D01*
X94397140Y-47032781D01*
X94506632Y-46868914D01*
X94582052Y-46686835D01*
X94620500Y-46493540D01*
X94620500Y-46296459D01*
X94620500Y-38827230D01*
X94640185Y-38760191D01*
X94656819Y-38739549D01*
X94662712Y-38733656D01*
X94754814Y-38584334D01*
X94809999Y-38417797D01*
X94820500Y-38315009D01*
X94820499Y-37689992D01*
X94819755Y-37682712D01*
X94809999Y-37587203D01*
X94809998Y-37587200D01*
X94799897Y-37556717D01*
X94754814Y-37420666D01*
X94721771Y-37367095D01*
X94703332Y-37299704D01*
X94724255Y-37233041D01*
X94777897Y-37188271D01*
X94827311Y-37178000D01*
X99200423Y-37178000D01*
X99201783Y-37178007D01*
X99213307Y-37178133D01*
X99225210Y-37180501D01*
X99422291Y-37180501D01*
X99422296Y-37180500D01*
X105071459Y-37180500D01*
X105268541Y-37180500D01*
X105268543Y-37180500D01*
X105403549Y-37153645D01*
X105461835Y-37142051D01*
X105643914Y-37066632D01*
X105807782Y-36957139D01*
X105947139Y-36817782D01*
X106056632Y-36653914D01*
X106132051Y-36471835D01*
X106133882Y-36462625D01*
X106166267Y-36400716D01*
X106226983Y-36366142D01*
X106296752Y-36369881D01*
X106353425Y-36410747D01*
X106379006Y-36475765D01*
X106379500Y-36486818D01*
X106379500Y-51825500D01*
X106359815Y-51892539D01*
X106307011Y-51938294D01*
X106255500Y-51949500D01*
X51406586Y-51949500D01*
X51339547Y-51929815D01*
X51293792Y-51877011D01*
X51282587Y-51825087D01*
X51284985Y-51105807D01*
X52527743Y-51105807D01*
X52640795Y-51188607D01*
X52872460Y-51308893D01*
X52872467Y-51308896D01*
X53119780Y-51392407D01*
X53376946Y-51437187D01*
X53435616Y-51439999D01*
X59244366Y-51439999D01*
X59244401Y-51439998D01*
X59303050Y-51437188D01*
X59303058Y-51437187D01*
X59560218Y-51392407D01*
X59560220Y-51392407D01*
X59807532Y-51308896D01*
X59807539Y-51308893D01*
X60039196Y-51188612D01*
X60152255Y-51105806D01*
X56340000Y-47293552D01*
X52527743Y-51105807D01*
X51284985Y-51105807D01*
X51285144Y-51058033D01*
X51308552Y-44035601D01*
X51840000Y-44035601D01*
X51840000Y-49844366D01*
X51840001Y-49844401D01*
X51842811Y-49903050D01*
X51842812Y-49903058D01*
X51887592Y-50160218D01*
X51887592Y-50160220D01*
X51971103Y-50407532D01*
X51971106Y-50407539D01*
X52091392Y-50639205D01*
X52174191Y-50752254D01*
X52174191Y-50752255D01*
X55986448Y-46940000D01*
X55986447Y-46939999D01*
X56693552Y-46939999D01*
X56693552Y-46940001D01*
X60505806Y-50752255D01*
X60588612Y-50639196D01*
X60708893Y-50407539D01*
X60708896Y-50407532D01*
X60792407Y-50160220D01*
X60792407Y-50160218D01*
X60837187Y-49903053D01*
X60839999Y-49844398D01*
X60839999Y-48106597D01*
X61240260Y-48106597D01*
X71266707Y-48106597D01*
X71266707Y-45290059D01*
X61240260Y-45290059D01*
X61240260Y-48106597D01*
X60839999Y-48106597D01*
X60839999Y-44035633D01*
X60839998Y-44035598D01*
X60837188Y-43976949D01*
X60837187Y-43976941D01*
X60792407Y-43719781D01*
X60792407Y-43719779D01*
X60708896Y-43472467D01*
X60708893Y-43472460D01*
X60588607Y-43240795D01*
X60505807Y-43127744D01*
X60505807Y-43127743D01*
X56693552Y-46939999D01*
X55986447Y-46939999D01*
X52174191Y-43127743D01*
X52091394Y-43240792D01*
X52091387Y-43240804D01*
X51971106Y-43472460D01*
X51971103Y-43472467D01*
X51887592Y-43719779D01*
X51887592Y-43719781D01*
X51842812Y-43976946D01*
X51840000Y-44035601D01*
X51308552Y-44035601D01*
X51308558Y-44033717D01*
X51312600Y-42821140D01*
X51312756Y-42774191D01*
X52527743Y-42774191D01*
X56339999Y-46586447D01*
X60152255Y-42774191D01*
X60039205Y-42691392D01*
X59807539Y-42571106D01*
X59807532Y-42571103D01*
X59560219Y-42487592D01*
X59303053Y-42442812D01*
X59244383Y-42440000D01*
X53435633Y-42440000D01*
X53435598Y-42440001D01*
X53376949Y-42442811D01*
X53376941Y-42442812D01*
X53119781Y-42487592D01*
X53119779Y-42487592D01*
X52872467Y-42571103D01*
X52872460Y-42571106D01*
X52640804Y-42691387D01*
X52640792Y-42691394D01*
X52527743Y-42774191D01*
X51312756Y-42774191D01*
X51373501Y-24550705D01*
X51393409Y-24483731D01*
X51446365Y-24438153D01*
X51515556Y-24428440D01*
X51579015Y-24457676D01*
G37*
%TD.AperFunction*%
%TA.AperFunction,Conductor*%
G36*
X104112539Y-24867685D02*
G01*
X104158294Y-24920489D01*
X104169500Y-24972000D01*
X104169500Y-35055500D01*
X104149815Y-35122539D01*
X104097011Y-35168294D01*
X104045500Y-35179500D01*
X100484500Y-35179500D01*
X100417461Y-35159815D01*
X100371706Y-35107011D01*
X100360500Y-35055500D01*
X100360500Y-33423864D01*
X100360499Y-33423846D01*
X100360499Y-33229998D01*
X100360498Y-33229981D01*
X100349999Y-33127203D01*
X100349998Y-33127200D01*
X100320934Y-33039491D01*
X100294814Y-32960666D01*
X100249712Y-32887544D01*
X100228961Y-32853900D01*
X100210500Y-32788804D01*
X100210500Y-28517230D01*
X100213464Y-28507135D01*
X100659500Y-28507135D01*
X100659500Y-30302870D01*
X100659501Y-30302876D01*
X100665908Y-30362483D01*
X100716202Y-30497328D01*
X100716206Y-30497335D01*
X100802452Y-30612544D01*
X100802455Y-30612547D01*
X100917665Y-30698794D01*
X100917667Y-30698794D01*
X100917669Y-30698796D01*
X100928830Y-30702958D01*
X100984764Y-30744826D01*
X101009184Y-30810289D01*
X101009500Y-30819141D01*
X101009500Y-32788804D01*
X100991039Y-32853900D01*
X100925189Y-32960659D01*
X100925185Y-32960668D01*
X100912256Y-32999685D01*
X100870001Y-33127203D01*
X100870001Y-33127204D01*
X100870000Y-33127204D01*
X100859500Y-33229983D01*
X100859500Y-33830000D01*
X100859501Y-33830019D01*
X100870000Y-33932796D01*
X100870001Y-33932799D01*
X100918408Y-34078879D01*
X100925186Y-34099334D01*
X101017288Y-34248656D01*
X101141344Y-34372712D01*
X101290666Y-34464814D01*
X101457203Y-34519999D01*
X101559991Y-34530500D01*
X101761458Y-34530499D01*
X101761460Y-34530500D01*
X101958540Y-34530500D01*
X101958543Y-34530499D01*
X102160008Y-34530499D01*
X102262797Y-34519999D01*
X102429334Y-34464814D01*
X102578656Y-34372712D01*
X102702712Y-34248656D01*
X102794814Y-34099334D01*
X102849999Y-33932797D01*
X102849999Y-33932796D01*
X102850697Y-33930690D01*
X102856952Y-33915337D01*
X102860633Y-33907789D01*
X102896632Y-33853914D01*
X102949961Y-33725165D01*
X102972051Y-33671836D01*
X103003753Y-33512460D01*
X103004572Y-33508343D01*
X103004572Y-33508340D01*
X103005241Y-33504980D01*
X103010500Y-33478541D01*
X103010500Y-30819141D01*
X103030185Y-30752102D01*
X103082989Y-30706347D01*
X103091149Y-30702966D01*
X103102331Y-30698796D01*
X103102528Y-30698649D01*
X103160168Y-30655499D01*
X103217546Y-30612546D01*
X103303796Y-30497331D01*
X103354091Y-30362483D01*
X103360500Y-30302873D01*
X103360499Y-28507128D01*
X103354658Y-28452787D01*
X103354091Y-28447516D01*
X103303797Y-28312671D01*
X103303793Y-28312664D01*
X103217547Y-28197455D01*
X103217544Y-28197452D01*
X103102335Y-28111206D01*
X103102328Y-28111202D01*
X102967482Y-28060908D01*
X102967483Y-28060908D01*
X102907883Y-28054501D01*
X102907881Y-28054500D01*
X102907873Y-28054500D01*
X102907865Y-28054500D01*
X102897309Y-28054500D01*
X102830270Y-28034815D01*
X102809628Y-28018181D01*
X102139408Y-27347962D01*
X102202993Y-27330925D01*
X102317007Y-27265099D01*
X102410099Y-27172007D01*
X102475925Y-27057993D01*
X102492962Y-26994408D01*
X103125270Y-27626717D01*
X103125270Y-27626716D01*
X103164622Y-27572554D01*
X103261095Y-27383217D01*
X103326757Y-27181130D01*
X103326757Y-27181127D01*
X103360000Y-26971246D01*
X103360000Y-26758753D01*
X103326757Y-26548872D01*
X103326757Y-26548869D01*
X103261095Y-26346782D01*
X103164624Y-26157449D01*
X103125270Y-26103282D01*
X103125269Y-26103282D01*
X102492962Y-26735590D01*
X102475925Y-26672007D01*
X102410099Y-26557993D01*
X102317007Y-26464901D01*
X102202993Y-26399075D01*
X102139409Y-26382037D01*
X102771716Y-25749728D01*
X102717550Y-25710375D01*
X102528217Y-25613904D01*
X102326129Y-25548242D01*
X102116246Y-25515000D01*
X101903754Y-25515000D01*
X101693872Y-25548242D01*
X101693869Y-25548242D01*
X101491782Y-25613904D01*
X101302439Y-25710380D01*
X101248282Y-25749727D01*
X101248282Y-25749728D01*
X101880591Y-26382037D01*
X101817007Y-26399075D01*
X101702993Y-26464901D01*
X101609901Y-26557993D01*
X101544075Y-26672007D01*
X101527037Y-26735591D01*
X100894728Y-26103282D01*
X100894727Y-26103282D01*
X100855380Y-26157439D01*
X100758904Y-26346782D01*
X100693242Y-26548869D01*
X100693242Y-26548872D01*
X100660000Y-26758753D01*
X100660000Y-26971246D01*
X100693242Y-27181127D01*
X100693242Y-27181130D01*
X100758904Y-27383217D01*
X100855375Y-27572550D01*
X100894728Y-27626716D01*
X101527037Y-26994408D01*
X101544075Y-27057993D01*
X101609901Y-27172007D01*
X101702993Y-27265099D01*
X101817007Y-27330925D01*
X101880590Y-27347962D01*
X101210370Y-28018181D01*
X101149047Y-28051666D01*
X101122698Y-28054500D01*
X101112134Y-28054500D01*
X101112123Y-28054501D01*
X101052516Y-28060908D01*
X100917671Y-28111202D01*
X100917664Y-28111206D01*
X100802455Y-28197452D01*
X100802452Y-28197455D01*
X100716206Y-28312664D01*
X100716202Y-28312671D01*
X100665908Y-28447517D01*
X100663179Y-28472905D01*
X100659501Y-28507123D01*
X100659500Y-28507135D01*
X100213464Y-28507135D01*
X100219144Y-28487789D01*
X100225668Y-28457803D01*
X100229422Y-28452787D01*
X100230185Y-28450191D01*
X100246819Y-28429549D01*
X100260243Y-28416125D01*
X100261368Y-28415000D01*
X100277712Y-28398656D01*
X100369814Y-28249334D01*
X100424999Y-28082797D01*
X100435500Y-27980009D01*
X100435499Y-27379992D01*
X100434529Y-27370500D01*
X100424999Y-27277203D01*
X100424998Y-27277200D01*
X100417807Y-27255499D01*
X100369814Y-27110666D01*
X100277712Y-26961344D01*
X100153656Y-26837288D01*
X100143852Y-26831241D01*
X100137903Y-26826474D01*
X100122089Y-26803833D01*
X100103618Y-26783297D01*
X100102364Y-26775591D01*
X100097895Y-26769193D01*
X100096832Y-26741593D01*
X100092397Y-26714334D01*
X100095507Y-26707175D01*
X100095207Y-26699375D01*
X100109233Y-26675583D01*
X100120240Y-26650252D01*
X100128270Y-26643293D01*
X100130692Y-26639187D01*
X100136235Y-26636392D01*
X100150348Y-26624165D01*
X100153342Y-26622318D01*
X100277315Y-26498345D01*
X100369356Y-26349124D01*
X100369358Y-26349119D01*
X100424505Y-26182697D01*
X100424506Y-26182690D01*
X100434999Y-26079986D01*
X100435000Y-26079973D01*
X100435000Y-26030000D01*
X98565000Y-26030000D01*
X98551319Y-26043681D01*
X98489996Y-26077166D01*
X98463638Y-26080000D01*
X97334000Y-26080000D01*
X97325314Y-26077449D01*
X97316353Y-26078738D01*
X97292312Y-26067759D01*
X97266961Y-26060315D01*
X97261033Y-26053474D01*
X97252797Y-26049713D01*
X97238507Y-26027478D01*
X97221206Y-26007511D01*
X97218918Y-25996996D01*
X97215023Y-25990935D01*
X97210000Y-25956000D01*
X97210000Y-25704000D01*
X97229685Y-25636961D01*
X97282489Y-25591206D01*
X97334000Y-25580000D01*
X97855000Y-25580000D01*
X97868681Y-25566319D01*
X97930004Y-25532834D01*
X97956362Y-25530000D01*
X100434999Y-25530000D01*
X100434999Y-25480028D01*
X100434998Y-25480013D01*
X100424505Y-25377302D01*
X100369358Y-25210880D01*
X100369356Y-25210875D01*
X100277315Y-25061654D01*
X100275342Y-25059681D01*
X100274419Y-25057992D01*
X100272839Y-25055993D01*
X100273180Y-25055722D01*
X100241857Y-24998358D01*
X100246841Y-24928666D01*
X100288713Y-24872733D01*
X100354177Y-24848316D01*
X100363023Y-24848000D01*
X104045500Y-24848000D01*
X104112539Y-24867685D01*
G37*
%TD.AperFunction*%
%TD*%
M02*
