%TF.GenerationSoftware,KiCad,Pcbnew,9.0.3+dfsg-1*%
%TF.CreationDate,2026-03-18T13:00:08+01:00*%
%TF.ProjectId,tcvr,74637672-2e6b-4696-9361-645f70636258,1.0*%
%TF.SameCoordinates,Original*%
%TF.FileFunction,Soldermask,Top*%
%TF.FilePolarity,Negative*%
%FSLAX46Y46*%
G04 Gerber Fmt 4.6, Leading zero omitted, Abs format (unit mm)*
G04 Created by KiCad (PCBNEW 9.0.3+dfsg-1) date 2026-03-18 13:00:08*
%MOMM*%
%LPD*%
G01*
G04 APERTURE LIST*
G04 Aperture macros list*
%AMRoundRect*
0 Rectangle with rounded corners*
0 $1 Rounding radius*
0 $2 $3 $4 $5 $6 $7 $8 $9 X,Y pos of 4 corners*
0 Add a 4 corners polygon primitive as box body*
4,1,4,$2,$3,$4,$5,$6,$7,$8,$9,$2,$3,0*
0 Add four circle primitives for the rounded corners*
1,1,$1+$1,$2,$3*
1,1,$1+$1,$4,$5*
1,1,$1+$1,$6,$7*
1,1,$1+$1,$8,$9*
0 Add four rect primitives between the rounded corners*
20,1,$1+$1,$2,$3,$4,$5,0*
20,1,$1+$1,$4,$5,$6,$7,0*
20,1,$1+$1,$6,$7,$8,$9,0*
20,1,$1+$1,$8,$9,$2,$3,0*%
G04 Aperture macros list end*
%ADD10RoundRect,0.250000X0.475000X-0.250000X0.475000X0.250000X-0.475000X0.250000X-0.475000X-0.250000X0*%
%ADD11RoundRect,0.250000X0.250000X0.475000X-0.250000X0.475000X-0.250000X-0.475000X0.250000X-0.475000X0*%
%ADD12RoundRect,1.200000X2.800000X-2.800000X2.800000X2.800000X-2.800000X2.800000X-2.800000X-2.800000X0*%
%ADD13RoundRect,0.250000X-0.450000X0.262500X-0.450000X-0.262500X0.450000X-0.262500X0.450000X0.262500X0*%
%ADD14RoundRect,0.250000X-0.250000X-0.250000X0.250000X-0.250000X0.250000X0.250000X-0.250000X0.250000X0*%
%ADD15RoundRect,0.250000X-0.250000X-0.475000X0.250000X-0.475000X0.250000X0.475000X-0.250000X0.475000X0*%
%ADD16RoundRect,0.250000X0.750000X-2.000000X0.750000X2.000000X-0.750000X2.000000X-0.750000X-2.000000X0*%
%ADD17RoundRect,0.250000X-1.075000X0.375000X-1.075000X-0.375000X1.075000X-0.375000X1.075000X0.375000X0*%
%ADD18RoundRect,0.250000X-0.475000X0.250000X-0.475000X-0.250000X0.475000X-0.250000X0.475000X0.250000X0*%
%ADD19RoundRect,0.250000X0.262500X0.450000X-0.262500X0.450000X-0.262500X-0.450000X0.262500X-0.450000X0*%
%ADD20C,1.600000*%
%ADD21RoundRect,0.150000X-0.587500X-0.150000X0.587500X-0.150000X0.587500X0.150000X-0.587500X0.150000X0*%
%ADD22RoundRect,0.375000X-0.625000X-0.375000X0.625000X-0.375000X0.625000X0.375000X-0.625000X0.375000X0*%
%ADD23RoundRect,0.500000X-0.500000X-1.400000X0.500000X-1.400000X0.500000X1.400000X-0.500000X1.400000X0*%
%ADD24R,3.000000X3.000000*%
%ADD25R,1.700000X1.700000*%
%ADD26C,1.700000*%
%ADD27RoundRect,0.150000X0.587500X0.150000X-0.587500X0.150000X-0.587500X-0.150000X0.587500X-0.150000X0*%
%ADD28RoundRect,0.250000X-0.262500X-0.450000X0.262500X-0.450000X0.262500X0.450000X-0.262500X0.450000X0*%
%ADD29RoundRect,0.250000X0.250000X0.250000X-0.250000X0.250000X-0.250000X-0.250000X0.250000X-0.250000X0*%
%ADD30C,2.200000*%
%ADD31RoundRect,0.250000X-0.625000X0.312500X-0.625000X-0.312500X0.625000X-0.312500X0.625000X0.312500X0*%
%ADD32RoundRect,0.150000X-0.725000X-0.150000X0.725000X-0.150000X0.725000X0.150000X-0.725000X0.150000X0*%
G04 APERTURE END LIST*
D10*
%TO.C,C7*%
X79760000Y-36840000D03*
X79760000Y-34940000D03*
%TD*%
D11*
%TO.C,C17*%
X91460000Y-32030000D03*
X89560000Y-32030000D03*
%TD*%
D12*
%TO.C,SW1*%
X56340000Y-46940000D03*
X76340000Y-46940000D03*
%TD*%
D13*
%TO.C,R2*%
X59510000Y-31217500D03*
X59510000Y-33042500D03*
%TD*%
D14*
%TO.C,D2*%
X89032500Y-39610000D03*
X91532500Y-39610000D03*
%TD*%
D15*
%TO.C,C10*%
X85110000Y-41330000D03*
X87010000Y-41330000D03*
%TD*%
D13*
%TO.C,R6*%
X68910000Y-37317500D03*
X68910000Y-39142500D03*
%TD*%
D16*
%TO.C,Y1*%
X55610000Y-35830000D03*
X55610000Y-27330000D03*
%TD*%
D10*
%TO.C,C21*%
X97210000Y-27730000D03*
X97210000Y-25830000D03*
%TD*%
D17*
%TO.C,L1*%
X68110000Y-29530000D03*
X68110000Y-32330000D03*
%TD*%
D18*
%TO.C,C3*%
X61510000Y-31080000D03*
X61510000Y-32980000D03*
%TD*%
D11*
%TO.C,C14*%
X88960000Y-48730000D03*
X87060000Y-48730000D03*
%TD*%
D14*
%TO.C,D3*%
X99360000Y-33530000D03*
X101860000Y-33530000D03*
%TD*%
D19*
%TO.C,R1*%
X63122500Y-25730000D03*
X61297500Y-25730000D03*
%TD*%
D20*
%TO.C,L3*%
X83010000Y-36230000D03*
X83010000Y-26070000D03*
%TD*%
D21*
%TO.C,Q1*%
X61572500Y-27580000D03*
X61572500Y-29480000D03*
X63447500Y-28530000D03*
%TD*%
D11*
%TO.C,C19*%
X91510000Y-34030000D03*
X89610000Y-34030000D03*
%TD*%
D22*
%TO.C,Q3*%
X70960000Y-29930000D03*
X70960000Y-32230000D03*
D23*
X77260000Y-32230000D03*
D22*
X70960000Y-34530000D03*
%TD*%
D24*
%TO.C,AE1*%
X94310000Y-31030000D03*
%TD*%
D25*
%TO.C,J3*%
X102010000Y-29405000D03*
D26*
X102010000Y-26865000D03*
%TD*%
D20*
%TO.C,L4*%
X86910000Y-26050000D03*
X86910000Y-36210000D03*
%TD*%
D13*
%TO.C,R5*%
X65610000Y-25630000D03*
X65610000Y-27455000D03*
%TD*%
D11*
%TO.C,C20*%
X91460000Y-36030000D03*
X89560000Y-36030000D03*
%TD*%
D18*
%TO.C,C2*%
X59510000Y-27780000D03*
X59510000Y-29680000D03*
%TD*%
D19*
%TO.C,R8*%
X85522500Y-48720000D03*
X83697500Y-48720000D03*
%TD*%
D27*
%TO.C,Q2*%
X63447500Y-36380000D03*
X63447500Y-34480000D03*
X61572500Y-35430000D03*
%TD*%
D13*
%TO.C,R3*%
X65510000Y-29217500D03*
X65510000Y-31042500D03*
%TD*%
D15*
%TO.C,C12*%
X89560000Y-26030000D03*
X91460000Y-26030000D03*
%TD*%
D28*
%TO.C,R4*%
X61597500Y-38130000D03*
X63422500Y-38130000D03*
%TD*%
D24*
%TO.C,J2*%
X94210000Y-27030000D03*
%TD*%
D10*
%TO.C,C4*%
X63510000Y-32980000D03*
X63510000Y-31080000D03*
%TD*%
D11*
%TO.C,C18*%
X91460000Y-28030000D03*
X89560000Y-28030000D03*
%TD*%
D10*
%TO.C,C22*%
X99210000Y-27680000D03*
X99210000Y-25780000D03*
%TD*%
D29*
%TO.C,D1*%
X68460000Y-35230000D03*
X65960000Y-35230000D03*
%TD*%
D18*
%TO.C,C16*%
X90740000Y-48700000D03*
X90740000Y-50600000D03*
%TD*%
D13*
%TO.C,R7*%
X93620000Y-36177500D03*
X93620000Y-38002500D03*
%TD*%
D18*
%TO.C,C9*%
X80010000Y-25830000D03*
X80010000Y-27730000D03*
%TD*%
D11*
%TO.C,C15*%
X91510000Y-30030000D03*
X89610000Y-30030000D03*
%TD*%
D18*
%TO.C,C6*%
X79710000Y-29730000D03*
X79710000Y-31630000D03*
%TD*%
%TO.C,C8*%
X81910000Y-39630000D03*
X81910000Y-41530000D03*
%TD*%
D10*
%TO.C,C13*%
X92110000Y-47180000D03*
X92110000Y-45280000D03*
%TD*%
D15*
%TO.C,C11*%
X90460000Y-43530000D03*
X92360000Y-43530000D03*
%TD*%
D10*
%TO.C,C1*%
X59510000Y-36480000D03*
X59510000Y-34580000D03*
%TD*%
D18*
%TO.C,C5*%
X71210000Y-37230000D03*
X71210000Y-39130000D03*
%TD*%
D30*
%TO.C,J1*%
X98830000Y-49900000D03*
X98830000Y-47400000D03*
X98830000Y-42400000D03*
X98830000Y-39900000D03*
X103830000Y-44900000D03*
%TD*%
D20*
%TO.C,L2*%
X67730000Y-26730000D03*
X77890000Y-26730000D03*
%TD*%
D31*
%TO.C,R9*%
X75510000Y-36767500D03*
X75510000Y-39692500D03*
%TD*%
D32*
%TO.C,U1*%
X83435000Y-43125000D03*
X83435000Y-44395000D03*
X83435000Y-45665000D03*
X83435000Y-46935000D03*
X88585000Y-46935000D03*
X88585000Y-45665000D03*
X88585000Y-44395000D03*
X88585000Y-43125000D03*
%TD*%
M02*
