%TF.GenerationSoftware,KiCad,Pcbnew,9.0.3+dfsg-1*%
%TF.CreationDate,2026-03-18T13:00:08+01:00*%
%TF.ProjectId,tcvr,74637672-2e6b-4696-9361-645f70636258,1.0*%
%TF.SameCoordinates,Original*%
%TF.FileFunction,Legend,Top*%
%TF.FilePolarity,Positive*%
%FSLAX46Y46*%
G04 Gerber Fmt 4.6, Leading zero omitted, Abs format (unit mm)*
G04 Created by KiCad (PCBNEW 9.0.3+dfsg-1) date 2026-03-18 13:00:08*
%MOMM*%
%LPD*%
G01*
G04 APERTURE LIST*
%ADD10C,0.150000*%
%ADD11C,0.100000*%
%ADD12C,0.120000*%
G04 APERTURE END LIST*
D10*
X80319580Y-38656666D02*
X80367200Y-38704285D01*
X80367200Y-38704285D02*
X80414819Y-38847142D01*
X80414819Y-38847142D02*
X80414819Y-38942380D01*
X80414819Y-38942380D02*
X80367200Y-39085237D01*
X80367200Y-39085237D02*
X80271961Y-39180475D01*
X80271961Y-39180475D02*
X80176723Y-39228094D01*
X80176723Y-39228094D02*
X79986247Y-39275713D01*
X79986247Y-39275713D02*
X79843390Y-39275713D01*
X79843390Y-39275713D02*
X79652914Y-39228094D01*
X79652914Y-39228094D02*
X79557676Y-39180475D01*
X79557676Y-39180475D02*
X79462438Y-39085237D01*
X79462438Y-39085237D02*
X79414819Y-38942380D01*
X79414819Y-38942380D02*
X79414819Y-38847142D01*
X79414819Y-38847142D02*
X79462438Y-38704285D01*
X79462438Y-38704285D02*
X79510057Y-38656666D01*
X79414819Y-38323332D02*
X79414819Y-37656666D01*
X79414819Y-37656666D02*
X80414819Y-38085237D01*
X86467142Y-32289580D02*
X86419523Y-32337200D01*
X86419523Y-32337200D02*
X86276666Y-32384819D01*
X86276666Y-32384819D02*
X86181428Y-32384819D01*
X86181428Y-32384819D02*
X86038571Y-32337200D01*
X86038571Y-32337200D02*
X85943333Y-32241961D01*
X85943333Y-32241961D02*
X85895714Y-32146723D01*
X85895714Y-32146723D02*
X85848095Y-31956247D01*
X85848095Y-31956247D02*
X85848095Y-31813390D01*
X85848095Y-31813390D02*
X85895714Y-31622914D01*
X85895714Y-31622914D02*
X85943333Y-31527676D01*
X85943333Y-31527676D02*
X86038571Y-31432438D01*
X86038571Y-31432438D02*
X86181428Y-31384819D01*
X86181428Y-31384819D02*
X86276666Y-31384819D01*
X86276666Y-31384819D02*
X86419523Y-31432438D01*
X86419523Y-31432438D02*
X86467142Y-31480057D01*
X87419523Y-32384819D02*
X86848095Y-32384819D01*
X87133809Y-32384819D02*
X87133809Y-31384819D01*
X87133809Y-31384819D02*
X87038571Y-31527676D01*
X87038571Y-31527676D02*
X86943333Y-31622914D01*
X86943333Y-31622914D02*
X86848095Y-31670533D01*
X87752857Y-31384819D02*
X88419523Y-31384819D01*
X88419523Y-31384819D02*
X87990952Y-32384819D01*
D11*
X65006667Y-47249800D02*
X65149524Y-47297419D01*
X65149524Y-47297419D02*
X65387619Y-47297419D01*
X65387619Y-47297419D02*
X65482857Y-47249800D01*
X65482857Y-47249800D02*
X65530476Y-47202180D01*
X65530476Y-47202180D02*
X65578095Y-47106942D01*
X65578095Y-47106942D02*
X65578095Y-47011704D01*
X65578095Y-47011704D02*
X65530476Y-46916466D01*
X65530476Y-46916466D02*
X65482857Y-46868847D01*
X65482857Y-46868847D02*
X65387619Y-46821228D01*
X65387619Y-46821228D02*
X65197143Y-46773609D01*
X65197143Y-46773609D02*
X65101905Y-46725990D01*
X65101905Y-46725990D02*
X65054286Y-46678371D01*
X65054286Y-46678371D02*
X65006667Y-46583133D01*
X65006667Y-46583133D02*
X65006667Y-46487895D01*
X65006667Y-46487895D02*
X65054286Y-46392657D01*
X65054286Y-46392657D02*
X65101905Y-46345038D01*
X65101905Y-46345038D02*
X65197143Y-46297419D01*
X65197143Y-46297419D02*
X65435238Y-46297419D01*
X65435238Y-46297419D02*
X65578095Y-46345038D01*
X65911429Y-46297419D02*
X66149524Y-47297419D01*
X66149524Y-47297419D02*
X66340000Y-46583133D01*
X66340000Y-46583133D02*
X66530476Y-47297419D01*
X66530476Y-47297419D02*
X66768572Y-46297419D01*
X67673333Y-47297419D02*
X67101905Y-47297419D01*
X67387619Y-47297419D02*
X67387619Y-46297419D01*
X67387619Y-46297419D02*
X67292381Y-46440276D01*
X67292381Y-46440276D02*
X67197143Y-46535514D01*
X67197143Y-46535514D02*
X67101905Y-46583133D01*
D10*
X57964819Y-32196666D02*
X57488628Y-32529999D01*
X57964819Y-32768094D02*
X56964819Y-32768094D01*
X56964819Y-32768094D02*
X56964819Y-32387142D01*
X56964819Y-32387142D02*
X57012438Y-32291904D01*
X57012438Y-32291904D02*
X57060057Y-32244285D01*
X57060057Y-32244285D02*
X57155295Y-32196666D01*
X57155295Y-32196666D02*
X57298152Y-32196666D01*
X57298152Y-32196666D02*
X57393390Y-32244285D01*
X57393390Y-32244285D02*
X57441009Y-32291904D01*
X57441009Y-32291904D02*
X57488628Y-32387142D01*
X57488628Y-32387142D02*
X57488628Y-32768094D01*
X57060057Y-31815713D02*
X57012438Y-31768094D01*
X57012438Y-31768094D02*
X56964819Y-31672856D01*
X56964819Y-31672856D02*
X56964819Y-31434761D01*
X56964819Y-31434761D02*
X57012438Y-31339523D01*
X57012438Y-31339523D02*
X57060057Y-31291904D01*
X57060057Y-31291904D02*
X57155295Y-31244285D01*
X57155295Y-31244285D02*
X57250533Y-31244285D01*
X57250533Y-31244285D02*
X57393390Y-31291904D01*
X57393390Y-31291904D02*
X57964819Y-31863332D01*
X57964819Y-31863332D02*
X57964819Y-31244285D01*
X88621905Y-42034819D02*
X88621905Y-41034819D01*
X88621905Y-41034819D02*
X88860000Y-41034819D01*
X88860000Y-41034819D02*
X89002857Y-41082438D01*
X89002857Y-41082438D02*
X89098095Y-41177676D01*
X89098095Y-41177676D02*
X89145714Y-41272914D01*
X89145714Y-41272914D02*
X89193333Y-41463390D01*
X89193333Y-41463390D02*
X89193333Y-41606247D01*
X89193333Y-41606247D02*
X89145714Y-41796723D01*
X89145714Y-41796723D02*
X89098095Y-41891961D01*
X89098095Y-41891961D02*
X89002857Y-41987200D01*
X89002857Y-41987200D02*
X88860000Y-42034819D01*
X88860000Y-42034819D02*
X88621905Y-42034819D01*
X89574286Y-41130057D02*
X89621905Y-41082438D01*
X89621905Y-41082438D02*
X89717143Y-41034819D01*
X89717143Y-41034819D02*
X89955238Y-41034819D01*
X89955238Y-41034819D02*
X90050476Y-41082438D01*
X90050476Y-41082438D02*
X90098095Y-41130057D01*
X90098095Y-41130057D02*
X90145714Y-41225295D01*
X90145714Y-41225295D02*
X90145714Y-41320533D01*
X90145714Y-41320533D02*
X90098095Y-41463390D01*
X90098095Y-41463390D02*
X89526667Y-42034819D01*
X89526667Y-42034819D02*
X90145714Y-42034819D01*
X85417142Y-40009580D02*
X85369523Y-40057200D01*
X85369523Y-40057200D02*
X85226666Y-40104819D01*
X85226666Y-40104819D02*
X85131428Y-40104819D01*
X85131428Y-40104819D02*
X84988571Y-40057200D01*
X84988571Y-40057200D02*
X84893333Y-39961961D01*
X84893333Y-39961961D02*
X84845714Y-39866723D01*
X84845714Y-39866723D02*
X84798095Y-39676247D01*
X84798095Y-39676247D02*
X84798095Y-39533390D01*
X84798095Y-39533390D02*
X84845714Y-39342914D01*
X84845714Y-39342914D02*
X84893333Y-39247676D01*
X84893333Y-39247676D02*
X84988571Y-39152438D01*
X84988571Y-39152438D02*
X85131428Y-39104819D01*
X85131428Y-39104819D02*
X85226666Y-39104819D01*
X85226666Y-39104819D02*
X85369523Y-39152438D01*
X85369523Y-39152438D02*
X85417142Y-39200057D01*
X86369523Y-40104819D02*
X85798095Y-40104819D01*
X86083809Y-40104819D02*
X86083809Y-39104819D01*
X86083809Y-39104819D02*
X85988571Y-39247676D01*
X85988571Y-39247676D02*
X85893333Y-39342914D01*
X85893333Y-39342914D02*
X85798095Y-39390533D01*
X86988571Y-39104819D02*
X87083809Y-39104819D01*
X87083809Y-39104819D02*
X87179047Y-39152438D01*
X87179047Y-39152438D02*
X87226666Y-39200057D01*
X87226666Y-39200057D02*
X87274285Y-39295295D01*
X87274285Y-39295295D02*
X87321904Y-39485771D01*
X87321904Y-39485771D02*
X87321904Y-39723866D01*
X87321904Y-39723866D02*
X87274285Y-39914342D01*
X87274285Y-39914342D02*
X87226666Y-40009580D01*
X87226666Y-40009580D02*
X87179047Y-40057200D01*
X87179047Y-40057200D02*
X87083809Y-40104819D01*
X87083809Y-40104819D02*
X86988571Y-40104819D01*
X86988571Y-40104819D02*
X86893333Y-40057200D01*
X86893333Y-40057200D02*
X86845714Y-40009580D01*
X86845714Y-40009580D02*
X86798095Y-39914342D01*
X86798095Y-39914342D02*
X86750476Y-39723866D01*
X86750476Y-39723866D02*
X86750476Y-39485771D01*
X86750476Y-39485771D02*
X86798095Y-39295295D01*
X86798095Y-39295295D02*
X86845714Y-39200057D01*
X86845714Y-39200057D02*
X86893333Y-39152438D01*
X86893333Y-39152438D02*
X86988571Y-39104819D01*
X67664819Y-38496666D02*
X67188628Y-38829999D01*
X67664819Y-39068094D02*
X66664819Y-39068094D01*
X66664819Y-39068094D02*
X66664819Y-38687142D01*
X66664819Y-38687142D02*
X66712438Y-38591904D01*
X66712438Y-38591904D02*
X66760057Y-38544285D01*
X66760057Y-38544285D02*
X66855295Y-38496666D01*
X66855295Y-38496666D02*
X66998152Y-38496666D01*
X66998152Y-38496666D02*
X67093390Y-38544285D01*
X67093390Y-38544285D02*
X67141009Y-38591904D01*
X67141009Y-38591904D02*
X67188628Y-38687142D01*
X67188628Y-38687142D02*
X67188628Y-39068094D01*
X66664819Y-37639523D02*
X66664819Y-37829999D01*
X66664819Y-37829999D02*
X66712438Y-37925237D01*
X66712438Y-37925237D02*
X66760057Y-37972856D01*
X66760057Y-37972856D02*
X66902914Y-38068094D01*
X66902914Y-38068094D02*
X67093390Y-38115713D01*
X67093390Y-38115713D02*
X67474342Y-38115713D01*
X67474342Y-38115713D02*
X67569580Y-38068094D01*
X67569580Y-38068094D02*
X67617200Y-38020475D01*
X67617200Y-38020475D02*
X67664819Y-37925237D01*
X67664819Y-37925237D02*
X67664819Y-37734761D01*
X67664819Y-37734761D02*
X67617200Y-37639523D01*
X67617200Y-37639523D02*
X67569580Y-37591904D01*
X67569580Y-37591904D02*
X67474342Y-37544285D01*
X67474342Y-37544285D02*
X67236247Y-37544285D01*
X67236247Y-37544285D02*
X67141009Y-37591904D01*
X67141009Y-37591904D02*
X67093390Y-37639523D01*
X67093390Y-37639523D02*
X67045771Y-37734761D01*
X67045771Y-37734761D02*
X67045771Y-37925237D01*
X67045771Y-37925237D02*
X67093390Y-38020475D01*
X67093390Y-38020475D02*
X67141009Y-38068094D01*
X67141009Y-38068094D02*
X67236247Y-38115713D01*
X52038628Y-32056190D02*
X52514819Y-32056190D01*
X51514819Y-32389523D02*
X52038628Y-32056190D01*
X52038628Y-32056190D02*
X51514819Y-31722857D01*
X52514819Y-30865714D02*
X52514819Y-31437142D01*
X52514819Y-31151428D02*
X51514819Y-31151428D01*
X51514819Y-31151428D02*
X51657676Y-31246666D01*
X51657676Y-31246666D02*
X51752914Y-31341904D01*
X51752914Y-31341904D02*
X51800533Y-31437142D01*
X97669580Y-30572857D02*
X97717200Y-30620476D01*
X97717200Y-30620476D02*
X97764819Y-30763333D01*
X97764819Y-30763333D02*
X97764819Y-30858571D01*
X97764819Y-30858571D02*
X97717200Y-31001428D01*
X97717200Y-31001428D02*
X97621961Y-31096666D01*
X97621961Y-31096666D02*
X97526723Y-31144285D01*
X97526723Y-31144285D02*
X97336247Y-31191904D01*
X97336247Y-31191904D02*
X97193390Y-31191904D01*
X97193390Y-31191904D02*
X97002914Y-31144285D01*
X97002914Y-31144285D02*
X96907676Y-31096666D01*
X96907676Y-31096666D02*
X96812438Y-31001428D01*
X96812438Y-31001428D02*
X96764819Y-30858571D01*
X96764819Y-30858571D02*
X96764819Y-30763333D01*
X96764819Y-30763333D02*
X96812438Y-30620476D01*
X96812438Y-30620476D02*
X96860057Y-30572857D01*
X96860057Y-30191904D02*
X96812438Y-30144285D01*
X96812438Y-30144285D02*
X96764819Y-30049047D01*
X96764819Y-30049047D02*
X96764819Y-29810952D01*
X96764819Y-29810952D02*
X96812438Y-29715714D01*
X96812438Y-29715714D02*
X96860057Y-29668095D01*
X96860057Y-29668095D02*
X96955295Y-29620476D01*
X96955295Y-29620476D02*
X97050533Y-29620476D01*
X97050533Y-29620476D02*
X97193390Y-29668095D01*
X97193390Y-29668095D02*
X97764819Y-30239523D01*
X97764819Y-30239523D02*
X97764819Y-29620476D01*
X97764819Y-28668095D02*
X97764819Y-29239523D01*
X97764819Y-28953809D02*
X96764819Y-28953809D01*
X96764819Y-28953809D02*
X96907676Y-29049047D01*
X96907676Y-29049047D02*
X97002914Y-29144285D01*
X97002914Y-29144285D02*
X97050533Y-29239523D01*
X67943333Y-31384819D02*
X67467143Y-31384819D01*
X67467143Y-31384819D02*
X67467143Y-30384819D01*
X68800476Y-31384819D02*
X68229048Y-31384819D01*
X68514762Y-31384819D02*
X68514762Y-30384819D01*
X68514762Y-30384819D02*
X68419524Y-30527676D01*
X68419524Y-30527676D02*
X68324286Y-30622914D01*
X68324286Y-30622914D02*
X68229048Y-30670533D01*
X61243333Y-34689580D02*
X61195714Y-34737200D01*
X61195714Y-34737200D02*
X61052857Y-34784819D01*
X61052857Y-34784819D02*
X60957619Y-34784819D01*
X60957619Y-34784819D02*
X60814762Y-34737200D01*
X60814762Y-34737200D02*
X60719524Y-34641961D01*
X60719524Y-34641961D02*
X60671905Y-34546723D01*
X60671905Y-34546723D02*
X60624286Y-34356247D01*
X60624286Y-34356247D02*
X60624286Y-34213390D01*
X60624286Y-34213390D02*
X60671905Y-34022914D01*
X60671905Y-34022914D02*
X60719524Y-33927676D01*
X60719524Y-33927676D02*
X60814762Y-33832438D01*
X60814762Y-33832438D02*
X60957619Y-33784819D01*
X60957619Y-33784819D02*
X61052857Y-33784819D01*
X61052857Y-33784819D02*
X61195714Y-33832438D01*
X61195714Y-33832438D02*
X61243333Y-33880057D01*
X61576667Y-33784819D02*
X62195714Y-33784819D01*
X62195714Y-33784819D02*
X61862381Y-34165771D01*
X61862381Y-34165771D02*
X62005238Y-34165771D01*
X62005238Y-34165771D02*
X62100476Y-34213390D01*
X62100476Y-34213390D02*
X62148095Y-34261009D01*
X62148095Y-34261009D02*
X62195714Y-34356247D01*
X62195714Y-34356247D02*
X62195714Y-34594342D01*
X62195714Y-34594342D02*
X62148095Y-34689580D01*
X62148095Y-34689580D02*
X62100476Y-34737200D01*
X62100476Y-34737200D02*
X62005238Y-34784819D01*
X62005238Y-34784819D02*
X61719524Y-34784819D01*
X61719524Y-34784819D02*
X61624286Y-34737200D01*
X61624286Y-34737200D02*
X61576667Y-34689580D01*
X87367142Y-50769580D02*
X87319523Y-50817200D01*
X87319523Y-50817200D02*
X87176666Y-50864819D01*
X87176666Y-50864819D02*
X87081428Y-50864819D01*
X87081428Y-50864819D02*
X86938571Y-50817200D01*
X86938571Y-50817200D02*
X86843333Y-50721961D01*
X86843333Y-50721961D02*
X86795714Y-50626723D01*
X86795714Y-50626723D02*
X86748095Y-50436247D01*
X86748095Y-50436247D02*
X86748095Y-50293390D01*
X86748095Y-50293390D02*
X86795714Y-50102914D01*
X86795714Y-50102914D02*
X86843333Y-50007676D01*
X86843333Y-50007676D02*
X86938571Y-49912438D01*
X86938571Y-49912438D02*
X87081428Y-49864819D01*
X87081428Y-49864819D02*
X87176666Y-49864819D01*
X87176666Y-49864819D02*
X87319523Y-49912438D01*
X87319523Y-49912438D02*
X87367142Y-49960057D01*
X88319523Y-50864819D02*
X87748095Y-50864819D01*
X88033809Y-50864819D02*
X88033809Y-49864819D01*
X88033809Y-49864819D02*
X87938571Y-50007676D01*
X87938571Y-50007676D02*
X87843333Y-50102914D01*
X87843333Y-50102914D02*
X87748095Y-50150533D01*
X89176666Y-50198152D02*
X89176666Y-50864819D01*
X88938571Y-49817200D02*
X88700476Y-50531485D01*
X88700476Y-50531485D02*
X89319523Y-50531485D01*
X99871905Y-35684819D02*
X99871905Y-34684819D01*
X99871905Y-34684819D02*
X100110000Y-34684819D01*
X100110000Y-34684819D02*
X100252857Y-34732438D01*
X100252857Y-34732438D02*
X100348095Y-34827676D01*
X100348095Y-34827676D02*
X100395714Y-34922914D01*
X100395714Y-34922914D02*
X100443333Y-35113390D01*
X100443333Y-35113390D02*
X100443333Y-35256247D01*
X100443333Y-35256247D02*
X100395714Y-35446723D01*
X100395714Y-35446723D02*
X100348095Y-35541961D01*
X100348095Y-35541961D02*
X100252857Y-35637200D01*
X100252857Y-35637200D02*
X100110000Y-35684819D01*
X100110000Y-35684819D02*
X99871905Y-35684819D01*
X100776667Y-34684819D02*
X101395714Y-34684819D01*
X101395714Y-34684819D02*
X101062381Y-35065771D01*
X101062381Y-35065771D02*
X101205238Y-35065771D01*
X101205238Y-35065771D02*
X101300476Y-35113390D01*
X101300476Y-35113390D02*
X101348095Y-35161009D01*
X101348095Y-35161009D02*
X101395714Y-35256247D01*
X101395714Y-35256247D02*
X101395714Y-35494342D01*
X101395714Y-35494342D02*
X101348095Y-35589580D01*
X101348095Y-35589580D02*
X101300476Y-35637200D01*
X101300476Y-35637200D02*
X101205238Y-35684819D01*
X101205238Y-35684819D02*
X100919524Y-35684819D01*
X100919524Y-35684819D02*
X100824286Y-35637200D01*
X100824286Y-35637200D02*
X100776667Y-35589580D01*
X62043333Y-24584819D02*
X61710000Y-24108628D01*
X61471905Y-24584819D02*
X61471905Y-23584819D01*
X61471905Y-23584819D02*
X61852857Y-23584819D01*
X61852857Y-23584819D02*
X61948095Y-23632438D01*
X61948095Y-23632438D02*
X61995714Y-23680057D01*
X61995714Y-23680057D02*
X62043333Y-23775295D01*
X62043333Y-23775295D02*
X62043333Y-23918152D01*
X62043333Y-23918152D02*
X61995714Y-24013390D01*
X61995714Y-24013390D02*
X61948095Y-24061009D01*
X61948095Y-24061009D02*
X61852857Y-24108628D01*
X61852857Y-24108628D02*
X61471905Y-24108628D01*
X62995714Y-24584819D02*
X62424286Y-24584819D01*
X62710000Y-24584819D02*
X62710000Y-23584819D01*
X62710000Y-23584819D02*
X62614762Y-23727676D01*
X62614762Y-23727676D02*
X62519524Y-23822914D01*
X62519524Y-23822914D02*
X62424286Y-23870533D01*
X83564819Y-33396666D02*
X83564819Y-33872856D01*
X83564819Y-33872856D02*
X82564819Y-33872856D01*
X82564819Y-33158570D02*
X82564819Y-32539523D01*
X82564819Y-32539523D02*
X82945771Y-32872856D01*
X82945771Y-32872856D02*
X82945771Y-32729999D01*
X82945771Y-32729999D02*
X82993390Y-32634761D01*
X82993390Y-32634761D02*
X83041009Y-32587142D01*
X83041009Y-32587142D02*
X83136247Y-32539523D01*
X83136247Y-32539523D02*
X83374342Y-32539523D01*
X83374342Y-32539523D02*
X83469580Y-32587142D01*
X83469580Y-32587142D02*
X83517200Y-32634761D01*
X83517200Y-32634761D02*
X83564819Y-32729999D01*
X83564819Y-32729999D02*
X83564819Y-33015713D01*
X83564819Y-33015713D02*
X83517200Y-33110951D01*
X83517200Y-33110951D02*
X83469580Y-33158570D01*
X59414761Y-26680057D02*
X59319523Y-26632438D01*
X59319523Y-26632438D02*
X59224285Y-26537200D01*
X59224285Y-26537200D02*
X59081428Y-26394342D01*
X59081428Y-26394342D02*
X58986190Y-26346723D01*
X58986190Y-26346723D02*
X58890952Y-26346723D01*
X58938571Y-26584819D02*
X58843333Y-26537200D01*
X58843333Y-26537200D02*
X58748095Y-26441961D01*
X58748095Y-26441961D02*
X58700476Y-26251485D01*
X58700476Y-26251485D02*
X58700476Y-25918152D01*
X58700476Y-25918152D02*
X58748095Y-25727676D01*
X58748095Y-25727676D02*
X58843333Y-25632438D01*
X58843333Y-25632438D02*
X58938571Y-25584819D01*
X58938571Y-25584819D02*
X59129047Y-25584819D01*
X59129047Y-25584819D02*
X59224285Y-25632438D01*
X59224285Y-25632438D02*
X59319523Y-25727676D01*
X59319523Y-25727676D02*
X59367142Y-25918152D01*
X59367142Y-25918152D02*
X59367142Y-26251485D01*
X59367142Y-26251485D02*
X59319523Y-26441961D01*
X59319523Y-26441961D02*
X59224285Y-26537200D01*
X59224285Y-26537200D02*
X59129047Y-26584819D01*
X59129047Y-26584819D02*
X58938571Y-26584819D01*
X60319523Y-26584819D02*
X59748095Y-26584819D01*
X60033809Y-26584819D02*
X60033809Y-25584819D01*
X60033809Y-25584819D02*
X59938571Y-25727676D01*
X59938571Y-25727676D02*
X59843333Y-25822914D01*
X59843333Y-25822914D02*
X59748095Y-25870533D01*
X86367142Y-34289580D02*
X86319523Y-34337200D01*
X86319523Y-34337200D02*
X86176666Y-34384819D01*
X86176666Y-34384819D02*
X86081428Y-34384819D01*
X86081428Y-34384819D02*
X85938571Y-34337200D01*
X85938571Y-34337200D02*
X85843333Y-34241961D01*
X85843333Y-34241961D02*
X85795714Y-34146723D01*
X85795714Y-34146723D02*
X85748095Y-33956247D01*
X85748095Y-33956247D02*
X85748095Y-33813390D01*
X85748095Y-33813390D02*
X85795714Y-33622914D01*
X85795714Y-33622914D02*
X85843333Y-33527676D01*
X85843333Y-33527676D02*
X85938571Y-33432438D01*
X85938571Y-33432438D02*
X86081428Y-33384819D01*
X86081428Y-33384819D02*
X86176666Y-33384819D01*
X86176666Y-33384819D02*
X86319523Y-33432438D01*
X86319523Y-33432438D02*
X86367142Y-33480057D01*
X87319523Y-34384819D02*
X86748095Y-34384819D01*
X87033809Y-34384819D02*
X87033809Y-33384819D01*
X87033809Y-33384819D02*
X86938571Y-33527676D01*
X86938571Y-33527676D02*
X86843333Y-33622914D01*
X86843333Y-33622914D02*
X86748095Y-33670533D01*
X87795714Y-34384819D02*
X87986190Y-34384819D01*
X87986190Y-34384819D02*
X88081428Y-34337200D01*
X88081428Y-34337200D02*
X88129047Y-34289580D01*
X88129047Y-34289580D02*
X88224285Y-34146723D01*
X88224285Y-34146723D02*
X88271904Y-33956247D01*
X88271904Y-33956247D02*
X88271904Y-33575295D01*
X88271904Y-33575295D02*
X88224285Y-33480057D01*
X88224285Y-33480057D02*
X88176666Y-33432438D01*
X88176666Y-33432438D02*
X88081428Y-33384819D01*
X88081428Y-33384819D02*
X87890952Y-33384819D01*
X87890952Y-33384819D02*
X87795714Y-33432438D01*
X87795714Y-33432438D02*
X87748095Y-33480057D01*
X87748095Y-33480057D02*
X87700476Y-33575295D01*
X87700476Y-33575295D02*
X87700476Y-33813390D01*
X87700476Y-33813390D02*
X87748095Y-33908628D01*
X87748095Y-33908628D02*
X87795714Y-33956247D01*
X87795714Y-33956247D02*
X87890952Y-34003866D01*
X87890952Y-34003866D02*
X88081428Y-34003866D01*
X88081428Y-34003866D02*
X88176666Y-33956247D01*
X88176666Y-33956247D02*
X88224285Y-33908628D01*
X88224285Y-33908628D02*
X88271904Y-33813390D01*
X74014761Y-28280057D02*
X73919523Y-28232438D01*
X73919523Y-28232438D02*
X73824285Y-28137200D01*
X73824285Y-28137200D02*
X73681428Y-27994342D01*
X73681428Y-27994342D02*
X73586190Y-27946723D01*
X73586190Y-27946723D02*
X73490952Y-27946723D01*
X73538571Y-28184819D02*
X73443333Y-28137200D01*
X73443333Y-28137200D02*
X73348095Y-28041961D01*
X73348095Y-28041961D02*
X73300476Y-27851485D01*
X73300476Y-27851485D02*
X73300476Y-27518152D01*
X73300476Y-27518152D02*
X73348095Y-27327676D01*
X73348095Y-27327676D02*
X73443333Y-27232438D01*
X73443333Y-27232438D02*
X73538571Y-27184819D01*
X73538571Y-27184819D02*
X73729047Y-27184819D01*
X73729047Y-27184819D02*
X73824285Y-27232438D01*
X73824285Y-27232438D02*
X73919523Y-27327676D01*
X73919523Y-27327676D02*
X73967142Y-27518152D01*
X73967142Y-27518152D02*
X73967142Y-27851485D01*
X73967142Y-27851485D02*
X73919523Y-28041961D01*
X73919523Y-28041961D02*
X73824285Y-28137200D01*
X73824285Y-28137200D02*
X73729047Y-28184819D01*
X73729047Y-28184819D02*
X73538571Y-28184819D01*
X74300476Y-27184819D02*
X74919523Y-27184819D01*
X74919523Y-27184819D02*
X74586190Y-27565771D01*
X74586190Y-27565771D02*
X74729047Y-27565771D01*
X74729047Y-27565771D02*
X74824285Y-27613390D01*
X74824285Y-27613390D02*
X74871904Y-27661009D01*
X74871904Y-27661009D02*
X74919523Y-27756247D01*
X74919523Y-27756247D02*
X74919523Y-27994342D01*
X74919523Y-27994342D02*
X74871904Y-28089580D01*
X74871904Y-28089580D02*
X74824285Y-28137200D01*
X74824285Y-28137200D02*
X74729047Y-28184819D01*
X74729047Y-28184819D02*
X74443333Y-28184819D01*
X74443333Y-28184819D02*
X74348095Y-28137200D01*
X74348095Y-28137200D02*
X74300476Y-28089580D01*
X93344583Y-34326604D02*
X93820773Y-34326604D01*
X93249345Y-34612319D02*
X93582678Y-33612319D01*
X93582678Y-33612319D02*
X93916011Y-34612319D01*
X94249345Y-34088509D02*
X94582678Y-34088509D01*
X94725535Y-34612319D02*
X94249345Y-34612319D01*
X94249345Y-34612319D02*
X94249345Y-33612319D01*
X94249345Y-33612319D02*
X94725535Y-33612319D01*
X95677916Y-34612319D02*
X95106488Y-34612319D01*
X95392202Y-34612319D02*
X95392202Y-33612319D01*
X95392202Y-33612319D02*
X95296964Y-33755176D01*
X95296964Y-33755176D02*
X95201726Y-33850414D01*
X95201726Y-33850414D02*
X95106488Y-33898033D01*
X101676666Y-31239819D02*
X101676666Y-31954104D01*
X101676666Y-31954104D02*
X101629047Y-32096961D01*
X101629047Y-32096961D02*
X101533809Y-32192200D01*
X101533809Y-32192200D02*
X101390952Y-32239819D01*
X101390952Y-32239819D02*
X101295714Y-32239819D01*
X102057619Y-31239819D02*
X102676666Y-31239819D01*
X102676666Y-31239819D02*
X102343333Y-31620771D01*
X102343333Y-31620771D02*
X102486190Y-31620771D01*
X102486190Y-31620771D02*
X102581428Y-31668390D01*
X102581428Y-31668390D02*
X102629047Y-31716009D01*
X102629047Y-31716009D02*
X102676666Y-31811247D01*
X102676666Y-31811247D02*
X102676666Y-32049342D01*
X102676666Y-32049342D02*
X102629047Y-32144580D01*
X102629047Y-32144580D02*
X102581428Y-32192200D01*
X102581428Y-32192200D02*
X102486190Y-32239819D01*
X102486190Y-32239819D02*
X102200476Y-32239819D01*
X102200476Y-32239819D02*
X102105238Y-32192200D01*
X102105238Y-32192200D02*
X102057619Y-32144580D01*
X86643333Y-24684819D02*
X86167143Y-24684819D01*
X86167143Y-24684819D02*
X86167143Y-23684819D01*
X87405238Y-24018152D02*
X87405238Y-24684819D01*
X87167143Y-23637200D02*
X86929048Y-24351485D01*
X86929048Y-24351485D02*
X87548095Y-24351485D01*
X65443333Y-24684819D02*
X65110000Y-24208628D01*
X64871905Y-24684819D02*
X64871905Y-23684819D01*
X64871905Y-23684819D02*
X65252857Y-23684819D01*
X65252857Y-23684819D02*
X65348095Y-23732438D01*
X65348095Y-23732438D02*
X65395714Y-23780057D01*
X65395714Y-23780057D02*
X65443333Y-23875295D01*
X65443333Y-23875295D02*
X65443333Y-24018152D01*
X65443333Y-24018152D02*
X65395714Y-24113390D01*
X65395714Y-24113390D02*
X65348095Y-24161009D01*
X65348095Y-24161009D02*
X65252857Y-24208628D01*
X65252857Y-24208628D02*
X64871905Y-24208628D01*
X66348095Y-23684819D02*
X65871905Y-23684819D01*
X65871905Y-23684819D02*
X65824286Y-24161009D01*
X65824286Y-24161009D02*
X65871905Y-24113390D01*
X65871905Y-24113390D02*
X65967143Y-24065771D01*
X65967143Y-24065771D02*
X66205238Y-24065771D01*
X66205238Y-24065771D02*
X66300476Y-24113390D01*
X66300476Y-24113390D02*
X66348095Y-24161009D01*
X66348095Y-24161009D02*
X66395714Y-24256247D01*
X66395714Y-24256247D02*
X66395714Y-24494342D01*
X66395714Y-24494342D02*
X66348095Y-24589580D01*
X66348095Y-24589580D02*
X66300476Y-24637200D01*
X66300476Y-24637200D02*
X66205238Y-24684819D01*
X66205238Y-24684819D02*
X65967143Y-24684819D01*
X65967143Y-24684819D02*
X65871905Y-24637200D01*
X65871905Y-24637200D02*
X65824286Y-24589580D01*
X85827142Y-38449580D02*
X85779523Y-38497200D01*
X85779523Y-38497200D02*
X85636666Y-38544819D01*
X85636666Y-38544819D02*
X85541428Y-38544819D01*
X85541428Y-38544819D02*
X85398571Y-38497200D01*
X85398571Y-38497200D02*
X85303333Y-38401961D01*
X85303333Y-38401961D02*
X85255714Y-38306723D01*
X85255714Y-38306723D02*
X85208095Y-38116247D01*
X85208095Y-38116247D02*
X85208095Y-37973390D01*
X85208095Y-37973390D02*
X85255714Y-37782914D01*
X85255714Y-37782914D02*
X85303333Y-37687676D01*
X85303333Y-37687676D02*
X85398571Y-37592438D01*
X85398571Y-37592438D02*
X85541428Y-37544819D01*
X85541428Y-37544819D02*
X85636666Y-37544819D01*
X85636666Y-37544819D02*
X85779523Y-37592438D01*
X85779523Y-37592438D02*
X85827142Y-37640057D01*
X86208095Y-37640057D02*
X86255714Y-37592438D01*
X86255714Y-37592438D02*
X86350952Y-37544819D01*
X86350952Y-37544819D02*
X86589047Y-37544819D01*
X86589047Y-37544819D02*
X86684285Y-37592438D01*
X86684285Y-37592438D02*
X86731904Y-37640057D01*
X86731904Y-37640057D02*
X86779523Y-37735295D01*
X86779523Y-37735295D02*
X86779523Y-37830533D01*
X86779523Y-37830533D02*
X86731904Y-37973390D01*
X86731904Y-37973390D02*
X86160476Y-38544819D01*
X86160476Y-38544819D02*
X86779523Y-38544819D01*
X87398571Y-37544819D02*
X87493809Y-37544819D01*
X87493809Y-37544819D02*
X87589047Y-37592438D01*
X87589047Y-37592438D02*
X87636666Y-37640057D01*
X87636666Y-37640057D02*
X87684285Y-37735295D01*
X87684285Y-37735295D02*
X87731904Y-37925771D01*
X87731904Y-37925771D02*
X87731904Y-38163866D01*
X87731904Y-38163866D02*
X87684285Y-38354342D01*
X87684285Y-38354342D02*
X87636666Y-38449580D01*
X87636666Y-38449580D02*
X87589047Y-38497200D01*
X87589047Y-38497200D02*
X87493809Y-38544819D01*
X87493809Y-38544819D02*
X87398571Y-38544819D01*
X87398571Y-38544819D02*
X87303333Y-38497200D01*
X87303333Y-38497200D02*
X87255714Y-38449580D01*
X87255714Y-38449580D02*
X87208095Y-38354342D01*
X87208095Y-38354342D02*
X87160476Y-38163866D01*
X87160476Y-38163866D02*
X87160476Y-37925771D01*
X87160476Y-37925771D02*
X87208095Y-37735295D01*
X87208095Y-37735295D02*
X87255714Y-37640057D01*
X87255714Y-37640057D02*
X87303333Y-37592438D01*
X87303333Y-37592438D02*
X87398571Y-37544819D01*
X57769580Y-29396666D02*
X57817200Y-29444285D01*
X57817200Y-29444285D02*
X57864819Y-29587142D01*
X57864819Y-29587142D02*
X57864819Y-29682380D01*
X57864819Y-29682380D02*
X57817200Y-29825237D01*
X57817200Y-29825237D02*
X57721961Y-29920475D01*
X57721961Y-29920475D02*
X57626723Y-29968094D01*
X57626723Y-29968094D02*
X57436247Y-30015713D01*
X57436247Y-30015713D02*
X57293390Y-30015713D01*
X57293390Y-30015713D02*
X57102914Y-29968094D01*
X57102914Y-29968094D02*
X57007676Y-29920475D01*
X57007676Y-29920475D02*
X56912438Y-29825237D01*
X56912438Y-29825237D02*
X56864819Y-29682380D01*
X56864819Y-29682380D02*
X56864819Y-29587142D01*
X56864819Y-29587142D02*
X56912438Y-29444285D01*
X56912438Y-29444285D02*
X56960057Y-29396666D01*
X56960057Y-29015713D02*
X56912438Y-28968094D01*
X56912438Y-28968094D02*
X56864819Y-28872856D01*
X56864819Y-28872856D02*
X56864819Y-28634761D01*
X56864819Y-28634761D02*
X56912438Y-28539523D01*
X56912438Y-28539523D02*
X56960057Y-28491904D01*
X56960057Y-28491904D02*
X57055295Y-28444285D01*
X57055295Y-28444285D02*
X57150533Y-28444285D01*
X57150533Y-28444285D02*
X57293390Y-28491904D01*
X57293390Y-28491904D02*
X57864819Y-29063332D01*
X57864819Y-29063332D02*
X57864819Y-28444285D01*
X84373333Y-50804819D02*
X84040000Y-50328628D01*
X83801905Y-50804819D02*
X83801905Y-49804819D01*
X83801905Y-49804819D02*
X84182857Y-49804819D01*
X84182857Y-49804819D02*
X84278095Y-49852438D01*
X84278095Y-49852438D02*
X84325714Y-49900057D01*
X84325714Y-49900057D02*
X84373333Y-49995295D01*
X84373333Y-49995295D02*
X84373333Y-50138152D01*
X84373333Y-50138152D02*
X84325714Y-50233390D01*
X84325714Y-50233390D02*
X84278095Y-50281009D01*
X84278095Y-50281009D02*
X84182857Y-50328628D01*
X84182857Y-50328628D02*
X83801905Y-50328628D01*
X84944762Y-50233390D02*
X84849524Y-50185771D01*
X84849524Y-50185771D02*
X84801905Y-50138152D01*
X84801905Y-50138152D02*
X84754286Y-50042914D01*
X84754286Y-50042914D02*
X84754286Y-49995295D01*
X84754286Y-49995295D02*
X84801905Y-49900057D01*
X84801905Y-49900057D02*
X84849524Y-49852438D01*
X84849524Y-49852438D02*
X84944762Y-49804819D01*
X84944762Y-49804819D02*
X85135238Y-49804819D01*
X85135238Y-49804819D02*
X85230476Y-49852438D01*
X85230476Y-49852438D02*
X85278095Y-49900057D01*
X85278095Y-49900057D02*
X85325714Y-49995295D01*
X85325714Y-49995295D02*
X85325714Y-50042914D01*
X85325714Y-50042914D02*
X85278095Y-50138152D01*
X85278095Y-50138152D02*
X85230476Y-50185771D01*
X85230476Y-50185771D02*
X85135238Y-50233390D01*
X85135238Y-50233390D02*
X84944762Y-50233390D01*
X84944762Y-50233390D02*
X84849524Y-50281009D01*
X84849524Y-50281009D02*
X84801905Y-50328628D01*
X84801905Y-50328628D02*
X84754286Y-50423866D01*
X84754286Y-50423866D02*
X84754286Y-50614342D01*
X84754286Y-50614342D02*
X84801905Y-50709580D01*
X84801905Y-50709580D02*
X84849524Y-50757200D01*
X84849524Y-50757200D02*
X84944762Y-50804819D01*
X84944762Y-50804819D02*
X85135238Y-50804819D01*
X85135238Y-50804819D02*
X85230476Y-50757200D01*
X85230476Y-50757200D02*
X85278095Y-50709580D01*
X85278095Y-50709580D02*
X85325714Y-50614342D01*
X85325714Y-50614342D02*
X85325714Y-50423866D01*
X85325714Y-50423866D02*
X85278095Y-50328628D01*
X85278095Y-50328628D02*
X85230476Y-50281009D01*
X85230476Y-50281009D02*
X85135238Y-50233390D01*
X65314761Y-38580057D02*
X65219523Y-38532438D01*
X65219523Y-38532438D02*
X65124285Y-38437200D01*
X65124285Y-38437200D02*
X64981428Y-38294342D01*
X64981428Y-38294342D02*
X64886190Y-38246723D01*
X64886190Y-38246723D02*
X64790952Y-38246723D01*
X64838571Y-38484819D02*
X64743333Y-38437200D01*
X64743333Y-38437200D02*
X64648095Y-38341961D01*
X64648095Y-38341961D02*
X64600476Y-38151485D01*
X64600476Y-38151485D02*
X64600476Y-37818152D01*
X64600476Y-37818152D02*
X64648095Y-37627676D01*
X64648095Y-37627676D02*
X64743333Y-37532438D01*
X64743333Y-37532438D02*
X64838571Y-37484819D01*
X64838571Y-37484819D02*
X65029047Y-37484819D01*
X65029047Y-37484819D02*
X65124285Y-37532438D01*
X65124285Y-37532438D02*
X65219523Y-37627676D01*
X65219523Y-37627676D02*
X65267142Y-37818152D01*
X65267142Y-37818152D02*
X65267142Y-38151485D01*
X65267142Y-38151485D02*
X65219523Y-38341961D01*
X65219523Y-38341961D02*
X65124285Y-38437200D01*
X65124285Y-38437200D02*
X65029047Y-38484819D01*
X65029047Y-38484819D02*
X64838571Y-38484819D01*
X65648095Y-37580057D02*
X65695714Y-37532438D01*
X65695714Y-37532438D02*
X65790952Y-37484819D01*
X65790952Y-37484819D02*
X66029047Y-37484819D01*
X66029047Y-37484819D02*
X66124285Y-37532438D01*
X66124285Y-37532438D02*
X66171904Y-37580057D01*
X66171904Y-37580057D02*
X66219523Y-37675295D01*
X66219523Y-37675295D02*
X66219523Y-37770533D01*
X66219523Y-37770533D02*
X66171904Y-37913390D01*
X66171904Y-37913390D02*
X65600476Y-38484819D01*
X65600476Y-38484819D02*
X66219523Y-38484819D01*
X65243333Y-32984819D02*
X64910000Y-32508628D01*
X64671905Y-32984819D02*
X64671905Y-31984819D01*
X64671905Y-31984819D02*
X65052857Y-31984819D01*
X65052857Y-31984819D02*
X65148095Y-32032438D01*
X65148095Y-32032438D02*
X65195714Y-32080057D01*
X65195714Y-32080057D02*
X65243333Y-32175295D01*
X65243333Y-32175295D02*
X65243333Y-32318152D01*
X65243333Y-32318152D02*
X65195714Y-32413390D01*
X65195714Y-32413390D02*
X65148095Y-32461009D01*
X65148095Y-32461009D02*
X65052857Y-32508628D01*
X65052857Y-32508628D02*
X64671905Y-32508628D01*
X65576667Y-31984819D02*
X66195714Y-31984819D01*
X66195714Y-31984819D02*
X65862381Y-32365771D01*
X65862381Y-32365771D02*
X66005238Y-32365771D01*
X66005238Y-32365771D02*
X66100476Y-32413390D01*
X66100476Y-32413390D02*
X66148095Y-32461009D01*
X66148095Y-32461009D02*
X66195714Y-32556247D01*
X66195714Y-32556247D02*
X66195714Y-32794342D01*
X66195714Y-32794342D02*
X66148095Y-32889580D01*
X66148095Y-32889580D02*
X66100476Y-32937200D01*
X66100476Y-32937200D02*
X66005238Y-32984819D01*
X66005238Y-32984819D02*
X65719524Y-32984819D01*
X65719524Y-32984819D02*
X65624286Y-32937200D01*
X65624286Y-32937200D02*
X65576667Y-32889580D01*
X89867142Y-24709580D02*
X89819523Y-24757200D01*
X89819523Y-24757200D02*
X89676666Y-24804819D01*
X89676666Y-24804819D02*
X89581428Y-24804819D01*
X89581428Y-24804819D02*
X89438571Y-24757200D01*
X89438571Y-24757200D02*
X89343333Y-24661961D01*
X89343333Y-24661961D02*
X89295714Y-24566723D01*
X89295714Y-24566723D02*
X89248095Y-24376247D01*
X89248095Y-24376247D02*
X89248095Y-24233390D01*
X89248095Y-24233390D02*
X89295714Y-24042914D01*
X89295714Y-24042914D02*
X89343333Y-23947676D01*
X89343333Y-23947676D02*
X89438571Y-23852438D01*
X89438571Y-23852438D02*
X89581428Y-23804819D01*
X89581428Y-23804819D02*
X89676666Y-23804819D01*
X89676666Y-23804819D02*
X89819523Y-23852438D01*
X89819523Y-23852438D02*
X89867142Y-23900057D01*
X90819523Y-24804819D02*
X90248095Y-24804819D01*
X90533809Y-24804819D02*
X90533809Y-23804819D01*
X90533809Y-23804819D02*
X90438571Y-23947676D01*
X90438571Y-23947676D02*
X90343333Y-24042914D01*
X90343333Y-24042914D02*
X90248095Y-24090533D01*
X91200476Y-23900057D02*
X91248095Y-23852438D01*
X91248095Y-23852438D02*
X91343333Y-23804819D01*
X91343333Y-23804819D02*
X91581428Y-23804819D01*
X91581428Y-23804819D02*
X91676666Y-23852438D01*
X91676666Y-23852438D02*
X91724285Y-23900057D01*
X91724285Y-23900057D02*
X91771904Y-23995295D01*
X91771904Y-23995295D02*
X91771904Y-24090533D01*
X91771904Y-24090533D02*
X91724285Y-24233390D01*
X91724285Y-24233390D02*
X91152857Y-24804819D01*
X91152857Y-24804819D02*
X91771904Y-24804819D01*
X62343333Y-40184819D02*
X62010000Y-39708628D01*
X61771905Y-40184819D02*
X61771905Y-39184819D01*
X61771905Y-39184819D02*
X62152857Y-39184819D01*
X62152857Y-39184819D02*
X62248095Y-39232438D01*
X62248095Y-39232438D02*
X62295714Y-39280057D01*
X62295714Y-39280057D02*
X62343333Y-39375295D01*
X62343333Y-39375295D02*
X62343333Y-39518152D01*
X62343333Y-39518152D02*
X62295714Y-39613390D01*
X62295714Y-39613390D02*
X62248095Y-39661009D01*
X62248095Y-39661009D02*
X62152857Y-39708628D01*
X62152857Y-39708628D02*
X61771905Y-39708628D01*
X63200476Y-39518152D02*
X63200476Y-40184819D01*
X62962381Y-39137200D02*
X62724286Y-39851485D01*
X62724286Y-39851485D02*
X63343333Y-39851485D01*
X93876666Y-24086819D02*
X93876666Y-24801104D01*
X93876666Y-24801104D02*
X93829047Y-24943961D01*
X93829047Y-24943961D02*
X93733809Y-25039200D01*
X93733809Y-25039200D02*
X93590952Y-25086819D01*
X93590952Y-25086819D02*
X93495714Y-25086819D01*
X94305238Y-24182057D02*
X94352857Y-24134438D01*
X94352857Y-24134438D02*
X94448095Y-24086819D01*
X94448095Y-24086819D02*
X94686190Y-24086819D01*
X94686190Y-24086819D02*
X94781428Y-24134438D01*
X94781428Y-24134438D02*
X94829047Y-24182057D01*
X94829047Y-24182057D02*
X94876666Y-24277295D01*
X94876666Y-24277295D02*
X94876666Y-24372533D01*
X94876666Y-24372533D02*
X94829047Y-24515390D01*
X94829047Y-24515390D02*
X94257619Y-25086819D01*
X94257619Y-25086819D02*
X94876666Y-25086819D01*
X63243333Y-29889580D02*
X63195714Y-29937200D01*
X63195714Y-29937200D02*
X63052857Y-29984819D01*
X63052857Y-29984819D02*
X62957619Y-29984819D01*
X62957619Y-29984819D02*
X62814762Y-29937200D01*
X62814762Y-29937200D02*
X62719524Y-29841961D01*
X62719524Y-29841961D02*
X62671905Y-29746723D01*
X62671905Y-29746723D02*
X62624286Y-29556247D01*
X62624286Y-29556247D02*
X62624286Y-29413390D01*
X62624286Y-29413390D02*
X62671905Y-29222914D01*
X62671905Y-29222914D02*
X62719524Y-29127676D01*
X62719524Y-29127676D02*
X62814762Y-29032438D01*
X62814762Y-29032438D02*
X62957619Y-28984819D01*
X62957619Y-28984819D02*
X63052857Y-28984819D01*
X63052857Y-28984819D02*
X63195714Y-29032438D01*
X63195714Y-29032438D02*
X63243333Y-29080057D01*
X64100476Y-29318152D02*
X64100476Y-29984819D01*
X63862381Y-28937200D02*
X63624286Y-29651485D01*
X63624286Y-29651485D02*
X64243333Y-29651485D01*
X86267142Y-28589580D02*
X86219523Y-28637200D01*
X86219523Y-28637200D02*
X86076666Y-28684819D01*
X86076666Y-28684819D02*
X85981428Y-28684819D01*
X85981428Y-28684819D02*
X85838571Y-28637200D01*
X85838571Y-28637200D02*
X85743333Y-28541961D01*
X85743333Y-28541961D02*
X85695714Y-28446723D01*
X85695714Y-28446723D02*
X85648095Y-28256247D01*
X85648095Y-28256247D02*
X85648095Y-28113390D01*
X85648095Y-28113390D02*
X85695714Y-27922914D01*
X85695714Y-27922914D02*
X85743333Y-27827676D01*
X85743333Y-27827676D02*
X85838571Y-27732438D01*
X85838571Y-27732438D02*
X85981428Y-27684819D01*
X85981428Y-27684819D02*
X86076666Y-27684819D01*
X86076666Y-27684819D02*
X86219523Y-27732438D01*
X86219523Y-27732438D02*
X86267142Y-27780057D01*
X87219523Y-28684819D02*
X86648095Y-28684819D01*
X86933809Y-28684819D02*
X86933809Y-27684819D01*
X86933809Y-27684819D02*
X86838571Y-27827676D01*
X86838571Y-27827676D02*
X86743333Y-27922914D01*
X86743333Y-27922914D02*
X86648095Y-27970533D01*
X87790952Y-28113390D02*
X87695714Y-28065771D01*
X87695714Y-28065771D02*
X87648095Y-28018152D01*
X87648095Y-28018152D02*
X87600476Y-27922914D01*
X87600476Y-27922914D02*
X87600476Y-27875295D01*
X87600476Y-27875295D02*
X87648095Y-27780057D01*
X87648095Y-27780057D02*
X87695714Y-27732438D01*
X87695714Y-27732438D02*
X87790952Y-27684819D01*
X87790952Y-27684819D02*
X87981428Y-27684819D01*
X87981428Y-27684819D02*
X88076666Y-27732438D01*
X88076666Y-27732438D02*
X88124285Y-27780057D01*
X88124285Y-27780057D02*
X88171904Y-27875295D01*
X88171904Y-27875295D02*
X88171904Y-27922914D01*
X88171904Y-27922914D02*
X88124285Y-28018152D01*
X88124285Y-28018152D02*
X88076666Y-28065771D01*
X88076666Y-28065771D02*
X87981428Y-28113390D01*
X87981428Y-28113390D02*
X87790952Y-28113390D01*
X87790952Y-28113390D02*
X87695714Y-28161009D01*
X87695714Y-28161009D02*
X87648095Y-28208628D01*
X87648095Y-28208628D02*
X87600476Y-28303866D01*
X87600476Y-28303866D02*
X87600476Y-28494342D01*
X87600476Y-28494342D02*
X87648095Y-28589580D01*
X87648095Y-28589580D02*
X87695714Y-28637200D01*
X87695714Y-28637200D02*
X87790952Y-28684819D01*
X87790952Y-28684819D02*
X87981428Y-28684819D01*
X87981428Y-28684819D02*
X88076666Y-28637200D01*
X88076666Y-28637200D02*
X88124285Y-28589580D01*
X88124285Y-28589580D02*
X88171904Y-28494342D01*
X88171904Y-28494342D02*
X88171904Y-28303866D01*
X88171904Y-28303866D02*
X88124285Y-28208628D01*
X88124285Y-28208628D02*
X88076666Y-28161009D01*
X88076666Y-28161009D02*
X87981428Y-28113390D01*
X99569580Y-30622857D02*
X99617200Y-30670476D01*
X99617200Y-30670476D02*
X99664819Y-30813333D01*
X99664819Y-30813333D02*
X99664819Y-30908571D01*
X99664819Y-30908571D02*
X99617200Y-31051428D01*
X99617200Y-31051428D02*
X99521961Y-31146666D01*
X99521961Y-31146666D02*
X99426723Y-31194285D01*
X99426723Y-31194285D02*
X99236247Y-31241904D01*
X99236247Y-31241904D02*
X99093390Y-31241904D01*
X99093390Y-31241904D02*
X98902914Y-31194285D01*
X98902914Y-31194285D02*
X98807676Y-31146666D01*
X98807676Y-31146666D02*
X98712438Y-31051428D01*
X98712438Y-31051428D02*
X98664819Y-30908571D01*
X98664819Y-30908571D02*
X98664819Y-30813333D01*
X98664819Y-30813333D02*
X98712438Y-30670476D01*
X98712438Y-30670476D02*
X98760057Y-30622857D01*
X98760057Y-30241904D02*
X98712438Y-30194285D01*
X98712438Y-30194285D02*
X98664819Y-30099047D01*
X98664819Y-30099047D02*
X98664819Y-29860952D01*
X98664819Y-29860952D02*
X98712438Y-29765714D01*
X98712438Y-29765714D02*
X98760057Y-29718095D01*
X98760057Y-29718095D02*
X98855295Y-29670476D01*
X98855295Y-29670476D02*
X98950533Y-29670476D01*
X98950533Y-29670476D02*
X99093390Y-29718095D01*
X99093390Y-29718095D02*
X99664819Y-30289523D01*
X99664819Y-30289523D02*
X99664819Y-29670476D01*
X98760057Y-29289523D02*
X98712438Y-29241904D01*
X98712438Y-29241904D02*
X98664819Y-29146666D01*
X98664819Y-29146666D02*
X98664819Y-28908571D01*
X98664819Y-28908571D02*
X98712438Y-28813333D01*
X98712438Y-28813333D02*
X98760057Y-28765714D01*
X98760057Y-28765714D02*
X98855295Y-28718095D01*
X98855295Y-28718095D02*
X98950533Y-28718095D01*
X98950533Y-28718095D02*
X99093390Y-28765714D01*
X99093390Y-28765714D02*
X99664819Y-29337142D01*
X99664819Y-29337142D02*
X99664819Y-28718095D01*
X65271905Y-37384819D02*
X65271905Y-36384819D01*
X65271905Y-36384819D02*
X65510000Y-36384819D01*
X65510000Y-36384819D02*
X65652857Y-36432438D01*
X65652857Y-36432438D02*
X65748095Y-36527676D01*
X65748095Y-36527676D02*
X65795714Y-36622914D01*
X65795714Y-36622914D02*
X65843333Y-36813390D01*
X65843333Y-36813390D02*
X65843333Y-36956247D01*
X65843333Y-36956247D02*
X65795714Y-37146723D01*
X65795714Y-37146723D02*
X65748095Y-37241961D01*
X65748095Y-37241961D02*
X65652857Y-37337200D01*
X65652857Y-37337200D02*
X65510000Y-37384819D01*
X65510000Y-37384819D02*
X65271905Y-37384819D01*
X66795714Y-37384819D02*
X66224286Y-37384819D01*
X66510000Y-37384819D02*
X66510000Y-36384819D01*
X66510000Y-36384819D02*
X66414762Y-36527676D01*
X66414762Y-36527676D02*
X66319524Y-36622914D01*
X66319524Y-36622914D02*
X66224286Y-36670533D01*
X92779580Y-50292857D02*
X92827200Y-50340476D01*
X92827200Y-50340476D02*
X92874819Y-50483333D01*
X92874819Y-50483333D02*
X92874819Y-50578571D01*
X92874819Y-50578571D02*
X92827200Y-50721428D01*
X92827200Y-50721428D02*
X92731961Y-50816666D01*
X92731961Y-50816666D02*
X92636723Y-50864285D01*
X92636723Y-50864285D02*
X92446247Y-50911904D01*
X92446247Y-50911904D02*
X92303390Y-50911904D01*
X92303390Y-50911904D02*
X92112914Y-50864285D01*
X92112914Y-50864285D02*
X92017676Y-50816666D01*
X92017676Y-50816666D02*
X91922438Y-50721428D01*
X91922438Y-50721428D02*
X91874819Y-50578571D01*
X91874819Y-50578571D02*
X91874819Y-50483333D01*
X91874819Y-50483333D02*
X91922438Y-50340476D01*
X91922438Y-50340476D02*
X91970057Y-50292857D01*
X92874819Y-49340476D02*
X92874819Y-49911904D01*
X92874819Y-49626190D02*
X91874819Y-49626190D01*
X91874819Y-49626190D02*
X92017676Y-49721428D01*
X92017676Y-49721428D02*
X92112914Y-49816666D01*
X92112914Y-49816666D02*
X92160533Y-49911904D01*
X91874819Y-48483333D02*
X91874819Y-48673809D01*
X91874819Y-48673809D02*
X91922438Y-48769047D01*
X91922438Y-48769047D02*
X91970057Y-48816666D01*
X91970057Y-48816666D02*
X92112914Y-48911904D01*
X92112914Y-48911904D02*
X92303390Y-48959523D01*
X92303390Y-48959523D02*
X92684342Y-48959523D01*
X92684342Y-48959523D02*
X92779580Y-48911904D01*
X92779580Y-48911904D02*
X92827200Y-48864285D01*
X92827200Y-48864285D02*
X92874819Y-48769047D01*
X92874819Y-48769047D02*
X92874819Y-48578571D01*
X92874819Y-48578571D02*
X92827200Y-48483333D01*
X92827200Y-48483333D02*
X92779580Y-48435714D01*
X92779580Y-48435714D02*
X92684342Y-48388095D01*
X92684342Y-48388095D02*
X92446247Y-48388095D01*
X92446247Y-48388095D02*
X92351009Y-48435714D01*
X92351009Y-48435714D02*
X92303390Y-48483333D01*
X92303390Y-48483333D02*
X92255771Y-48578571D01*
X92255771Y-48578571D02*
X92255771Y-48769047D01*
X92255771Y-48769047D02*
X92303390Y-48864285D01*
X92303390Y-48864285D02*
X92351009Y-48911904D01*
X92351009Y-48911904D02*
X92446247Y-48959523D01*
X95864819Y-37866666D02*
X95388628Y-38199999D01*
X95864819Y-38438094D02*
X94864819Y-38438094D01*
X94864819Y-38438094D02*
X94864819Y-38057142D01*
X94864819Y-38057142D02*
X94912438Y-37961904D01*
X94912438Y-37961904D02*
X94960057Y-37914285D01*
X94960057Y-37914285D02*
X95055295Y-37866666D01*
X95055295Y-37866666D02*
X95198152Y-37866666D01*
X95198152Y-37866666D02*
X95293390Y-37914285D01*
X95293390Y-37914285D02*
X95341009Y-37961904D01*
X95341009Y-37961904D02*
X95388628Y-38057142D01*
X95388628Y-38057142D02*
X95388628Y-38438094D01*
X94864819Y-37533332D02*
X94864819Y-36866666D01*
X94864819Y-36866666D02*
X95864819Y-37295237D01*
X79743333Y-24789580D02*
X79695714Y-24837200D01*
X79695714Y-24837200D02*
X79552857Y-24884819D01*
X79552857Y-24884819D02*
X79457619Y-24884819D01*
X79457619Y-24884819D02*
X79314762Y-24837200D01*
X79314762Y-24837200D02*
X79219524Y-24741961D01*
X79219524Y-24741961D02*
X79171905Y-24646723D01*
X79171905Y-24646723D02*
X79124286Y-24456247D01*
X79124286Y-24456247D02*
X79124286Y-24313390D01*
X79124286Y-24313390D02*
X79171905Y-24122914D01*
X79171905Y-24122914D02*
X79219524Y-24027676D01*
X79219524Y-24027676D02*
X79314762Y-23932438D01*
X79314762Y-23932438D02*
X79457619Y-23884819D01*
X79457619Y-23884819D02*
X79552857Y-23884819D01*
X79552857Y-23884819D02*
X79695714Y-23932438D01*
X79695714Y-23932438D02*
X79743333Y-23980057D01*
X80219524Y-24884819D02*
X80410000Y-24884819D01*
X80410000Y-24884819D02*
X80505238Y-24837200D01*
X80505238Y-24837200D02*
X80552857Y-24789580D01*
X80552857Y-24789580D02*
X80648095Y-24646723D01*
X80648095Y-24646723D02*
X80695714Y-24456247D01*
X80695714Y-24456247D02*
X80695714Y-24075295D01*
X80695714Y-24075295D02*
X80648095Y-23980057D01*
X80648095Y-23980057D02*
X80600476Y-23932438D01*
X80600476Y-23932438D02*
X80505238Y-23884819D01*
X80505238Y-23884819D02*
X80314762Y-23884819D01*
X80314762Y-23884819D02*
X80219524Y-23932438D01*
X80219524Y-23932438D02*
X80171905Y-23980057D01*
X80171905Y-23980057D02*
X80124286Y-24075295D01*
X80124286Y-24075295D02*
X80124286Y-24313390D01*
X80124286Y-24313390D02*
X80171905Y-24408628D01*
X80171905Y-24408628D02*
X80219524Y-24456247D01*
X80219524Y-24456247D02*
X80314762Y-24503866D01*
X80314762Y-24503866D02*
X80505238Y-24503866D01*
X80505238Y-24503866D02*
X80600476Y-24456247D01*
X80600476Y-24456247D02*
X80648095Y-24408628D01*
X80648095Y-24408628D02*
X80695714Y-24313390D01*
X86367142Y-30389580D02*
X86319523Y-30437200D01*
X86319523Y-30437200D02*
X86176666Y-30484819D01*
X86176666Y-30484819D02*
X86081428Y-30484819D01*
X86081428Y-30484819D02*
X85938571Y-30437200D01*
X85938571Y-30437200D02*
X85843333Y-30341961D01*
X85843333Y-30341961D02*
X85795714Y-30246723D01*
X85795714Y-30246723D02*
X85748095Y-30056247D01*
X85748095Y-30056247D02*
X85748095Y-29913390D01*
X85748095Y-29913390D02*
X85795714Y-29722914D01*
X85795714Y-29722914D02*
X85843333Y-29627676D01*
X85843333Y-29627676D02*
X85938571Y-29532438D01*
X85938571Y-29532438D02*
X86081428Y-29484819D01*
X86081428Y-29484819D02*
X86176666Y-29484819D01*
X86176666Y-29484819D02*
X86319523Y-29532438D01*
X86319523Y-29532438D02*
X86367142Y-29580057D01*
X87319523Y-30484819D02*
X86748095Y-30484819D01*
X87033809Y-30484819D02*
X87033809Y-29484819D01*
X87033809Y-29484819D02*
X86938571Y-29627676D01*
X86938571Y-29627676D02*
X86843333Y-29722914D01*
X86843333Y-29722914D02*
X86748095Y-29770533D01*
X88224285Y-29484819D02*
X87748095Y-29484819D01*
X87748095Y-29484819D02*
X87700476Y-29961009D01*
X87700476Y-29961009D02*
X87748095Y-29913390D01*
X87748095Y-29913390D02*
X87843333Y-29865771D01*
X87843333Y-29865771D02*
X88081428Y-29865771D01*
X88081428Y-29865771D02*
X88176666Y-29913390D01*
X88176666Y-29913390D02*
X88224285Y-29961009D01*
X88224285Y-29961009D02*
X88271904Y-30056247D01*
X88271904Y-30056247D02*
X88271904Y-30294342D01*
X88271904Y-30294342D02*
X88224285Y-30389580D01*
X88224285Y-30389580D02*
X88176666Y-30437200D01*
X88176666Y-30437200D02*
X88081428Y-30484819D01*
X88081428Y-30484819D02*
X87843333Y-30484819D01*
X87843333Y-30484819D02*
X87748095Y-30437200D01*
X87748095Y-30437200D02*
X87700476Y-30389580D01*
X81769580Y-30896666D02*
X81817200Y-30944285D01*
X81817200Y-30944285D02*
X81864819Y-31087142D01*
X81864819Y-31087142D02*
X81864819Y-31182380D01*
X81864819Y-31182380D02*
X81817200Y-31325237D01*
X81817200Y-31325237D02*
X81721961Y-31420475D01*
X81721961Y-31420475D02*
X81626723Y-31468094D01*
X81626723Y-31468094D02*
X81436247Y-31515713D01*
X81436247Y-31515713D02*
X81293390Y-31515713D01*
X81293390Y-31515713D02*
X81102914Y-31468094D01*
X81102914Y-31468094D02*
X81007676Y-31420475D01*
X81007676Y-31420475D02*
X80912438Y-31325237D01*
X80912438Y-31325237D02*
X80864819Y-31182380D01*
X80864819Y-31182380D02*
X80864819Y-31087142D01*
X80864819Y-31087142D02*
X80912438Y-30944285D01*
X80912438Y-30944285D02*
X80960057Y-30896666D01*
X80864819Y-30039523D02*
X80864819Y-30229999D01*
X80864819Y-30229999D02*
X80912438Y-30325237D01*
X80912438Y-30325237D02*
X80960057Y-30372856D01*
X80960057Y-30372856D02*
X81102914Y-30468094D01*
X81102914Y-30468094D02*
X81293390Y-30515713D01*
X81293390Y-30515713D02*
X81674342Y-30515713D01*
X81674342Y-30515713D02*
X81769580Y-30468094D01*
X81769580Y-30468094D02*
X81817200Y-30420475D01*
X81817200Y-30420475D02*
X81864819Y-30325237D01*
X81864819Y-30325237D02*
X81864819Y-30134761D01*
X81864819Y-30134761D02*
X81817200Y-30039523D01*
X81817200Y-30039523D02*
X81769580Y-29991904D01*
X81769580Y-29991904D02*
X81674342Y-29944285D01*
X81674342Y-29944285D02*
X81436247Y-29944285D01*
X81436247Y-29944285D02*
X81341009Y-29991904D01*
X81341009Y-29991904D02*
X81293390Y-30039523D01*
X81293390Y-30039523D02*
X81245771Y-30134761D01*
X81245771Y-30134761D02*
X81245771Y-30325237D01*
X81245771Y-30325237D02*
X81293390Y-30420475D01*
X81293390Y-30420475D02*
X81341009Y-30468094D01*
X81341009Y-30468094D02*
X81436247Y-30515713D01*
X83949580Y-40746666D02*
X83997200Y-40794285D01*
X83997200Y-40794285D02*
X84044819Y-40937142D01*
X84044819Y-40937142D02*
X84044819Y-41032380D01*
X84044819Y-41032380D02*
X83997200Y-41175237D01*
X83997200Y-41175237D02*
X83901961Y-41270475D01*
X83901961Y-41270475D02*
X83806723Y-41318094D01*
X83806723Y-41318094D02*
X83616247Y-41365713D01*
X83616247Y-41365713D02*
X83473390Y-41365713D01*
X83473390Y-41365713D02*
X83282914Y-41318094D01*
X83282914Y-41318094D02*
X83187676Y-41270475D01*
X83187676Y-41270475D02*
X83092438Y-41175237D01*
X83092438Y-41175237D02*
X83044819Y-41032380D01*
X83044819Y-41032380D02*
X83044819Y-40937142D01*
X83044819Y-40937142D02*
X83092438Y-40794285D01*
X83092438Y-40794285D02*
X83140057Y-40746666D01*
X83473390Y-40175237D02*
X83425771Y-40270475D01*
X83425771Y-40270475D02*
X83378152Y-40318094D01*
X83378152Y-40318094D02*
X83282914Y-40365713D01*
X83282914Y-40365713D02*
X83235295Y-40365713D01*
X83235295Y-40365713D02*
X83140057Y-40318094D01*
X83140057Y-40318094D02*
X83092438Y-40270475D01*
X83092438Y-40270475D02*
X83044819Y-40175237D01*
X83044819Y-40175237D02*
X83044819Y-39984761D01*
X83044819Y-39984761D02*
X83092438Y-39889523D01*
X83092438Y-39889523D02*
X83140057Y-39841904D01*
X83140057Y-39841904D02*
X83235295Y-39794285D01*
X83235295Y-39794285D02*
X83282914Y-39794285D01*
X83282914Y-39794285D02*
X83378152Y-39841904D01*
X83378152Y-39841904D02*
X83425771Y-39889523D01*
X83425771Y-39889523D02*
X83473390Y-39984761D01*
X83473390Y-39984761D02*
X83473390Y-40175237D01*
X83473390Y-40175237D02*
X83521009Y-40270475D01*
X83521009Y-40270475D02*
X83568628Y-40318094D01*
X83568628Y-40318094D02*
X83663866Y-40365713D01*
X83663866Y-40365713D02*
X83854342Y-40365713D01*
X83854342Y-40365713D02*
X83949580Y-40318094D01*
X83949580Y-40318094D02*
X83997200Y-40270475D01*
X83997200Y-40270475D02*
X84044819Y-40175237D01*
X84044819Y-40175237D02*
X84044819Y-39984761D01*
X84044819Y-39984761D02*
X83997200Y-39889523D01*
X83997200Y-39889523D02*
X83949580Y-39841904D01*
X83949580Y-39841904D02*
X83854342Y-39794285D01*
X83854342Y-39794285D02*
X83663866Y-39794285D01*
X83663866Y-39794285D02*
X83568628Y-39841904D01*
X83568628Y-39841904D02*
X83521009Y-39889523D01*
X83521009Y-39889523D02*
X83473390Y-39984761D01*
X90869580Y-46872857D02*
X90917200Y-46920476D01*
X90917200Y-46920476D02*
X90964819Y-47063333D01*
X90964819Y-47063333D02*
X90964819Y-47158571D01*
X90964819Y-47158571D02*
X90917200Y-47301428D01*
X90917200Y-47301428D02*
X90821961Y-47396666D01*
X90821961Y-47396666D02*
X90726723Y-47444285D01*
X90726723Y-47444285D02*
X90536247Y-47491904D01*
X90536247Y-47491904D02*
X90393390Y-47491904D01*
X90393390Y-47491904D02*
X90202914Y-47444285D01*
X90202914Y-47444285D02*
X90107676Y-47396666D01*
X90107676Y-47396666D02*
X90012438Y-47301428D01*
X90012438Y-47301428D02*
X89964819Y-47158571D01*
X89964819Y-47158571D02*
X89964819Y-47063333D01*
X89964819Y-47063333D02*
X90012438Y-46920476D01*
X90012438Y-46920476D02*
X90060057Y-46872857D01*
X90964819Y-45920476D02*
X90964819Y-46491904D01*
X90964819Y-46206190D02*
X89964819Y-46206190D01*
X89964819Y-46206190D02*
X90107676Y-46301428D01*
X90107676Y-46301428D02*
X90202914Y-46396666D01*
X90202914Y-46396666D02*
X90250533Y-46491904D01*
X89964819Y-45587142D02*
X89964819Y-44968095D01*
X89964819Y-44968095D02*
X90345771Y-45301428D01*
X90345771Y-45301428D02*
X90345771Y-45158571D01*
X90345771Y-45158571D02*
X90393390Y-45063333D01*
X90393390Y-45063333D02*
X90441009Y-45015714D01*
X90441009Y-45015714D02*
X90536247Y-44968095D01*
X90536247Y-44968095D02*
X90774342Y-44968095D01*
X90774342Y-44968095D02*
X90869580Y-45015714D01*
X90869580Y-45015714D02*
X90917200Y-45063333D01*
X90917200Y-45063333D02*
X90964819Y-45158571D01*
X90964819Y-45158571D02*
X90964819Y-45444285D01*
X90964819Y-45444285D02*
X90917200Y-45539523D01*
X90917200Y-45539523D02*
X90869580Y-45587142D01*
X90957142Y-41969580D02*
X90909523Y-42017200D01*
X90909523Y-42017200D02*
X90766666Y-42064819D01*
X90766666Y-42064819D02*
X90671428Y-42064819D01*
X90671428Y-42064819D02*
X90528571Y-42017200D01*
X90528571Y-42017200D02*
X90433333Y-41921961D01*
X90433333Y-41921961D02*
X90385714Y-41826723D01*
X90385714Y-41826723D02*
X90338095Y-41636247D01*
X90338095Y-41636247D02*
X90338095Y-41493390D01*
X90338095Y-41493390D02*
X90385714Y-41302914D01*
X90385714Y-41302914D02*
X90433333Y-41207676D01*
X90433333Y-41207676D02*
X90528571Y-41112438D01*
X90528571Y-41112438D02*
X90671428Y-41064819D01*
X90671428Y-41064819D02*
X90766666Y-41064819D01*
X90766666Y-41064819D02*
X90909523Y-41112438D01*
X90909523Y-41112438D02*
X90957142Y-41160057D01*
X91909523Y-42064819D02*
X91338095Y-42064819D01*
X91623809Y-42064819D02*
X91623809Y-41064819D01*
X91623809Y-41064819D02*
X91528571Y-41207676D01*
X91528571Y-41207676D02*
X91433333Y-41302914D01*
X91433333Y-41302914D02*
X91338095Y-41350533D01*
X92861904Y-42064819D02*
X92290476Y-42064819D01*
X92576190Y-42064819D02*
X92576190Y-41064819D01*
X92576190Y-41064819D02*
X92480952Y-41207676D01*
X92480952Y-41207676D02*
X92385714Y-41302914D01*
X92385714Y-41302914D02*
X92290476Y-41350533D01*
X57969580Y-35896666D02*
X58017200Y-35944285D01*
X58017200Y-35944285D02*
X58064819Y-36087142D01*
X58064819Y-36087142D02*
X58064819Y-36182380D01*
X58064819Y-36182380D02*
X58017200Y-36325237D01*
X58017200Y-36325237D02*
X57921961Y-36420475D01*
X57921961Y-36420475D02*
X57826723Y-36468094D01*
X57826723Y-36468094D02*
X57636247Y-36515713D01*
X57636247Y-36515713D02*
X57493390Y-36515713D01*
X57493390Y-36515713D02*
X57302914Y-36468094D01*
X57302914Y-36468094D02*
X57207676Y-36420475D01*
X57207676Y-36420475D02*
X57112438Y-36325237D01*
X57112438Y-36325237D02*
X57064819Y-36182380D01*
X57064819Y-36182380D02*
X57064819Y-36087142D01*
X57064819Y-36087142D02*
X57112438Y-35944285D01*
X57112438Y-35944285D02*
X57160057Y-35896666D01*
X58064819Y-34944285D02*
X58064819Y-35515713D01*
X58064819Y-35229999D02*
X57064819Y-35229999D01*
X57064819Y-35229999D02*
X57207676Y-35325237D01*
X57207676Y-35325237D02*
X57302914Y-35420475D01*
X57302914Y-35420475D02*
X57350533Y-35515713D01*
X73249580Y-38346666D02*
X73297200Y-38394285D01*
X73297200Y-38394285D02*
X73344819Y-38537142D01*
X73344819Y-38537142D02*
X73344819Y-38632380D01*
X73344819Y-38632380D02*
X73297200Y-38775237D01*
X73297200Y-38775237D02*
X73201961Y-38870475D01*
X73201961Y-38870475D02*
X73106723Y-38918094D01*
X73106723Y-38918094D02*
X72916247Y-38965713D01*
X72916247Y-38965713D02*
X72773390Y-38965713D01*
X72773390Y-38965713D02*
X72582914Y-38918094D01*
X72582914Y-38918094D02*
X72487676Y-38870475D01*
X72487676Y-38870475D02*
X72392438Y-38775237D01*
X72392438Y-38775237D02*
X72344819Y-38632380D01*
X72344819Y-38632380D02*
X72344819Y-38537142D01*
X72344819Y-38537142D02*
X72392438Y-38394285D01*
X72392438Y-38394285D02*
X72440057Y-38346666D01*
X72344819Y-37441904D02*
X72344819Y-37918094D01*
X72344819Y-37918094D02*
X72821009Y-37965713D01*
X72821009Y-37965713D02*
X72773390Y-37918094D01*
X72773390Y-37918094D02*
X72725771Y-37822856D01*
X72725771Y-37822856D02*
X72725771Y-37584761D01*
X72725771Y-37584761D02*
X72773390Y-37489523D01*
X72773390Y-37489523D02*
X72821009Y-37441904D01*
X72821009Y-37441904D02*
X72916247Y-37394285D01*
X72916247Y-37394285D02*
X73154342Y-37394285D01*
X73154342Y-37394285D02*
X73249580Y-37441904D01*
X73249580Y-37441904D02*
X73297200Y-37489523D01*
X73297200Y-37489523D02*
X73344819Y-37584761D01*
X73344819Y-37584761D02*
X73344819Y-37822856D01*
X73344819Y-37822856D02*
X73297200Y-37918094D01*
X73297200Y-37918094D02*
X73249580Y-37965713D01*
D11*
X95687419Y-45333333D02*
X96401704Y-45333333D01*
X96401704Y-45333333D02*
X96544561Y-45380952D01*
X96544561Y-45380952D02*
X96639800Y-45476190D01*
X96639800Y-45476190D02*
X96687419Y-45619047D01*
X96687419Y-45619047D02*
X96687419Y-45714285D01*
X96687419Y-44333333D02*
X96687419Y-44904761D01*
X96687419Y-44619047D02*
X95687419Y-44619047D01*
X95687419Y-44619047D02*
X95830276Y-44714285D01*
X95830276Y-44714285D02*
X95925514Y-44809523D01*
X95925514Y-44809523D02*
X95973133Y-44904761D01*
D10*
X71043333Y-26984819D02*
X70567143Y-26984819D01*
X70567143Y-26984819D02*
X70567143Y-25984819D01*
X71329048Y-26080057D02*
X71376667Y-26032438D01*
X71376667Y-26032438D02*
X71471905Y-25984819D01*
X71471905Y-25984819D02*
X71710000Y-25984819D01*
X71710000Y-25984819D02*
X71805238Y-26032438D01*
X71805238Y-26032438D02*
X71852857Y-26080057D01*
X71852857Y-26080057D02*
X71900476Y-26175295D01*
X71900476Y-26175295D02*
X71900476Y-26270533D01*
X71900476Y-26270533D02*
X71852857Y-26413390D01*
X71852857Y-26413390D02*
X71281429Y-26984819D01*
X71281429Y-26984819D02*
X71900476Y-26984819D01*
X77764819Y-38396666D02*
X77288628Y-38729999D01*
X77764819Y-38968094D02*
X76764819Y-38968094D01*
X76764819Y-38968094D02*
X76764819Y-38587142D01*
X76764819Y-38587142D02*
X76812438Y-38491904D01*
X76812438Y-38491904D02*
X76860057Y-38444285D01*
X76860057Y-38444285D02*
X76955295Y-38396666D01*
X76955295Y-38396666D02*
X77098152Y-38396666D01*
X77098152Y-38396666D02*
X77193390Y-38444285D01*
X77193390Y-38444285D02*
X77241009Y-38491904D01*
X77241009Y-38491904D02*
X77288628Y-38587142D01*
X77288628Y-38587142D02*
X77288628Y-38968094D01*
X77764819Y-37920475D02*
X77764819Y-37729999D01*
X77764819Y-37729999D02*
X77717200Y-37634761D01*
X77717200Y-37634761D02*
X77669580Y-37587142D01*
X77669580Y-37587142D02*
X77526723Y-37491904D01*
X77526723Y-37491904D02*
X77336247Y-37444285D01*
X77336247Y-37444285D02*
X76955295Y-37444285D01*
X76955295Y-37444285D02*
X76860057Y-37491904D01*
X76860057Y-37491904D02*
X76812438Y-37539523D01*
X76812438Y-37539523D02*
X76764819Y-37634761D01*
X76764819Y-37634761D02*
X76764819Y-37825237D01*
X76764819Y-37825237D02*
X76812438Y-37920475D01*
X76812438Y-37920475D02*
X76860057Y-37968094D01*
X76860057Y-37968094D02*
X76955295Y-38015713D01*
X76955295Y-38015713D02*
X77193390Y-38015713D01*
X77193390Y-38015713D02*
X77288628Y-37968094D01*
X77288628Y-37968094D02*
X77336247Y-37920475D01*
X77336247Y-37920475D02*
X77383866Y-37825237D01*
X77383866Y-37825237D02*
X77383866Y-37634761D01*
X77383866Y-37634761D02*
X77336247Y-37539523D01*
X77336247Y-37539523D02*
X77288628Y-37491904D01*
X77288628Y-37491904D02*
X77193390Y-37444285D01*
X85248095Y-44484819D02*
X85248095Y-45294342D01*
X85248095Y-45294342D02*
X85295714Y-45389580D01*
X85295714Y-45389580D02*
X85343333Y-45437200D01*
X85343333Y-45437200D02*
X85438571Y-45484819D01*
X85438571Y-45484819D02*
X85629047Y-45484819D01*
X85629047Y-45484819D02*
X85724285Y-45437200D01*
X85724285Y-45437200D02*
X85771904Y-45389580D01*
X85771904Y-45389580D02*
X85819523Y-45294342D01*
X85819523Y-45294342D02*
X85819523Y-44484819D01*
X86819523Y-45484819D02*
X86248095Y-45484819D01*
X86533809Y-45484819D02*
X86533809Y-44484819D01*
X86533809Y-44484819D02*
X86438571Y-44627676D01*
X86438571Y-44627676D02*
X86343333Y-44722914D01*
X86343333Y-44722914D02*
X86248095Y-44770533D01*
D12*
%TO.C,C7*%
X79025000Y-36151252D02*
X79025000Y-35628748D01*
X80495000Y-36151252D02*
X80495000Y-35628748D01*
%TO.C,C17*%
X90771252Y-31295000D02*
X90248748Y-31295000D01*
X90771252Y-32765000D02*
X90248748Y-32765000D01*
D11*
%TO.C,SW1*%
X52340000Y-42940000D02*
X52340000Y-50940000D01*
X52340000Y-50940000D02*
X80340000Y-50940000D01*
X80340000Y-42940000D02*
X52340000Y-42940000D01*
X80340000Y-50940000D02*
X80340000Y-42940000D01*
D12*
%TO.C,R2*%
X58775000Y-31902936D02*
X58775000Y-32357064D01*
X60245000Y-31902936D02*
X60245000Y-32357064D01*
%TO.C,D2*%
X88272500Y-38760000D02*
X88272500Y-40460000D01*
X88272500Y-38760000D02*
X91532500Y-38760000D01*
X88272500Y-40460000D02*
X91532500Y-40460000D01*
%TO.C,C10*%
X85798748Y-40595000D02*
X86321252Y-40595000D01*
X85798748Y-42065000D02*
X86321252Y-42065000D01*
%TO.C,R6*%
X68175000Y-38002936D02*
X68175000Y-38457064D01*
X69645000Y-38002936D02*
X69645000Y-38457064D01*
%TO.C,Y1*%
X53000000Y-25620000D02*
X53000000Y-38340000D01*
X53000000Y-38340000D02*
X58220000Y-38340000D01*
X58220000Y-38340000D02*
X58220000Y-25620000D01*
%TO.C,C21*%
X96475000Y-27041252D02*
X96475000Y-26518748D01*
X97945000Y-27041252D02*
X97945000Y-26518748D01*
%TO.C,L1*%
X66750000Y-30327936D02*
X66750000Y-31532064D01*
X69470000Y-30327936D02*
X69470000Y-31532064D01*
%TO.C,C3*%
X60775000Y-31768748D02*
X60775000Y-32291252D01*
X62245000Y-31768748D02*
X62245000Y-32291252D01*
%TO.C,C14*%
X88271252Y-47995000D02*
X87748748Y-47995000D01*
X88271252Y-49465000D02*
X87748748Y-49465000D01*
%TO.C,D3*%
X98600000Y-32680000D02*
X98600000Y-34380000D01*
X98600000Y-32680000D02*
X101860000Y-32680000D01*
X98600000Y-34380000D02*
X101860000Y-34380000D01*
%TO.C,R1*%
X62437064Y-24995000D02*
X61982936Y-24995000D01*
X62437064Y-26465000D02*
X61982936Y-26465000D01*
%TO.C,L3*%
X83010000Y-27110000D02*
X83010000Y-27530000D01*
X83010000Y-35190000D02*
X83010000Y-34770000D01*
X81240000Y-34770000D02*
X84780000Y-34770000D01*
X84780000Y-27530000D01*
X81240000Y-27530000D01*
X81240000Y-34770000D01*
%TO.C,Q1*%
X62510000Y-26970000D02*
X61860000Y-26970000D01*
X62510000Y-26970000D02*
X63160000Y-26970000D01*
X62510000Y-30090000D02*
X61860000Y-30090000D01*
X62510000Y-30090000D02*
X63160000Y-30090000D01*
X61347500Y-27020000D02*
X61107500Y-26690000D01*
X61587500Y-26690000D01*
X61347500Y-27020000D01*
G36*
X61347500Y-27020000D02*
G01*
X61107500Y-26690000D01*
X61587500Y-26690000D01*
X61347500Y-27020000D01*
G37*
%TO.C,C19*%
X90821252Y-33295000D02*
X90298748Y-33295000D01*
X90821252Y-34765000D02*
X90298748Y-34765000D01*
%TO.C,Q3*%
X72260000Y-28820000D02*
X76020000Y-28820000D01*
X72260000Y-35640000D02*
X76020000Y-35640000D01*
X76020000Y-28820000D02*
X76020000Y-30080000D01*
X76020000Y-35640000D02*
X76020000Y-34380000D01*
X70980000Y-28920000D02*
X70740000Y-28590000D01*
X71220000Y-28590000D01*
X70980000Y-28920000D01*
G36*
X70980000Y-28920000D02*
G01*
X70740000Y-28590000D01*
X71220000Y-28590000D01*
X70980000Y-28920000D01*
G37*
%TO.C,AE1*%
X92610000Y-29330000D02*
X96010000Y-29330000D01*
X92610000Y-32730000D02*
X92610000Y-29330000D01*
X96010000Y-29330000D02*
X96010000Y-32730000D01*
X96010000Y-32730000D02*
X92610000Y-32730000D01*
%TO.C,J3*%
X100630000Y-28135000D02*
X100630000Y-25485000D01*
X103390000Y-25485000D02*
X100630000Y-25485000D01*
X103390000Y-28135000D02*
X100630000Y-28135000D01*
X103390000Y-28135000D02*
X103390000Y-25485000D01*
X103390000Y-29405000D02*
X103390000Y-30785000D01*
X103390000Y-30785000D02*
X102010000Y-30785000D01*
%TO.C,L4*%
X86910000Y-27090000D02*
X86910000Y-27510000D01*
X86910000Y-35170000D02*
X86910000Y-34750000D01*
X88680000Y-27510000D02*
X85140000Y-27510000D01*
X85140000Y-34750000D01*
X88680000Y-34750000D01*
X88680000Y-27510000D01*
%TO.C,R5*%
X64875000Y-26315436D02*
X64875000Y-26769564D01*
X66345000Y-26315436D02*
X66345000Y-26769564D01*
%TO.C,C20*%
X90771252Y-35295000D02*
X90248748Y-35295000D01*
X90771252Y-36765000D02*
X90248748Y-36765000D01*
%TO.C,C2*%
X58775000Y-28468748D02*
X58775000Y-28991252D01*
X60245000Y-28468748D02*
X60245000Y-28991252D01*
%TO.C,R8*%
X84837064Y-47985000D02*
X84382936Y-47985000D01*
X84837064Y-49455000D02*
X84382936Y-49455000D01*
%TO.C,Q2*%
X62510000Y-33870000D02*
X61860000Y-33870000D01*
X62510000Y-33870000D02*
X63160000Y-33870000D01*
X62510000Y-36990000D02*
X61860000Y-36990000D01*
X62510000Y-36990000D02*
X63160000Y-36990000D01*
X63912500Y-37270000D02*
X63432500Y-37270000D01*
X63672500Y-36940000D01*
X63912500Y-37270000D01*
G36*
X63912500Y-37270000D02*
G01*
X63432500Y-37270000D01*
X63672500Y-36940000D01*
X63912500Y-37270000D01*
G37*
%TO.C,R3*%
X64775000Y-29902936D02*
X64775000Y-30357064D01*
X66245000Y-29902936D02*
X66245000Y-30357064D01*
%TO.C,C12*%
X90248748Y-25295000D02*
X90771252Y-25295000D01*
X90248748Y-26765000D02*
X90771252Y-26765000D01*
%TO.C,R4*%
X62282936Y-37395000D02*
X62737064Y-37395000D01*
X62282936Y-38865000D02*
X62737064Y-38865000D01*
%TO.C,J2*%
X92510000Y-25330000D02*
X95910000Y-25330000D01*
X92510000Y-28730000D02*
X92510000Y-25330000D01*
X95910000Y-25330000D02*
X95910000Y-28730000D01*
X95910000Y-28730000D02*
X92510000Y-28730000D01*
%TO.C,C4*%
X62775000Y-32291252D02*
X62775000Y-31768748D01*
X64245000Y-32291252D02*
X64245000Y-31768748D01*
%TO.C,C18*%
X90771252Y-27295000D02*
X90248748Y-27295000D01*
X90771252Y-28765000D02*
X90248748Y-28765000D01*
%TO.C,C22*%
X98475000Y-26991252D02*
X98475000Y-26468748D01*
X99945000Y-26991252D02*
X99945000Y-26468748D01*
%TO.C,D1*%
X69220000Y-34380000D02*
X65960000Y-34380000D01*
X69220000Y-36080000D02*
X65960000Y-36080000D01*
X69220000Y-36080000D02*
X69220000Y-34380000D01*
%TO.C,C16*%
X90005000Y-49388748D02*
X90005000Y-49911252D01*
X91475000Y-49388748D02*
X91475000Y-49911252D01*
%TO.C,R7*%
X92885000Y-36862936D02*
X92885000Y-37317064D01*
X94355000Y-36862936D02*
X94355000Y-37317064D01*
%TO.C,C9*%
X79275000Y-26518748D02*
X79275000Y-27041252D01*
X80745000Y-26518748D02*
X80745000Y-27041252D01*
%TO.C,C15*%
X90821252Y-29295000D02*
X90298748Y-29295000D01*
X90821252Y-30765000D02*
X90298748Y-30765000D01*
%TO.C,C6*%
X78975000Y-30418748D02*
X78975000Y-30941252D01*
X80445000Y-30418748D02*
X80445000Y-30941252D01*
%TO.C,C8*%
X81175000Y-40318748D02*
X81175000Y-40841252D01*
X82645000Y-40318748D02*
X82645000Y-40841252D01*
%TO.C,C13*%
X91375000Y-46491252D02*
X91375000Y-45968748D01*
X92845000Y-46491252D02*
X92845000Y-45968748D01*
%TO.C,C11*%
X91148748Y-42795000D02*
X91671252Y-42795000D01*
X91148748Y-44265000D02*
X91671252Y-44265000D01*
%TO.C,C1*%
X58775000Y-35791252D02*
X58775000Y-35268748D01*
X60245000Y-35791252D02*
X60245000Y-35268748D01*
%TO.C,C5*%
X70475000Y-37918748D02*
X70475000Y-38441252D01*
X71945000Y-37918748D02*
X71945000Y-38441252D01*
D11*
%TO.C,J1*%
X94830000Y-38900000D02*
X94830000Y-44900000D01*
X94830000Y-44900000D02*
X94830000Y-50900000D01*
X94830000Y-50900000D02*
X106330000Y-50900000D01*
X106330000Y-38900000D02*
X94830000Y-38900000D01*
X106330000Y-41400000D02*
X109830000Y-41400000D01*
X106330000Y-48400000D02*
X106330000Y-41400000D01*
X106330000Y-50900000D02*
X106330000Y-38900000D01*
X109830000Y-41400000D02*
X109830000Y-48400000D01*
X109830000Y-48400000D02*
X106330000Y-48400000D01*
D12*
%TO.C,L2*%
X68770000Y-26730000D02*
X69190000Y-26730000D01*
X76850000Y-26730000D02*
X76430000Y-26730000D01*
X69190000Y-24960000D02*
X76430000Y-24960000D01*
X76430000Y-28500000D01*
X69190000Y-28500000D01*
X69190000Y-24960000D01*
%TO.C,R9*%
X74600000Y-37502936D02*
X74600000Y-38957064D01*
X76420000Y-37502936D02*
X76420000Y-38957064D01*
%TO.C,U1*%
X86010000Y-42470000D02*
X84060000Y-42470000D01*
X86010000Y-42470000D02*
X87960000Y-42470000D01*
X86010000Y-47590000D02*
X84060000Y-47590000D01*
X86010000Y-47590000D02*
X87960000Y-47590000D01*
X83310000Y-42565000D02*
X83070000Y-42235000D01*
X83550000Y-42235000D01*
X83310000Y-42565000D01*
G36*
X83310000Y-42565000D02*
G01*
X83070000Y-42235000D01*
X83550000Y-42235000D01*
X83310000Y-42565000D01*
G37*
%TD*%
M02*
